<svg aria-hidden="true" style="position: absolute; width: 0; height: 0; overflow: hidden;" version="1.1" xmlns="http://www.w3.org/2000/svg" xmlns:xlink="http://www.w3.org/1999/xlink">
<defs>
<symbol id="icon-basket-bw-check" viewBox="0 0 32 32">
<path d="M4.629 11.006c-1.625 0-2.863 1.514-2.588 3.102l2.275 13.137c0.279 1.608 1.7 2.762 3.313 2.762h16.768c1.614 0 3.013-1.161 3.311-2.748 0 0.001 0.001-0.004 0.001-0.008l0.001-0.005 2.041-11.779c0.009-0.051 0.014-0.109 0.014-0.169 0-0.492-0.355-0.901-0.823-0.984l-0.006-0.001c-0.051-0.009-0.109-0.014-0.169-0.014-0.492 0-0.901 0.355-0.984 0.823l-0.001 0.006-2.039 11.766c-0.123 0.654-0.68 1.115-1.346 1.115h-16.768c-0.667 0-1.233-0.463-1.344-1.102l-2.275-13.137c-0.074-0.426 0.201-0.762 0.619-0.762h15.371c0.552 0 1-0.448 1-1v0c0-0.552-0.448-1-1-1v0z"></path>
<path d="M11.305 2.072c-0.25 0.097-0.447 0.285-0.554 0.521l-0.003 0.006-4 9c-0.055 0.12-0.086 0.259-0.086 0.406 0 0.405 0.241 0.754 0.588 0.911l0.006 0.003c0.12 0.055 0.259 0.086 0.406 0.086 0.405 0 0.754-0.241 0.911-0.588l0.003-0.006 4-9c0.055-0.12 0.086-0.259 0.086-0.406 0-0.405-0.241-0.754-0.588-0.911l-0.006-0.003c-0.119-0.054-0.259-0.086-0.405-0.086-0.129 0-0.252 0.024-0.365 0.069l0.007-0.002z"></path>
<path d="M20.721 2.072c-0.107-0.042-0.23-0.067-0.359-0.067-0.147 0-0.287 0.032-0.413 0.089l0.006-0.003c-0.352 0.16-0.592 0.508-0.592 0.913 0 0.147 0.032 0.287 0.089 0.413l-0.003-0.006 2.092 4.707c0.16 0.353 0.509 0.593 0.914 0.593 0.146 0 0.286-0.031 0.411-0.088l-0.006 0.003c0.353-0.16 0.594-0.509 0.594-0.914 0-0.147-0.032-0.287-0.089-0.413l0.003 0.006-2.092-4.707c-0.11-0.242-0.306-0.43-0.548-0.525l-0.007-0.002z"></path>
<path d="M16 15.006c-0.552 0-1 0.448-1 1v0 8c0 0.552 0.448 1 1 1v0c0.552 0 1-0.448 1-1v0-8c0-0.552-0.448-1-1-1v0z"></path>
<path d="M12 15.006c-0.552 0-1 0.448-1 1v0 8c0 0.552 0.448 1 1 1v0c0.552 0 1-0.448 1-1v0-8c0-0.552-0.448-1-1-1v0z"></path>
<path d="M20 18.006c-0.552 0-1 0.448-1 1v0 5c0 0.552 0.448 1 1 1v0c0.552 0 1-0.448 1-1v0-5c0-0.552-0.448-1-1-1v0z"></path>
<path d="M25 6.006c-3.302 0-6 2.698-6 6s2.698 6 6 6c3.302 0 6-2.698 6-6s-2.698-6-6-6zM25 8.006c2.221 0 4 1.779 4 4s-1.779 4-4 4c-2.221 0-4-1.779-4-4s1.779-4 4-4z"></path>
<path d="M27.102 10.012c-0.031-0.003-0.067-0.005-0.104-0.005-0.24 0-0.46 0.085-0.633 0.226l0.002-0.001-2.029 1.656-0.656-0.611c-0.178-0.166-0.418-0.268-0.682-0.268-0.288 0-0.548 0.122-0.73 0.317l-0 0.001c-0.166 0.178-0.268 0.418-0.268 0.682 0 0.288 0.122 0.548 0.317 0.73l0.001 0.001 1.293 1.209c0.178 0.166 0.418 0.268 0.681 0.268 0.24 0 0.461-0.085 0.633-0.226l-0.002 0.001 2.709-2.207c0.225-0.185 0.367-0.463 0.367-0.774 0-0.24-0.085-0.461-0.226-0.634l0.001 0.002c-0.164-0.2-0.401-0.335-0.669-0.363l-0.004-0z"></path>
</symbol>
<symbol id="icon-basket-bw-cross" viewBox="0 0 32 32">
<path d="M4.629 11.006c-1.625 0-2.863 1.514-2.588 3.102l2.275 13.137c0.279 1.608 1.7 2.762 3.313 2.762h16.768c1.614 0 3.013-1.161 3.311-2.748 0 0.001 0.001-0.004 0.001-0.008l0.001-0.005 2.041-11.781c0.009-0.051 0.014-0.109 0.014-0.169 0-0.492-0.355-0.901-0.823-0.984l-0.006-0.001c-0.051-0.009-0.109-0.014-0.169-0.014-0.492 0-0.901 0.355-0.984 0.823l-0.001 0.006-2.039 11.768c-0.123 0.654-0.68 1.115-1.346 1.115h-16.768c-0.667 0-1.233-0.463-1.344-1.102l-2.275-13.137c-0.074-0.426 0.201-0.762 0.619-0.762h15.371c0.552 0 1-0.448 1-1v0c0-0.552-0.448-1-1-1v0z"></path>
<path d="M11.305 2.072c-0.25 0.097-0.447 0.285-0.554 0.521l-0.003 0.006-4 9c-0.055 0.12-0.086 0.259-0.086 0.406 0 0.405 0.241 0.754 0.588 0.911l0.006 0.003c0.12 0.055 0.259 0.086 0.406 0.086 0.405 0 0.754-0.241 0.911-0.588l0.003-0.006 4-9c0.055-0.12 0.086-0.259 0.086-0.406 0-0.405-0.241-0.754-0.588-0.911l-0.006-0.003c-0.119-0.054-0.259-0.086-0.405-0.086-0.129 0-0.252 0.024-0.365 0.069l0.007-0.002z"></path>
<path d="M19.955 2.092c-0.352 0.16-0.592 0.509-0.592 0.913 0 0.147 0.032 0.287 0.089 0.413l-0.003-0.006 2.092 4.707c0.16 0.353 0.509 0.593 0.914 0.593 0.146 0 0.286-0.031 0.411-0.088l-0.006 0.003c0.353-0.16 0.594-0.509 0.594-0.914 0-0.147-0.032-0.287-0.089-0.413l0.003 0.006-2.092-4.707c-0.16-0.353-0.509-0.594-0.914-0.594-0.147 0-0.287 0.032-0.413 0.089l0.006-0.003z"></path>
<path d="M16 15.006c-0.552 0-1 0.448-1 1v0 8c0 0.552 0.448 1 1 1v0c0.552 0 1-0.448 1-1v0-8c0-0.552-0.448-1-1-1v0z"></path>
<path d="M12 15.006c-0.552 0-1 0.448-1 1v0 8c0 0.552 0.448 1 1 1v0c0.552 0 1-0.448 1-1v0-8c0-0.552-0.448-1-1-1v0z"></path>
<path d="M20 18.006c-0.552 0-1 0.448-1 1v0 5c0 0.552 0.448 1 1 1v0c0.552 0 1-0.448 1-1v0-5c0-0.552-0.448-1-1-1v0z"></path>
<path d="M25 6.006c-3.302 0-6 2.698-6 6s2.698 6 6 6c3.302 0 6-2.698 6-6s-2.698-6-6-6zM25 8.006c2.221 0 4 1.779 4 4s-1.779 4-4 4c-2.221 0-4-1.779-4-4s1.779-4 4-4z"></path>
<path d="M23.586 9.592c-0.276 0-0.526 0.112-0.707 0.293v0c-0.181 0.181-0.293 0.431-0.293 0.707s0.112 0.526 0.293 0.707l0.707 0.707-0.707 0.707c-0.181 0.181-0.293 0.431-0.293 0.707s0.112 0.526 0.293 0.707v0c0.181 0.181 0.431 0.293 0.707 0.293s0.526-0.112 0.707-0.293l0.707-0.707 0.707 0.707c0.181 0.181 0.431 0.293 0.707 0.293s0.526-0.112 0.707-0.293v0c0.181-0.181 0.293-0.431 0.293-0.707s-0.112-0.526-0.293-0.707l-0.707-0.707 0.707-0.707c0.181-0.181 0.293-0.431 0.293-0.707s-0.112-0.526-0.293-0.707v0c-0.181-0.181-0.431-0.293-0.707-0.293v0c-0.276 0-0.526 0.112-0.707 0.293l-0.707 0.707-0.707-0.707c-0.181-0.181-0.431-0.293-0.707-0.293v0z"></path>
</symbol>
<symbol id="icon-basket-bw-minus" viewBox="0 0 32 32">
<path d="M4.629 11.006c-1.625 0-2.863 1.514-2.588 3.102l2.275 13.137c0.279 1.608 1.7 2.762 3.313 2.762h16.768c1.614 0 3.013-1.161 3.311-2.748 0 0.001 0.001-0.004 0.001-0.008l0.001-0.005 2.041-11.781c0.009-0.051 0.014-0.109 0.014-0.169 0-0.492-0.355-0.901-0.823-0.984l-0.006-0.001c-0.051-0.009-0.109-0.014-0.169-0.014-0.492 0-0.901 0.355-0.984 0.823l-0.001 0.006-2.039 11.768c-0.123 0.653-0.68 1.115-1.346 1.115h-16.768c-0.667 0-1.233-0.463-1.344-1.102l-2.275-13.137c-0.074-0.426 0.201-0.762 0.619-0.762h15.371c0.552 0 1-0.448 1-1v0c0-0.552-0.448-1-1-1v0z"></path>
<path d="M11.305 2.072c-0.25 0.097-0.447 0.285-0.554 0.521l-0.003 0.006-4 9c-0.055 0.12-0.086 0.259-0.086 0.406 0 0.405 0.241 0.754 0.588 0.911l0.006 0.003c0.12 0.055 0.259 0.086 0.406 0.086 0.405 0 0.754-0.241 0.911-0.588l0.003-0.006 4-9c0.055-0.12 0.086-0.259 0.086-0.406 0-0.405-0.241-0.754-0.588-0.911l-0.006-0.003c-0.119-0.054-0.259-0.086-0.405-0.086-0.129 0-0.252 0.024-0.365 0.069l0.007-0.002z"></path>
<path d="M20.721 2.072c-0.106-0.042-0.229-0.066-0.358-0.066-0.147 0-0.286 0.032-0.412 0.088l0.006-0.003c-0.353 0.16-0.594 0.509-0.594 0.914 0 0.147 0.032 0.287 0.089 0.413l-0.003-0.006 2.092 4.707c0.16 0.353 0.509 0.593 0.914 0.593 0.146 0 0.286-0.031 0.411-0.088l-0.006 0.003c0.353-0.16 0.594-0.509 0.594-0.914 0-0.147-0.032-0.287-0.089-0.413l0.003 0.006-2.092-4.707c-0.11-0.242-0.306-0.43-0.548-0.525l-0.007-0.002z"></path>
<path d="M16 15.006c-0.552 0-1 0.448-1 1v0 8c0 0.552 0.448 1 1 1v0c0.552 0 1-0.448 1-1v0-8c0-0.552-0.448-1-1-1v0z"></path>
<path d="M12 15.006c-0.552 0-1 0.448-1 1v0 8c0 0.552 0.448 1 1 1v0c0.552 0 1-0.448 1-1v0-8c0-0.552-0.448-1-1-1v0z"></path>
<path d="M20 18.006c-0.552 0-1 0.448-1 1v0 5c0 0.552 0.448 1 1 1v0c0.552 0 1-0.448 1-1v0-5c0-0.552-0.448-1-1-1v0z"></path>
<path d="M25 6.006c-3.302 0-6 2.698-6 6s2.698 6 6 6c3.302 0 6-2.698 6-6s-2.698-6-6-6zM25 8.006c2.221 0 4 1.779 4 4s-1.779 4-4 4c-2.221 0-4-1.779-4-4s1.779-4 4-4z"></path>
<path d="M23 11.006c-0.552 0-1 0.448-1 1v0c0 0.552 0.448 1 1 1v0h4c0.552 0 1-0.448 1-1v0c0-0.552-0.448-1-1-1v0z"></path>
</symbol>
<symbol id="icon-basket-bw-plus" viewBox="0 0 32 32">
<path d="M25 6.006c-2.961 0-5.434 2.171-5.914 5h-14.457c-1.625 0-2.863 1.514-2.588 3.102l2.275 13.137c0.279 1.608 1.7 2.762 3.313 2.762h16.768c1.614 0 3.013-1.161 3.311-2.748 0 0.001 0.001-0.004 0.001-0.008l0.001-0.005 1.998-11.527c0.809-1.023 1.293-2.312 1.293-3.711 0-3.302-2.698-6-6-6zM25 8.006c2.221 0 4 1.779 4 4s-1.779 4-4 4c-2.221 0-4-1.779-4-4s1.779-4 4-4zM4.629 13.006h14.457c0.48 2.829 2.953 5 5.914 5 0.84 0 1.64-0.175 2.367-0.49l-1.625 9.375c-0.123 0.653-0.68 1.115-1.346 1.115h-16.768c-0.667 0-1.233-0.463-1.344-1.102l-2.275-13.137c-0.074-0.426 0.201-0.762 0.619-0.762z"></path>
<path d="M11.305 2.072c-0.25 0.097-0.447 0.285-0.554 0.521l-0.003 0.006-4 9c-0.055 0.12-0.086 0.259-0.086 0.406 0 0.405 0.241 0.754 0.588 0.911l0.006 0.003c0.12 0.055 0.259 0.086 0.406 0.086 0.405 0 0.754-0.241 0.911-0.588l0.003-0.006 4-9c0.055-0.12 0.086-0.259 0.086-0.406 0-0.405-0.241-0.754-0.588-0.911l-0.006-0.003c-0.119-0.054-0.259-0.086-0.405-0.086-0.129 0-0.252 0.024-0.365 0.069l0.007-0.002z"></path>
<path d="M20.467 2.012c-0.174-0.018-0.35 0.009-0.51 0.080-0.505 0.224-0.732 0.816-0.508 1.32l1.76 3.959c0.517-0.424 1.103-0.766 1.742-1l-1.676-3.771c-0.108-0.242-0.307-0.432-0.555-0.527-0.082-0.031-0.167-0.051-0.254-0.061z"></path>
<path d="M16 15.006c-0.552 0-1 0.448-1 1v0 8c0 0.552 0.448 1 1 1v0c0.552 0 1-0.448 1-1v0-8c0-0.552-0.448-1-1-1v0z"></path>
<path d="M12 15.006c-0.552 0-1 0.448-1 1v0 8c0 0.552 0.448 1 1 1v0c0.552 0 1-0.448 1-1v0-8c0-0.552-0.448-1-1-1v0z"></path>
<path d="M20 18.006c-0.552 0-1 0.448-1 1v0 5c0 0.552 0.448 1 1 1v0c0.552 0 1-0.448 1-1v0-5c0-0.552-0.448-1-1-1v0z"></path>
<path d="M25 9.006c-0.552 0-1 0.448-1 1v0 1h-1c-0.552 0-1 0.448-1 1v0c0 0.552 0.448 1 1 1v0h1v1c0 0.552 0.448 1 1 1v0c0.552 0 1-0.448 1-1v0-1h1c0.552 0 1-0.448 1-1v0c0-0.552-0.448-1-1-1v0h-1v-1c0-0.552-0.448-1-1-1v0z"></path>
</symbol>
<symbol id="icon-basket-bw-wait" viewBox="0 0 32 32">
<path d="M4.604 11.006c-1.625 0-2.863 1.514-2.588 3.102l2.275 13.137c0.279 1.608 1.7 2.762 3.313 2.762h16.768c1.614 0 3.013-1.161 3.311-2.748 0 0.001 0.001-0.004 0.001-0.008l0.001-0.005 2.041-11.781c0.009-0.051 0.014-0.109 0.014-0.169 0-0.492-0.355-0.901-0.823-0.984l-0.006-0.001c-0.051-0.009-0.109-0.014-0.169-0.014-0.492 0-0.901 0.355-0.984 0.823l-0.001 0.006-2.039 11.768c-0.123 0.654-0.68 1.115-1.346 1.115h-16.768c-0.667 0-1.233-0.463-1.344-1.102l-2.275-13.137c-0.074-0.426 0.201-0.762 0.619-0.762h15.371c0.552 0 1-0.448 1-1v0c0-0.552-0.448-1-1-1v0z"></path>
<path d="M11.279 2.072c-0.249 0.098-0.445 0.285-0.552 0.521l-0.003 0.006-4 9c-0.055 0.12-0.086 0.259-0.086 0.406 0 0.405 0.241 0.754 0.588 0.911l0.006 0.003c0.119 0.054 0.258 0.086 0.405 0.086 0.405 0 0.754-0.241 0.911-0.587l0.003-0.006 4-9c0.055-0.12 0.086-0.259 0.086-0.406 0-0.405-0.241-0.754-0.588-0.911l-0.006-0.003c-0.119-0.054-0.259-0.086-0.405-0.086-0.129 0-0.252 0.024-0.365 0.069l0.007-0.002z"></path>
<path d="M20.695 2.072c-0.106-0.042-0.229-0.066-0.358-0.066-0.147 0-0.286 0.032-0.412 0.088l0.006-0.003c-0.353 0.16-0.594 0.509-0.594 0.914 0 0.147 0.032 0.287 0.089 0.413l-0.003-0.006 2.092 4.707c0.16 0.353 0.509 0.594 0.914 0.594 0.147 0 0.287-0.032 0.413-0.089l-0.006 0.003c0.353-0.16 0.594-0.509 0.594-0.914 0-0.147-0.032-0.287-0.089-0.413l0.003 0.006-2.094-4.707c-0.11-0.242-0.306-0.43-0.548-0.525l-0.007-0.002z"></path>
<path d="M15.975 15.006c-0.552 0-1 0.448-1 1v0 8c0 0.552 0.448 1 1 1v0c0.552 0 1-0.448 1-1v0-8c0-0.552-0.448-1-1-1v0z"></path>
<path d="M11.975 15.006c-0.552 0-1 0.448-1 1v0 8c0 0.552 0.448 1 1 1v0c0.552 0 1-0.448 1-1v0-8c0-0.552-0.448-1-1-1v0z"></path>
<path d="M19.975 18.006c-0.552 0-1 0.448-1 1v0 5c0 0.552 0.448 1 1 1v0c0.552 0 1-0.448 1-1v0-5c0-0.552-0.448-1-1-1v0z"></path>
<path d="M24.975 6.006c-3.302 0-6 2.698-6 6s2.698 6 6 6c3.302 0 6-2.698 6-6s-2.698-6-6-6zM24.975 8.006c2.221 0 4 1.779 4 4s-1.779 4-4 4c-2.221 0-4-1.779-4-4s1.779-4 4-4z"></path>
<path d="M24.975 9.006c-0.552 0-1 0.448-1 1v0 2c0 0.552 0.448 1 1 1h2c0.552 0 1-0.448 1-1v0c0-0.552-0.448-1-1-1v0h-1v-1c0-0.552-0.448-1-1-1v0z"></path>
</symbol>
</defs>
</svg>
