<svg xmlns="http://www.w3.org/2000/svg" aria-hidden="true" style="position:absolute;width:0;height:0;overflow:hidden"><defs><symbol id="icon-basket-bw-check" viewBox="0 0 32 32"><path d="M4.629 11.006c-1.625 0-2.863 1.514-2.588 3.102l2.275 13.137c.279 1.608 1.7 2.762 3.313 2.762h16.768a3.38 3.38 0 0 0 3.312-2.756l.001-.005 2.041-11.779a1 1 0 0 0-.809-1.153l-.006-.001a1 1 0 0 0-1.153.809l-.001.006-2.039 11.766a1.357 1.357 0 0 1-1.346 1.115H7.629c-.667 0-1.233-.463-1.344-1.102L4.01 13.77c-.074-.426.201-.762.619-.762H20a1 1 0 0 0 0-2z"/><path d="M11.305 2.072c-.25.097-.447.285-.554.521l-.003.006-4 9a1 1 0 0 0 .502 1.317l.006.003a1 1 0 0 0 1.317-.502l.003-.006 4-9a1 1 0 0 0-.502-1.317l-.006-.003a.988.988 0 0 0-.77-.017l.007-.002zM20.721 2.072a.989.989 0 0 0-.772.022l.006-.003a1.001 1.001 0 0 0-.503 1.326l-.003-.006 2.092 4.707a1.002 1.002 0 0 0 1.325.505l-.006.003a1.003 1.003 0 0 0 .505-1.327l.003.006-2.092-4.707a1.01 1.01 0 0 0-.548-.525l-.007-.002zM16 15.006a1 1 0 0 0-1 1v8a1 1 0 0 0 2 0v-8a1 1 0 0 0-1-1zM12 15.006a1 1 0 0 0-1 1v8a1 1 0 0 0 2 0v-8a1 1 0 0 0-1-1zM20 18.006a1 1 0 0 0-1 1v5a1 1 0 0 0 2 0v-5a1 1 0 0 0-1-1z"/><path d="M25 6.006c-3.302 0-6 2.698-6 6s2.698 6 6 6 6-2.698 6-6-2.698-6-6-6zm0 2c2.221 0 4 1.779 4 4s-1.779 4-4 4-4-1.779-4-4 1.779-4 4-4z"/><path d="M27.102 10.012a.998.998 0 0 0-.737.221l.002-.001-2.029 1.656-.656-.611a.997.997 0 0 0-1.412.049v.001a.997.997 0 0 0 .049 1.412l.001.001 1.293 1.209a.996.996 0 0 0 1.314.042l-.002.001 2.709-2.207a.999.999 0 0 0 .141-1.408l.001.002a1 1 0 0 0-.669-.363h-.004z"/></symbol><symbol id="icon-basket-bw-cross" viewBox="0 0 32 32"><path d="M4.629 11.006c-1.625 0-2.863 1.514-2.588 3.102l2.275 13.137c.279 1.608 1.7 2.762 3.313 2.762h16.768a3.38 3.38 0 0 0 3.312-2.756l.001-.005 2.041-11.781a1 1 0 0 0-.809-1.153l-.006-.001a1 1 0 0 0-1.153.809l-.001.006-2.039 11.768a1.357 1.357 0 0 1-1.346 1.115H7.629c-.667 0-1.233-.463-1.344-1.102L4.01 13.77c-.074-.426.201-.762.619-.762H20a1 1 0 0 0 0-2z"/><path d="M11.305 2.072c-.25.097-.447.285-.554.521l-.003.006-4 9a1 1 0 0 0 .502 1.317l.006.003a1 1 0 0 0 1.317-.502l.003-.006 4-9a1 1 0 0 0-.502-1.317l-.006-.003a.988.988 0 0 0-.77-.017l.007-.002zM19.955 2.092a1.002 1.002 0 0 0-.503 1.326l-.003-.006 2.092 4.707a1.002 1.002 0 0 0 1.325.505l-.006.003a1.003 1.003 0 0 0 .505-1.327l.003.006-2.092-4.707a1.003 1.003 0 0 0-1.327-.505l.006-.003zM16 15.006a1 1 0 0 0-1 1v8a1 1 0 0 0 2 0v-8a1 1 0 0 0-1-1zM12 15.006a1 1 0 0 0-1 1v8a1 1 0 0 0 2 0v-8a1 1 0 0 0-1-1zM20 18.006a1 1 0 0 0-1 1v5a1 1 0 0 0 2 0v-5a1 1 0 0 0-1-1z"/><path d="M25 6.006c-3.302 0-6 2.698-6 6s2.698 6 6 6 6-2.698 6-6-2.698-6-6-6zm0 2c2.221 0 4 1.779 4 4s-1.779 4-4 4-4-1.779-4-4 1.779-4 4-4z"/><path d="M23.586 9.592a.997.997 0 0 0-.707 1.707l.707.707-.707.707a.997.997 0 0 0 0 1.414.997.997 0 0 0 1.414 0L25 13.42l.707.707a.997.997 0 0 0 1.414 0 .997.997 0 0 0 0-1.414l-.707-.707.707-.707a.997.997 0 0 0 0-1.414.997.997 0 0 0-1.414 0l-.707.707-.707-.707a.997.997 0 0 0-.707-.293z"/></symbol><symbol id="icon-basket-bw-minus" viewBox="0 0 32 32"><path d="M4.629 11.006c-1.625 0-2.863 1.514-2.588 3.102l2.275 13.137c.279 1.608 1.7 2.762 3.313 2.762h16.768a3.38 3.38 0 0 0 3.312-2.756l.001-.005 2.041-11.781a1 1 0 0 0-.809-1.153l-.006-.001a1 1 0 0 0-1.153.809l-.001.006-2.039 11.768a1.358 1.358 0 0 1-1.346 1.115H7.629c-.667 0-1.233-.463-1.344-1.102L4.01 13.77c-.074-.426.201-.762.619-.762H20a1 1 0 0 0 0-2z"/><path d="M11.305 2.072c-.25.097-.447.285-.554.521l-.003.006-4 9a1 1 0 0 0 .502 1.317l.006.003a1 1 0 0 0 1.317-.502l.003-.006 4-9a1 1 0 0 0-.502-1.317l-.006-.003a.988.988 0 0 0-.77-.017l.007-.002zM20.721 2.072a1.011 1.011 0 0 0-.77.022l.006-.003a1.003 1.003 0 0 0-.505 1.327l-.003-.006 2.092 4.707a1.002 1.002 0 0 0 1.325.505l-.006.003a1.003 1.003 0 0 0 .505-1.327l.003.006-2.092-4.707a1.01 1.01 0 0 0-.548-.525l-.007-.002zM16 15.006a1 1 0 0 0-1 1v8a1 1 0 0 0 2 0v-8a1 1 0 0 0-1-1zM12 15.006a1 1 0 0 0-1 1v8a1 1 0 0 0 2 0v-8a1 1 0 0 0-1-1zM20 18.006a1 1 0 0 0-1 1v5a1 1 0 0 0 2 0v-5a1 1 0 0 0-1-1z"/><path d="M25 6.006c-3.302 0-6 2.698-6 6s2.698 6 6 6 6-2.698 6-6-2.698-6-6-6zm0 2c2.221 0 4 1.779 4 4s-1.779 4-4 4-4-1.779-4-4 1.779-4 4-4z"/><path d="M23 11.006a1 1 0 0 0 0 2h4a1 1 0 0 0 0-2z"/></symbol><symbol id="icon-basket-bw-plus" viewBox="0 0 32 32"><path d="M25 6.006c-2.961 0-5.434 2.171-5.914 5H4.629c-1.625 0-2.863 1.514-2.588 3.102l2.275 13.137c.279 1.608 1.7 2.762 3.313 2.762h16.768a3.38 3.38 0 0 0 3.312-2.756l.001-.005 1.998-11.527a5.964 5.964 0 0 0 1.293-3.711c0-3.302-2.698-6-6-6zm0 2c2.221 0 4 1.779 4 4s-1.779 4-4 4-4-1.779-4-4 1.779-4 4-4zm-20.371 5h14.457c.48 2.829 2.953 5 5.914 5 .84 0 1.64-.175 2.367-.49l-1.625 9.375a1.358 1.358 0 0 1-1.346 1.115H7.628c-.667 0-1.233-.463-1.344-1.102L4.009 13.767c-.074-.426.201-.762.619-.762z"/><path d="M11.305 2.072c-.25.097-.447.285-.554.521l-.003.006-4 9a1 1 0 0 0 .502 1.317l.006.003a1 1 0 0 0 1.317-.502l.003-.006 4-9a1 1 0 0 0-.502-1.317l-.006-.003a.988.988 0 0 0-.77-.017l.007-.002zM20.467 2.012a1 1 0 0 0-1.018 1.4l1.76 3.959a6.006 6.006 0 0 1 1.742-1L21.275 2.6a1 1 0 0 0-.809-.588zM16 15.006a1 1 0 0 0-1 1v8a1 1 0 0 0 2 0v-8a1 1 0 0 0-1-1zM12 15.006a1 1 0 0 0-1 1v8a1 1 0 0 0 2 0v-8a1 1 0 0 0-1-1zM20 18.006a1 1 0 0 0-1 1v5a1 1 0 0 0 2 0v-5a1 1 0 0 0-1-1zM25 9.006a1 1 0 0 0-1 1v1h-1a1 1 0 0 0 0 2h1v1a1 1 0 0 0 2 0v-1h1a1 1 0 0 0 0-2h-1v-1a1 1 0 0 0-1-1z"/></symbol><symbol id="icon-basket-bw-wait" viewBox="0 0 32 32"><path d="M4.604 11.006c-1.625 0-2.863 1.514-2.588 3.102l2.275 13.137c.279 1.608 1.7 2.762 3.313 2.762h16.768a3.38 3.38 0 0 0 3.312-2.756l.001-.005 2.041-11.781a1 1 0 0 0-.809-1.153l-.006-.001a1 1 0 0 0-1.153.809l-.001.006-2.039 11.768a1.357 1.357 0 0 1-1.346 1.115H7.604c-.667 0-1.233-.463-1.344-1.102L3.985 13.77c-.074-.426.201-.762.619-.762h15.371a1 1 0 0 0 0-2z"/><path d="M11.279 2.072a1.008 1.008 0 0 0-.552.521l-.003.006-4 9a1 1 0 0 0 .502 1.317l.006.003a1 1 0 0 0 1.316-.501l.003-.006 4-9a1 1 0 0 0-.502-1.317l-.006-.003a.988.988 0 0 0-.77-.017l.007-.002zM20.695 2.072a1.011 1.011 0 0 0-.77.022l.006-.003a1.003 1.003 0 0 0-.505 1.327l-.003-.006 2.092 4.707a1.003 1.003 0 0 0 1.327.505l-.006.003a1.003 1.003 0 0 0 .505-1.327l.003.006-2.094-4.707a1.01 1.01 0 0 0-.548-.525l-.007-.002zM15.975 15.006a1 1 0 0 0-1 1v8a1 1 0 0 0 2 0v-8a1 1 0 0 0-1-1zM11.975 15.006a1 1 0 0 0-1 1v8a1 1 0 0 0 2 0v-8a1 1 0 0 0-1-1zM19.975 18.006a1 1 0 0 0-1 1v5a1 1 0 0 0 2 0v-5a1 1 0 0 0-1-1z"/><path d="M24.975 6.006c-3.302 0-6 2.698-6 6s2.698 6 6 6 6-2.698 6-6-2.698-6-6-6zm0 2c2.221 0 4 1.779 4 4s-1.779 4-4 4-4-1.779-4-4 1.779-4 4-4z"/><path d="M24.975 9.006a1 1 0 0 0-1 1v2a1 1 0 0 0 1 1h2a1 1 0 0 0 0-2h-1v-1a1 1 0 0 0-1-1z"/></symbol></defs></svg>