<svg xmlns="http://www.w3.org/2000/svg" aria-hidden="true" style="position:absolute;width:0;height:0;overflow:hidden"><defs><symbol id="icon-cart-empty" viewBox="0 0 32 32"><path d="M29.333 2c-1.29 0-2.366.915-2.613 2.132l-1.603.534H3.358C1.15 4.666-.458 6.741.117 8.875l2.599 9.31a3.353 3.353 0 0 0 3.237 2.472l16.712.008a2 2 0 1 1 0 4h-.228a4 4 0 0 0-7.542 0h-4.457a4 4 0 0 0-7.543 0H1.333a1.333 1.333 0 0 0 0 2.666h1.562a4 4 0 0 0 7.543 0h4.457a4 4 0 0 0 7.542 0h.228a4.666 4.666 0 0 0 1.572-9.062l2.25-11.251 1.075-.358a2.666 2.666 0 1 0 1.769-4.662zM6.667 27.333a1.332 1.332 0 1 1 0-2.666c.706 0 1.281.547 1.329 1.241-.002.031-.005.061-.005.093s.003.062.005.093a1.332 1.332 0 0 1-1.329 1.241zm12 0a1.332 1.332 0 1 1 0-2.666 1.332 1.332 0 1 1 0 2.666zM5.288 17.482 2.689 8.171c-.113-.421.209-.837.669-.837h20.349L21.574 18l-15.619-.008a.69.69 0 0 1-.666-.51z"/></symbol><symbol id="icon-cart-full" viewBox="0 0 32 32"><path d="M29.333 3.954c-1.29 0-2.366.915-2.613 2.132l-1.603.534H24V4.459a1.84 1.84 0 0 0-1.839-1.839h-7.708l-.374-1.26A1.837 1.837 0 0 0 11.79.123L3.973 2.509a1.838 1.838 0 0 0-1.231 2.28l.584 1.832c-2.191.02-3.781 2.085-3.209 4.208l2.599 9.31a3.353 3.353 0 0 0 3.237 2.472l16.712.008a2 2 0 1 1 0 4h-.228a4 4 0 0 0-7.542 0h-4.457a4 4 0 0 0-7.542 0H1.334a1.333 1.333 0 0 0 0 2.666h1.562a4 4 0 0 0 7.543 0h4.457a4 4 0 0 0 7.542 0h.228a4.666 4.666 0 0 0 1.572-9.062l2.25-11.251 1.075-.358a2.666 2.666 0 1 0 1.769-4.662zM6.667 29.287a1.332 1.332 0 1 1 0-2.666c.706 0 1.281.547 1.329 1.241-.002.031-.005.061-.005.093s.003.062.005.093a1.332 1.332 0 0 1-1.329 1.241zm12 0a1.332 1.332 0 1 1 0-2.666 1.332 1.332 0 1 1 0 2.666zm2.666-23.999v1.333h-5.692l-.396-1.333h6.088zM12.86 6.621H6.125l-.576-1.804 6.211-1.896 1.099 3.7zM5.288 19.436l-2.599-9.311c-.113-.421.209-.837.669-.837H23.708l-2.133 10.666-15.619-.008a.69.69 0 0 1-.666-.51z"/></symbol></defs></svg>