<svg xmlns="http://www.w3.org/2000/svg" aria-hidden="true" style="position:absolute;width:0;height:0;overflow:hidden"><defs><symbol id="icon-cart-bw-check" viewBox="0 0 32 32"><path d="M9 24.006c-1.645 0-3 1.355-3 3s1.355 3 3 3 3-1.355 3-3-1.355-3-3-3zm0 2c.564 0 1 .436 1 1s-.436 1-1 1c-.564 0-1-.436-1-1s.436-1 1-1zM23 24.006c-1.645 0-3 1.355-3 3s1.355 3 3 3 3-1.355 3-3-1.355-3-3-3zm0 2c.564 0 1 .436 1 1s-.436 1-1 1c-.564 0-1-.436-1-1s.436-1 1-1zM24 2.006c-3.302 0-6 2.698-6 6s2.698 6 6 6 6-2.698 6-6-2.698-6-6-6zm0 2c2.221 0 4 1.779 4 4s-1.779 4-4 4-4-1.779-4-4 1.779-4 4-4z"/><path d="M26.102 6.012a.998.998 0 0 0-.737.221l.002-.001-2.029 1.656-.656-.611a.997.997 0 0 0-1.412.049v.001a.997.997 0 0 0 .049 1.412l.001.001 1.293 1.209a.996.996 0 0 0 1.314.042l-.002.001 2.709-2.207a.999.999 0 0 0 .141-1.408l.001.002a1 1 0 0 0-.669-.363h-.004z"/><path d="M3.049 2a1 1 0 0 0 0 2h1.18l2.65 13.242A3.016 3.016 0 0 0 5.049 20c0 1.645 1.355 3 3 3h17a1 1 0 0 0 0-2h-17c-.571 0-1-.429-1-1s.429-1 1-1h15l.036-.007-.007.001h2.971a1 1 0 0 0 .987-.838l.001-.006.939-5.969a1 1 0 0 0-.827-1.144l-.006-.001a1 1 0 0 0-1.143.829l-.001.006-.807 5.123H8.868L7.067 8h12.084a1 1 0 0 0 0-2H6.667l-.639-3.195A1.002 1.002 0 0 0 5.048 2z"/></symbol><symbol id="icon-cart-bw-cross" viewBox="0 0 32 32"><path d="M9 24.006c-1.645 0-3 1.355-3 3s1.355 3 3 3 3-1.355 3-3-1.355-3-3-3zm0 2c.564 0 1 .436 1 1s-.436 1-1 1c-.564 0-1-.436-1-1s.436-1 1-1zM23 24.006c-1.645 0-3 1.355-3 3s1.355 3 3 3 3-1.355 3-3-1.355-3-3-3zm0 2c.564 0 1 .436 1 1s-.436 1-1 1c-.564 0-1-.436-1-1s.436-1 1-1zM24 2.006c-3.302 0-6 2.698-6 6s2.698 6 6 6 6-2.698 6-6-2.698-6-6-6zm0 2c2.221 0 4 1.779 4 4s-1.779 4-4 4-4-1.779-4-4 1.779-4 4-4z"/><path d="M22.586 5.592a.997.997 0 0 0-.707 1.707l.707.707-.707.707a.997.997 0 0 0 0 1.414.997.997 0 0 0 1.414 0L24 9.42l.707.707a.997.997 0 0 0 1.414 0 .997.997 0 0 0 0-1.414l-.707-.707.707-.707a.997.997 0 0 0 0-1.414.997.997 0 0 0-1.414 0L24 6.592l-.707-.707a.997.997 0 0 0-.707-.293z"/><path d="M3.018 2.006a1 1 0 0 0 0 2h1.18l2.65 13.242a3.016 3.016 0 0 0-1.83 2.758c0 1.645 1.355 3 3 3h17a1 1 0 0 0 0-2h-17c-.571 0-1-.429-1-1s.429-1 1-1h15l.036-.007-.007.001h2.971a1 1 0 0 0 .987-.838l.001-.006.939-5.969a1 1 0 0 0-.827-1.144l-.006-.001a1 1 0 0 0-1.143.829l-.001.006L25.161 17H8.837L7.036 8.006H19.12a1 1 0 0 0 0-2H6.636l-.639-3.195a1.002 1.002 0 0 0-.98-.805z"/></symbol><symbol id="icon-cart-bw-minus" viewBox="0 0 32 32"><path d="M9 24.006c-1.645 0-3 1.355-3 3s1.355 3 3 3 3-1.355 3-3-1.355-3-3-3zm0 2c.564 0 1 .436 1 1s-.436 1-1 1c-.564 0-1-.436-1-1s.436-1 1-1zM23 24.006c-1.645 0-3 1.355-3 3s1.355 3 3 3 3-1.355 3-3-1.355-3-3-3zm0 2c.564 0 1 .436 1 1s-.436 1-1 1c-.564 0-1-.436-1-1s.436-1 1-1zM24 2.006c-3.302 0-6 2.698-6 6s2.698 6 6 6 6-2.698 6-6-2.698-6-6-6zm0 2c2.221 0 4 1.779 4 4s-1.779 4-4 4-4-1.779-4-4 1.779-4 4-4z"/><path d="M22 7.006a1 1 0 0 0 0 2h4a1 1 0 0 0 0-2z"/><path d="M3 2.006a1 1 0 0 0 0 2h1.18l2.65 13.242A3.016 3.016 0 0 0 5 20.006c0 1.645 1.355 3 3 3h17a1 1 0 0 0 0-2H8c-.571 0-1-.429-1-1s.429-1 1-1h15l.036-.007-.007.001H26a1 1 0 0 0 .987-.838l.001-.006.939-5.969a1 1 0 0 0-.827-1.144l-.006-.001a1 1 0 0 0-1.143.829l-.001.006L25.143 17H8.819L7.018 8.006h12.084a1 1 0 0 0 0-2H6.618l-.639-3.195a1.002 1.002 0 0 0-.98-.805z"/></symbol><symbol id="icon-cart-bw-plus" viewBox="0 0 32 32"><path d="M9 24.006c-1.645 0-3 1.355-3 3s1.355 3 3 3 3-1.355 3-3-1.355-3-3-3zm0 2c.564 0 1 .436 1 1s-.436 1-1 1c-.564 0-1-.436-1-1s.436-1 1-1zM23 24.006c-1.645 0-3 1.355-3 3s1.355 3 3 3 3-1.355 3-3-1.355-3-3-3zm0 2c.564 0 1 .436 1 1s-.436 1-1 1c-.564 0-1-.436-1-1s.436-1 1-1zM3 2.006a1 1 0 0 0 0 2h1.18l2.65 13.242A3.016 3.016 0 0 0 5 20.006c0 1.645 1.355 3 3 3h17a1 1 0 0 0 0-2H8c-.571 0-1-.429-1-1s.429-1 1-1h15l.036-.007-.007.001H26a1 1 0 0 0 .987-.838l.001-.006.939-5.969a1 1 0 0 0-.827-1.144l-.006-.001a1 1 0 0 0-1.143.829l-.001.006L25.143 17H8.819L7.018 8.006h12.084a1 1 0 0 0 0-2H6.618l-.639-3.195a1.002 1.002 0 0 0-.98-.805z"/><path d="M24 2.006c-3.302 0-6 2.698-6 6s2.698 6 6 6 6-2.698 6-6-2.698-6-6-6zm0 2c2.221 0 4 1.779 4 4s-1.779 4-4 4-4-1.779-4-4 1.779-4 4-4z"/><path d="M24 5.006a1 1 0 0 0-1 1v1h-1a1 1 0 0 0 0 2h1v1a1 1 0 0 0 2 0v-1h1a1 1 0 0 0 0-2h-1v-1a1 1 0 0 0-1-1z"/></symbol><symbol id="icon-cart-bw-wait" viewBox="0 0 32 32"><path d="M9 24.006c-1.645 0-3 1.355-3 3s1.355 3 3 3 3-1.355 3-3-1.355-3-3-3zm0 2c.564 0 1 .436 1 1s-.436 1-1 1c-.564 0-1-.436-1-1s.436-1 1-1zM23 24.006c-1.645 0-3 1.355-3 3s1.355 3 3 3 3-1.355 3-3-1.355-3-3-3zm0 2c.564 0 1 .436 1 1s-.436 1-1 1c-.564 0-1-.436-1-1s.436-1 1-1zM24 2.006c-3.302 0-6 2.698-6 6s2.698 6 6 6 6-2.698 6-6-2.698-6-6-6zm0 2c2.221 0 4 1.779 4 4s-1.779 4-4 4-4-1.779-4-4 1.779-4 4-4z"/><path d="M24 5.006a1 1 0 0 0-1 1v2a1 1 0 0 0 1 1h2a1 1 0 0 0 0-2h-1v-1a1 1 0 0 0-1-1z"/><path d="M3 2.006a1 1 0 0 0 0 2h1.18l2.65 13.242A3.016 3.016 0 0 0 5 20.006c0 1.645 1.355 3 3 3h17a1 1 0 0 0 0-2H8c-.571 0-1-.429-1-1s.429-1 1-1h15l.036-.007-.007.001H26a1 1 0 0 0 .987-.838l.001-.006.939-5.969a1 1 0 0 0-.827-1.144l-.006-.001a1 1 0 0 0-1.143.829l-.001.006L25.143 17H8.819L7.018 8.006h12.084a1 1 0 0 0 0-2H6.618l-.639-3.195a1.002 1.002 0 0 0-.98-.805z"/></symbol></defs></svg>