<svg aria-hidden="true" style="position: absolute; width: 0; height: 0; overflow: hidden;" version="1.1" xmlns="http://www.w3.org/2000/svg" xmlns:xlink="http://www.w3.org/1999/xlink">
<defs>
<symbol id="icon-cart-col-cross" viewBox="0 0 32 32">
<path fill="#7d8b95" style="fill: var(--color1, #7d8b95)" d="M4.032 3.641l1.083 2.394h1.512l-1.285-2.847c-0.454-1.008-1.209-1.688-2.671-1.688h-2.293v1.26h2.243c0.957 0 1.159 0.328 1.411 0.882z"></path>
<path fill="#efdc81" style="fill: var(--color2, #efdc81)" d="M12.397 20.901h17.613c0.554 0 1.109-0.403 1.109-0.957v-12.397h-25.449l5.342 12.372c0.202 0.504 0.832 0.983 1.386 0.983z"></path>
<path fill="#f4efef" style="fill: var(--color3, #f4efef)" d="M24.693 18.683c0.353 0 0.63-0.277 0.63-0.605v-8.466c0-0.353-0.277-0.63-0.63-0.63s-0.63 0.277-0.63 0.63v8.466c0 0.328 0.277 0.605 0.63 0.605z"></path>
<path fill="#f4efef" style="fill: var(--color3, #f4efef)" d="M28.22 18.683c0.353 0 0.63-0.277 0.63-0.605v-8.466c0-0.353-0.277-0.63-0.63-0.63s-0.63 0.277-0.63 0.63v8.466c0 0.328 0.277 0.605 0.63 0.605z"></path>
<path fill="#f4efef" style="fill: var(--color3, #f4efef)" d="M21.165 18.683c0.353 0 0.63-0.277 0.63-0.605v-8.466c0-0.353-0.277-0.63-0.63-0.63s-0.63 0.277-0.63 0.63v8.466c0 0.328 0.277 0.605 0.63 0.605z"></path>
<path fill="#f4efef" style="fill: var(--color3, #f4efef)" d="M17.386 18.683c0.353 0 0.63-0.277 0.63-0.605v-8.466c0-0.353-0.277-0.63-0.63-0.63s-0.63 0.277-0.63 0.63v8.466c0 0.328 0.277 0.605 0.63 0.605z"></path>
<path fill="#f4efef" style="fill: var(--color3, #f4efef)" d="M14.11 18.683c0.353 0 0.63-0.277 0.63-0.605v-8.466c0-0.353-0.277-0.63-0.63-0.63s-0.63 0.277-0.63 0.63v8.466c0 0.328 0.277 0.605 0.63 0.605z"></path>
<path fill="#f4efef" style="fill: var(--color3, #f4efef)" d="M11.213 9.613c0-0.353-0.151-0.63-0.504-0.63s-0.504 0.277-0.504 0.63v2.746c0 0.353 0.151 0.63 0.504 0.63s0.504-0.277 0.504-0.63v-2.746z"></path>
<path fill="#7d8b95" style="fill: var(--color1, #7d8b95)" d="M10.835 24.932c-1.512 0-2.721 1.209-2.721 2.721s1.209 2.721 2.721 2.721 2.721-1.209 2.721-2.721-1.209-2.721-2.721-2.721z"></path>
<path fill="#7d8b95" style="fill: var(--color1, #7d8b95)" d="M29.027 30.375c1.512 0 2.721-1.209 2.721-2.721s-1.209-2.721-2.721-2.721-2.721 1.209-2.721 2.721 1.209 2.721 2.721 2.721z"></path>
<path fill="#2d414e" style="fill: var(--color4, #2d414e)" d="M5.115 6.287v0c-0.302 0-0.454 0.428-0.454 0.705v0.252c0 0.277 0.176 0.302 0.454 0.302h25.902c0.277 0 0.378-0.025 0.378-0.302v-0.252c0-0.277-0.101-0.705-0.378-0.705h-25.902z"></path>
<path fill="#df5c4e" style="fill: var(--color5, #df5c4e)" d="M26.885 17.928c0 3.841-3.114 6.954-6.954 6.954s-6.954-3.114-6.954-6.954c0-3.841 3.114-6.954 6.954-6.954s6.954 3.114 6.954 6.954z"></path>
<path fill="#000" style="fill: var(--color6, #000)" d="M5.367 6.337c-0.101 0-0.176-0.050-0.227-0.151l-1.083-2.419c-0.202-0.428-0.302-0.63-1.184-0.63h-2.62c-0.151 0-0.252-0.101-0.252-0.252v-1.26c0-0.151 0.101-0.252 0.252-0.252h2.671c1.436 0 2.368 0.554 2.898 1.739l1.285 2.772c0.050 0.126 0 0.277-0.126 0.328s-0.277 0-0.328-0.126l-1.285-2.772c-0.454-1.033-1.184-1.461-2.444-1.461h-2.419v0.756h2.369c1.008 0 1.31 0.277 1.638 0.932l1.083 2.419c0.050 0.126 0 0.277-0.126 0.328-0.025 0.050-0.050 0.050-0.101 0.050z"></path>
<path fill="#000" style="fill: var(--color6, #000)" d="M30.261 21.027h-3.679c-0.151 0-0.252-0.101-0.252-0.252s0.101-0.252 0.252-0.252h3.679c0.328 0 0.479-0.63 0.479-1.083v-11.893c0-0.151 0.101-0.252 0.252-0.252s0.252 0.101 0.252 0.252v11.893c0 0.781-0.302 1.587-0.983 1.587z"></path>
<path fill="#000" style="fill: var(--color6, #000)" d="M13.228 21.027h-0.58c-0.68 0-1.411-0.605-1.638-1.159l-5.291-12.22c-0.050-0.126 0-0.277 0.126-0.328s0.277 0 0.328 0.126l5.291 12.22c0.202 0.428 0.756 0.857 1.184 0.857h0.58c0.151 0 0.252 0.101 0.252 0.252s-0.101 0.252-0.252 0.252z"></path>
<path fill="#000" style="fill: var(--color6, #000)" d="M10.835 30.627c-1.638 0-2.973-1.335-2.973-2.973s1.335-2.973 2.973-2.973 2.973 1.335 2.973 2.973c0 1.638-1.335 2.973-2.973 2.973zM10.835 25.184c-1.361 0-2.469 1.109-2.469 2.469s1.109 2.469 2.469 2.469 2.469-1.109 2.469-2.469-1.109-2.469-2.469-2.469z"></path>
<path fill="#000" style="fill: var(--color6, #000)" d="M10.835 29.392c-0.957 0-1.739-0.781-1.739-1.739s0.781-1.739 1.739-1.739c0.151 0 0.252 0.101 0.252 0.252s-0.101 0.252-0.252 0.252c-0.68 0-1.235 0.554-1.235 1.235s0.554 1.235 1.235 1.235 1.235-0.554 1.235-1.235c0-0.151 0.101-0.252 0.252-0.252s0.252 0.101 0.252 0.252c0 0.957-0.781 1.739-1.739 1.739z"></path>
<path fill="#000" style="fill: var(--color6, #000)" d="M29.027 30.627c-1.638 0-2.973-1.335-2.973-2.973s1.335-2.973 2.973-2.973 2.973 1.335 2.973 2.973c0 1.638-1.335 2.973-2.973 2.973zM29.027 25.184c-1.361 0-2.469 1.109-2.469 2.469s1.109 2.469 2.469 2.469 2.469-1.109 2.469-2.469-1.109-2.469-2.469-2.469z"></path>
<path fill="#000" style="fill: var(--color6, #000)" d="M29.027 29.392c-0.957 0-1.739-0.781-1.739-1.739s0.781-1.739 1.739-1.739c0.151 0 0.252 0.101 0.252 0.252s-0.101 0.252-0.252 0.252c-0.68 0-1.235 0.554-1.235 1.235s0.554 1.235 1.235 1.235c0.68 0 1.235-0.554 1.235-1.235 0-0.151 0.101-0.252 0.252-0.252s0.252 0.101 0.252 0.252c-0.025 0.957-0.781 1.739-1.739 1.739z"></path>
<path fill="#000" style="fill: var(--color6, #000)" d="M26.331 28.586h-12.85c-0.151 0-0.252-0.101-0.252-0.252s0.101-0.252 0.252-0.252h12.85c0.151 0 0.252 0.101 0.252 0.252s-0.101 0.252-0.252 0.252z"></path>
<path fill="#000" style="fill: var(--color6, #000)" d="M26.331 27.326h-12.85c-0.151 0-0.252-0.101-0.252-0.252s0.101-0.252 0.252-0.252h12.85c0.151 0 0.252 0.101 0.252 0.252s-0.101 0.252-0.252 0.252z"></path>
<path fill="#000" style="fill: var(--color6, #000)" d="M11.389 25.134c-0.025 0-0.076 0-0.101-0.025-0.126-0.050-0.176-0.202-0.126-0.328l1.915-4.435c0.050-0.126 0.202-0.176 0.328-0.126s0.176 0.202 0.126 0.328l-1.915 4.435c-0.050 0.101-0.126 0.151-0.227 0.151z"></path>
<path fill="#000" style="fill: var(--color6, #000)" d="M12.523 25.663c-0.025 0-0.076 0-0.101-0.025-0.126-0.050-0.176-0.202-0.126-0.328l1.562-3.654c0.050-0.126 0.202-0.176 0.328-0.126s0.176 0.202 0.126 0.328l-1.562 3.654c-0.050 0.076-0.126 0.151-0.227 0.151z"></path>
<path fill="#000" style="fill: var(--color6, #000)" d="M30.992 7.672h-25.953c-0.403 0-0.756-0.328-0.756-0.756v-0.252c0-0.403 0.328-0.756 0.756-0.756h25.953c0.403 0 0.756 0.328 0.756 0.756v0.252c0 0.428-0.328 0.756-0.756 0.756zM5.039 6.413c-0.126 0-0.252 0.101-0.252 0.252v0.252c0 0.126 0.101 0.252 0.252 0.252h25.953c0.126 0 0.252-0.101 0.252-0.252v-0.252c0-0.126-0.101-0.252-0.252-0.252h-25.953z"></path>
<path fill="#000" style="fill: var(--color6, #000)" d="M19.931 25.159c-3.981 0-7.206-3.225-7.206-7.206s3.225-7.206 7.206-7.206 7.206 3.225 7.206 7.206-3.225 7.206-7.206 7.206zM19.931 11.225c-3.704 0-6.702 2.998-6.702 6.702s2.998 6.702 6.702 6.702c3.704 0 6.702-2.998 6.702-6.702 0-3.679-2.998-6.702-6.702-6.702z"></path>
<path fill="#000" style="fill: var(--color6, #000)" d="M22.35 20.75c-0.076 0-0.126-0.025-0.176-0.076l-4.737-4.737c-0.101-0.101-0.101-0.252 0-0.353s0.252-0.101 0.353 0l4.737 4.737c0.101 0.101 0.101 0.252 0 0.353-0.050 0.050-0.126 0.076-0.176 0.076z"></path>
<path fill="#000" style="fill: var(--color6, #000)" d="M17.613 20.75c-0.076 0-0.126-0.025-0.176-0.076-0.101-0.101-0.101-0.252 0-0.353l4.737-4.737c0.101-0.101 0.252-0.101 0.353 0s0.101 0.252 0 0.353l-4.737 4.737c-0.050 0.050-0.126 0.076-0.176 0.076z"></path>
<path fill="#000" style="fill: var(--color6, #000)" d="M16.63 11.83c-0.151 0-0.252-0.101-0.252-0.252v-1.991c0-0.479 0.403-0.882 0.882-0.882s0.882 0.378 0.882 0.882v1.487c0 0.151-0.101 0.252-0.252 0.252s-0.252-0.101-0.252-0.252v-1.487c0-0.202-0.176-0.378-0.378-0.378s-0.378 0.176-0.378 0.378v1.991c0 0.151-0.101 0.252-0.252 0.252z"></path>
<path fill="#000" style="fill: var(--color6, #000)" d="M13.354 15.609c-0.151 0-0.252-0.101-0.252-0.252v-5.77c0-0.479 0.403-0.882 0.882-0.882s0.882 0.378 0.882 0.882v3.754c0 0.151-0.101 0.252-0.252 0.252s-0.252-0.101-0.252-0.252v-3.754c0-0.202-0.176-0.378-0.378-0.378s-0.378 0.176-0.378 0.378v5.77c0 0.151-0.101 0.252-0.252 0.252z"></path>
<path fill="#000" style="fill: var(--color6, #000)" d="M10.709 13.392c-0.479 0-0.882-0.378-0.882-0.882v-2.923c0-0.479 0.403-0.882 0.882-0.882s0.882 0.378 0.882 0.882v2.923c0 0.504-0.403 0.882-0.882 0.882zM10.709 9.235c-0.202 0-0.378 0.176-0.378 0.378v2.923c0 0.202 0.176 0.378 0.378 0.378s0.378-0.176 0.378-0.378v-2.923c0-0.202-0.176-0.378-0.378-0.378z"></path>
<path fill="#000" style="fill: var(--color6, #000)" d="M21.669 11.326c-0.151 0-0.252-0.101-0.252-0.252v-1.487c0-0.202-0.176-0.378-0.378-0.378s-0.378 0.176-0.378 0.378v1.235c0 0.151-0.101 0.252-0.252 0.252s-0.252-0.101-0.252-0.252v-1.235c0-0.479 0.403-0.882 0.882-0.882s0.882 0.378 0.882 0.882v1.487c0 0.151-0.101 0.252-0.252 0.252z"></path>
<path fill="#000" style="fill: var(--color6, #000)" d="M25.197 13.594c-0.151 0-0.252-0.101-0.252-0.252v-3.754c0-0.202-0.176-0.378-0.378-0.378s-0.378 0.176-0.378 0.378v2.495c0 0.151-0.101 0.252-0.252 0.252s-0.252-0.101-0.252-0.252v-2.495c0-0.479 0.403-0.882 0.882-0.882s0.882 0.378 0.882 0.882v3.754c0 0.151-0.101 0.252-0.252 0.252z"></path>
<path fill="#000" style="fill: var(--color6, #000)" d="M28.095 18.935c-0.479 0-0.882-0.378-0.882-0.882v-8.466c0-0.479 0.403-0.882 0.882-0.882s0.882 0.378 0.882 0.882v8.466c0 0.504-0.403 0.882-0.882 0.882zM28.095 9.235c-0.202 0-0.378 0.176-0.378 0.378v8.466c0 0.202 0.176 0.378 0.378 0.378s0.378-0.176 0.378-0.378v-8.466c0-0.202-0.176-0.378-0.378-0.378z"></path>
</symbol>
<symbol id="icon-cart-col-del" viewBox="0 0 32 32">
<path fill="#7d8b95" style="fill: var(--color1, #7d8b95)" d="M4.032 3.641l1.083 2.394h1.512l-1.285-2.847c-0.454-1.008-1.209-1.688-2.671-1.688h-2.293v1.26h2.243c0.957 0 1.159 0.328 1.411 0.882z"></path>
<path fill="#efdc81" style="fill: var(--color2, #efdc81)" d="M12.397 20.649h17.613c0.554 0 1.109-0.403 1.109-0.957v-12.397h-25.449l5.342 12.372c0.202 0.504 0.832 0.983 1.386 0.983z"></path>
<path fill="#f4efef" style="fill: var(--color3, #f4efef)" d="M24.693 18.709c0.353 0 0.63-0.277 0.63-0.605v-8.466c0-0.353-0.277-0.63-0.63-0.63s-0.63 0.277-0.63 0.63v8.466c0 0.328 0.277 0.605 0.63 0.605z"></path>
<path fill="#f4efef" style="fill: var(--color3, #f4efef)" d="M28.22 18.709c0.353 0 0.63-0.277 0.63-0.605v-8.466c0-0.353-0.277-0.63-0.63-0.63s-0.63 0.277-0.63 0.63v8.466c0 0.328 0.277 0.605 0.63 0.605z"></path>
<path fill="#f4efef" style="fill: var(--color3, #f4efef)" d="M21.165 18.709c0.353 0 0.63-0.277 0.63-0.605v-8.466c0-0.353-0.277-0.63-0.63-0.63s-0.63 0.277-0.63 0.63v8.466c0 0.328 0.277 0.605 0.63 0.605z"></path>
<path fill="#f4efef" style="fill: var(--color3, #f4efef)" d="M17.386 18.709c0.353 0 0.63-0.277 0.63-0.605v-8.466c0-0.353-0.277-0.63-0.63-0.63s-0.63 0.277-0.63 0.63v8.466c0 0.328 0.277 0.605 0.63 0.605z"></path>
<path fill="#f4efef" style="fill: var(--color3, #f4efef)" d="M14.11 18.709c0.353 0 0.63-0.277 0.63-0.605v-8.466c0-0.353-0.277-0.63-0.63-0.63s-0.63 0.277-0.63 0.63v8.466c0 0.328 0.277 0.605 0.63 0.605z"></path>
<path fill="#f4efef" style="fill: var(--color3, #f4efef)" d="M11.213 9.613c0-0.353-0.151-0.63-0.504-0.63s-0.504 0.277-0.504 0.63v2.746c0 0.353 0.151 0.63 0.504 0.63s0.504-0.277 0.504-0.63v-2.746z"></path>
<path fill="#7d8b95" style="fill: var(--color1, #7d8b95)" d="M10.835 24.932c-1.512 0-2.721 1.209-2.721 2.721s1.209 2.721 2.721 2.721 2.721-1.209 2.721-2.721c0-1.487-1.209-2.721-2.721-2.721z"></path>
<path fill="#7d8b95" style="fill: var(--color1, #7d8b95)" d="M29.027 30.4c1.512 0 2.721-1.209 2.721-2.721s-1.209-2.721-2.721-2.721-2.721 1.209-2.721 2.721c0 1.487 1.209 2.721 2.721 2.721z"></path>
<path fill="#2d414e" style="fill: var(--color4, #2d414e)" d="M5.115 6.035v0c-0.302 0-0.454 0.454-0.454 0.731v0.252c0 0.277 0.176 0.302 0.454 0.302h25.902c0.277 0 0.378-0.025 0.378-0.302v-0.252c0-0.277-0.101-0.731-0.378-0.731h-25.676c-0.025 0-0.227 0-0.227 0z"></path>
<path fill="#df5c4e" style="fill: var(--color5, #df5c4e)" d="M26.885 17.928c0 3.841-3.114 6.954-6.954 6.954s-6.954-3.114-6.954-6.954c0-3.841 3.114-6.954 6.954-6.954s6.954 3.114 6.954 6.954z"></path>
<path fill="#000" style="fill: var(--color6, #000)" d="M16.63 11.83c-0.151 0-0.252-0.101-0.252-0.252v-1.991c0-0.479 0.403-0.882 0.882-0.882s0.882 0.378 0.882 0.882v1.487c0 0.151-0.101 0.252-0.252 0.252s-0.252-0.101-0.252-0.252v-1.487c0-0.202-0.176-0.378-0.378-0.378s-0.378 0.176-0.378 0.378v1.991c0 0.151-0.101 0.252-0.252 0.252z"></path>
<path fill="#000" style="fill: var(--color6, #000)" d="M13.354 15.609c-0.151 0-0.252-0.101-0.252-0.252v-5.77c0-0.479 0.403-0.882 0.882-0.882s0.882 0.378 0.882 0.882v3.754c0 0.151-0.101 0.252-0.252 0.252s-0.252-0.101-0.252-0.252v-3.754c0-0.202-0.176-0.378-0.378-0.378s-0.378 0.176-0.378 0.378v5.77c0 0.151-0.101 0.252-0.252 0.252z"></path>
<path fill="#000" style="fill: var(--color6, #000)" d="M10.709 13.392c-0.479 0-0.882-0.378-0.882-0.882v-2.923c0-0.479 0.403-0.882 0.882-0.882s0.882 0.378 0.882 0.882v2.923c0 0.504-0.403 0.882-0.882 0.882zM10.709 9.235c-0.202 0-0.378 0.176-0.378 0.378v2.923c0 0.202 0.176 0.378 0.378 0.378s0.378-0.176 0.378-0.378v-2.923c0-0.227-0.176-0.378-0.378-0.378z"></path>
<path fill="#000" style="fill: var(--color6, #000)" d="M21.669 11.326c-0.151 0-0.252-0.101-0.252-0.252v-1.487c0-0.202-0.176-0.378-0.378-0.378s-0.378 0.176-0.378 0.378v1.235c0 0.151-0.101 0.252-0.252 0.252s-0.252-0.101-0.252-0.252v-1.235c0-0.479 0.403-0.882 0.882-0.882s0.882 0.378 0.882 0.882v1.487c0 0.151-0.101 0.252-0.252 0.252z"></path>
<path fill="#000" style="fill: var(--color6, #000)" d="M25.197 13.594c-0.151 0-0.252-0.101-0.252-0.252v-3.754c0-0.202-0.176-0.378-0.378-0.378s-0.378 0.176-0.378 0.378v2.495c0 0.151-0.101 0.252-0.252 0.252s-0.252-0.101-0.252-0.252v-2.495c0-0.479 0.403-0.882 0.882-0.882s0.882 0.378 0.882 0.882v3.754c0 0.151-0.101 0.252-0.252 0.252z"></path>
<path fill="#000" style="fill: var(--color6, #000)" d="M28.095 18.935c-0.479 0-0.882-0.378-0.882-0.882v-8.466c0-0.479 0.403-0.882 0.882-0.882s0.882 0.378 0.882 0.882v8.466c0 0.504-0.403 0.882-0.882 0.882zM28.095 9.235c-0.202 0-0.378 0.176-0.378 0.378v8.466c0 0.202 0.176 0.378 0.378 0.378s0.378-0.176 0.378-0.378v-8.466c0-0.227-0.176-0.378-0.378-0.378z"></path>
<path fill="#000" style="fill: var(--color6, #000)" d="M5.367 6.337c-0.101 0-0.176-0.050-0.227-0.151l-1.083-2.419c-0.202-0.428-0.302-0.655-1.184-0.655h-2.62c-0.151 0-0.252-0.101-0.252-0.252v-1.26c0-0.151 0.101-0.252 0.252-0.252h2.671c1.436 0 2.368 0.554 2.898 1.764l1.285 2.772c0.050 0.126 0 0.277-0.126 0.328s-0.277 0-0.328-0.126l-1.285-2.772c-0.454-1.033-1.184-1.461-2.444-1.461h-2.419v0.756h2.369c1.008 0 1.31 0.277 1.638 0.932l1.083 2.419c0.050 0.126 0 0.277-0.126 0.328-0.025 0.050-0.050 0.050-0.101 0.050z"></path>
<path fill="#000" style="fill: var(--color6, #000)" d="M30.261 21.027h-3.679c-0.151 0-0.252-0.101-0.252-0.252s0.101-0.252 0.252-0.252h3.679c0.328 0 0.479-0.63 0.479-1.083v-11.893c0-0.151 0.101-0.252 0.252-0.252s0.252 0.101 0.252 0.252v11.893c0 0.806-0.302 1.587-0.983 1.587z"></path>
<path fill="#000" style="fill: var(--color6, #000)" d="M13.228 21.027h-0.58c-0.68 0-1.411-0.605-1.638-1.159l-5.317-12.271c-0.050-0.126 0-0.277 0.126-0.328s0.277 0 0.328 0.126l5.317 12.271c0.176 0.428 0.756 0.831 1.184 0.831h0.58c0.151 0 0.252 0.101 0.252 0.252s-0.101 0.277-0.252 0.277z"></path>
<path fill="#000" style="fill: var(--color6, #000)" d="M10.835 30.652c-1.638 0-2.973-1.335-2.973-2.973s1.335-2.973 2.973-2.973 2.973 1.335 2.973 2.973c0 1.638-1.335 2.973-2.973 2.973zM10.835 25.184c-1.361 0-2.469 1.109-2.469 2.469s1.109 2.469 2.469 2.469 2.469-1.109 2.469-2.469-1.109-2.469-2.469-2.469z"></path>
<path fill="#000" style="fill: var(--color6, #000)" d="M10.835 29.392c-0.957 0-1.739-0.781-1.739-1.739s0.781-1.739 1.739-1.739c0.151 0 0.252 0.101 0.252 0.252s-0.101 0.252-0.252 0.252c-0.68 0-1.235 0.554-1.235 1.235s0.554 1.235 1.235 1.235 1.235-0.554 1.235-1.235c0-0.151 0.101-0.252 0.252-0.252s0.252 0.101 0.252 0.252c0 0.957-0.781 1.739-1.739 1.739z"></path>
<path fill="#000" style="fill: var(--color6, #000)" d="M29.027 30.652c-1.638 0-2.973-1.335-2.973-2.973s1.335-2.973 2.973-2.973 2.973 1.335 2.973 2.973c0 1.638-1.335 2.973-2.973 2.973zM29.027 25.184c-1.361 0-2.469 1.109-2.469 2.469s1.109 2.469 2.469 2.469 2.469-1.109 2.469-2.469-1.109-2.469-2.469-2.469z"></path>
<path fill="#000" style="fill: var(--color6, #000)" d="M29.027 29.392c-0.957 0-1.739-0.781-1.739-1.739s0.781-1.739 1.739-1.739c0.151 0 0.252 0.101 0.252 0.252s-0.101 0.252-0.252 0.252c-0.68 0-1.235 0.554-1.235 1.235s0.554 1.235 1.235 1.235c0.68 0 1.235-0.554 1.235-1.235 0-0.151 0.101-0.252 0.252-0.252s0.252 0.101 0.252 0.252c-0.025 0.957-0.781 1.739-1.739 1.739z"></path>
<path fill="#000" style="fill: var(--color6, #000)" d="M26.331 28.586h-12.85c-0.151 0-0.252-0.101-0.252-0.252s0.101-0.252 0.252-0.252h12.85c0.151 0 0.252 0.101 0.252 0.252s-0.101 0.252-0.252 0.252z"></path>
<path fill="#000" style="fill: var(--color6, #000)" d="M26.331 27.326h-12.85c-0.151 0-0.252-0.101-0.252-0.252s0.101-0.252 0.252-0.252h12.85c0.151 0 0.252 0.101 0.252 0.252s-0.101 0.252-0.252 0.252z"></path>
<path fill="#000" style="fill: var(--color6, #000)" d="M11.389 25.134c-0.025 0-0.076 0-0.101-0.025-0.126-0.050-0.176-0.202-0.126-0.328l1.915-4.435c0.050-0.126 0.202-0.176 0.328-0.126s0.176 0.202 0.126 0.328l-1.915 4.435c-0.050 0.101-0.126 0.151-0.227 0.151z"></path>
<path fill="#000" style="fill: var(--color6, #000)" d="M12.523 25.663c-0.025 0-0.076 0-0.101-0.025-0.126-0.050-0.176-0.202-0.126-0.328l1.562-3.654c0.050-0.126 0.202-0.176 0.328-0.126s0.176 0.202 0.126 0.328l-1.562 3.654c-0.050 0.101-0.126 0.151-0.227 0.151z"></path>
<path fill="#000" style="fill: var(--color6, #000)" d="M30.992 7.672h-25.953c-0.403 0-0.756-0.328-0.756-0.756v-0.252c0-0.403 0.328-0.756 0.756-0.756h25.953c0.403 0 0.756 0.328 0.756 0.756v0.252c0 0.428-0.328 0.756-0.756 0.756zM5.039 6.413c-0.126 0-0.252 0.101-0.252 0.252v0.252c0 0.126 0.101 0.252 0.252 0.252h25.953c0.126 0 0.252-0.101 0.252-0.252v-0.252c0-0.126-0.101-0.252-0.252-0.252h-25.953z"></path>
<path fill="#000" style="fill: var(--color6, #000)" d="M19.905 25.159c-3.981 0-7.206-3.225-7.206-7.206s3.225-7.206 7.206-7.206 7.206 3.225 7.206 7.206-3.225 7.206-7.206 7.206zM19.905 11.25c-3.704 0-6.702 2.998-6.702 6.702s2.998 6.702 6.702 6.702c3.704 0 6.702-2.998 6.702-6.702s-2.998-6.702-6.702-6.702z"></path>
<path fill="#000" style="fill: var(--color6, #000)" d="M23.559 18.003h-7.307c-0.151 0-0.252-0.101-0.252-0.252s0.101-0.252 0.252-0.252h7.307c0.151 0 0.252 0.101 0.252 0.252s-0.101 0.252-0.252 0.252z"></path>
</symbol>
<symbol id="icon-cart-col-full" viewBox="0 0 32 32">
<path fill="#f4aea8" style="fill: var(--color7, #f4aea8)" d="M26.079 1.587c0-0.554-0.504-0.907-1.033-0.907h-12.951c-0.554 0-1.134 0.353-1.134 0.907v1.109h9.6c0.554 0 0.983 0.328 0.983 0.882v3.402h4.535v-5.392z"></path>
<path fill="#54b265" style="fill: var(--color8, #54b265)" d="M30.362 4.586c0-0.554-0.554-0.882-1.083-0.882h-3.2v3.276h4.283v-2.394z"></path>
<path fill="#73badd" style="fill: var(--color9, #73badd)" d="M20.561 2.696h-10.457c-0.554 0-0.907 0.328-0.907 0.882v3.402h12.346v-3.402c0-0.554-0.428-0.882-0.983-0.882z"></path>
<path fill="#7d8b95" style="fill: var(--color1, #7d8b95)" d="M4.032 4.586l1.083 2.394h1.512l-1.285-2.847c-0.454-1.008-1.209-1.688-2.671-1.688h-2.293v1.26h2.243c0.957 0 1.159 0.328 1.411 0.882z"></path>
<path fill="#efdc81" style="fill: var(--color2, #efdc81)" d="M12.397 21.846h17.613c0.554 0 1.109-0.529 1.109-1.083v-12.271h-25.449l5.342 12.372c0.202 0.504 0.832 0.983 1.386 0.983z"></path>
<path fill="#f4efef" style="fill: var(--color3, #f4efef)" d="M24.693 19.502c0.353 0 0.63-0.277 0.63-0.605v-8.466c0-0.353-0.277-0.63-0.63-0.63s-0.63 0.277-0.63 0.63v8.466c0 0.328 0.277 0.605 0.63 0.605z"></path>
<path fill="#f4efef" style="fill: var(--color3, #f4efef)" d="M28.22 19.502c0.353 0 0.63-0.277 0.63-0.605v-8.466c0-0.353-0.277-0.63-0.63-0.63s-0.63 0.277-0.63 0.63v8.466c0 0.328 0.277 0.605 0.63 0.605z"></path>
<path fill="#f4efef" style="fill: var(--color3, #f4efef)" d="M21.165 19.502c0.353 0 0.63-0.277 0.63-0.605v-8.466c0-0.353-0.277-0.63-0.63-0.63s-0.63 0.277-0.63 0.63v8.466c0 0.328 0.277 0.605 0.63 0.605z"></path>
<path fill="#f4efef" style="fill: var(--color3, #f4efef)" d="M17.386 19.502c0.353 0 0.63-0.277 0.63-0.605v-8.466c0-0.353-0.277-0.63-0.63-0.63s-0.63 0.277-0.63 0.63v8.466c0 0.328 0.277 0.605 0.63 0.605z"></path>
<path fill="#f4efef" style="fill: var(--color3, #f4efef)" d="M14.11 19.502c0.353 0 0.63-0.277 0.63-0.605v-8.466c0-0.353-0.277-0.63-0.63-0.63s-0.63 0.277-0.63 0.63v8.466c0 0.328 0.277 0.605 0.63 0.605z"></path>
<path fill="#f4efef" style="fill: var(--color3, #f4efef)" d="M11.213 10.406c0-0.353-0.151-0.63-0.504-0.63s-0.504 0.277-0.504 0.63v2.746c0 0.353 0.151 0.605 0.504 0.605s0.504-0.277 0.504-0.605v-2.746z"></path>
<path fill="#7d8b95" style="fill: var(--color1, #7d8b95)" d="M10.835 25.751c-1.512 0-2.721 1.209-2.721 2.721s1.209 2.721 2.721 2.721 2.721-1.209 2.721-2.721-1.209-2.721-2.721-2.721z"></path>
<path fill="#7d8b95" style="fill: var(--color1, #7d8b95)" d="M29.027 31.194c1.512 0 2.721-1.209 2.721-2.721s-1.209-2.721-2.721-2.721-2.721 1.209-2.721 2.721c0 1.512 1.209 2.721 2.721 2.721z"></path>
<path fill="#2d414e" style="fill: var(--color4, #2d414e)" d="M5.115 6.98v0c-0.302 0-0.454 0.302-0.454 0.58v0.252c0 0.277 0.176 0.428 0.454 0.428h25.902c0.277 0 0.378-0.151 0.378-0.428v-0.252c0-0.277-0.101-0.58-0.378-0.58h-25.902z"></path>
<path fill="#000" style="fill: var(--color6, #000)" d="M17.26 19.754c-0.479 0-0.882-0.378-0.882-0.882v-8.466c0-0.479 0.403-0.882 0.882-0.882s0.882 0.378 0.882 0.882v8.466c0 0.504-0.403 0.882-0.882 0.882zM17.26 10.054c-0.202 0-0.378 0.176-0.378 0.378v8.466c0 0.202 0.176 0.378 0.378 0.378s0.378-0.176 0.378-0.378v-8.466c0-0.202-0.176-0.378-0.378-0.378z"></path>
<path fill="#000" style="fill: var(--color6, #000)" d="M13.984 19.754c-0.479 0-0.882-0.378-0.882-0.882v-8.466c0-0.479 0.403-0.882 0.882-0.882s0.882 0.378 0.882 0.882v8.466c0 0.504-0.403 0.882-0.882 0.882zM13.984 10.054c-0.202 0-0.378 0.176-0.378 0.378v8.466c0 0.202 0.176 0.378 0.378 0.378s0.378-0.176 0.378-0.378v-8.466c0-0.202-0.176-0.378-0.378-0.378z"></path>
<path fill="#000" style="fill: var(--color6, #000)" d="M10.709 14.211c-0.479 0-0.882-0.378-0.882-0.882v-2.923c0-0.479 0.403-0.882 0.882-0.882s0.882 0.378 0.882 0.882v2.923c0 0.504-0.403 0.882-0.882 0.882zM10.709 10.054c-0.202 0-0.378 0.176-0.378 0.378v2.923c0 0.202 0.176 0.378 0.378 0.378s0.378-0.176 0.378-0.378v-2.923c0-0.202-0.176-0.378-0.378-0.378z"></path>
<path fill="#000" style="fill: var(--color6, #000)" d="M21.039 19.754c-0.479 0-0.882-0.378-0.882-0.882v-8.466c0-0.479 0.403-0.882 0.882-0.882s0.882 0.378 0.882 0.882v8.466c0 0.504-0.403 0.882-0.882 0.882zM21.039 10.054c-0.202 0-0.378 0.176-0.378 0.378v8.466c0 0.202 0.176 0.378 0.378 0.378s0.378-0.176 0.378-0.378v-8.466c0-0.202-0.176-0.378-0.378-0.378z"></path>
<path fill="#000" style="fill: var(--color6, #000)" d="M24.567 19.754c-0.479 0-0.882-0.378-0.882-0.882v-8.466c0-0.479 0.403-0.882 0.882-0.882s0.882 0.378 0.882 0.882v8.466c0 0.504-0.403 0.882-0.882 0.882zM24.567 10.054c-0.202 0-0.378 0.176-0.378 0.378v8.466c0 0.202 0.176 0.378 0.378 0.378s0.378-0.176 0.378-0.378v-8.466c0-0.202-0.176-0.378-0.378-0.378z"></path>
<path fill="#000" style="fill: var(--color6, #000)" d="M28.095 19.754c-0.479 0-0.882-0.378-0.882-0.882v-8.466c0-0.479 0.403-0.882 0.882-0.882s0.882 0.378 0.882 0.882v8.466c0 0.504-0.403 0.882-0.882 0.882zM28.095 10.054c-0.202 0-0.378 0.176-0.378 0.378v8.466c0 0.202 0.176 0.378 0.378 0.378s0.378-0.176 0.378-0.378v-8.466c0-0.202-0.176-0.378-0.378-0.378z"></path>
<path fill="#000" style="fill: var(--color6, #000)" d="M5.367 7.181c-0.101 0-0.176-0.050-0.227-0.151l-1.083-2.394c-0.202-0.428-0.277-0.58-1.184-0.58h-2.62c-0.151 0-0.252-0.101-0.252-0.252v-1.26c0-0.151 0.101-0.252 0.252-0.252h2.671c1.487 0 2.368 0.529 2.898 1.688l1.285 2.696c0.050 0.126 0 0.277-0.126 0.328s-0.277 0-0.328-0.126l-1.285-2.696c-0.428-0.983-1.159-1.386-2.444-1.386h-2.419v0.756h2.369c1.033 0 1.31 0.227 1.638 0.857l1.083 2.394c0.050 0.126 0 0.277-0.126 0.328-0.025 0.050-0.050 0.050-0.101 0.050z"></path>
<path fill="#000" style="fill: var(--color6, #000)" d="M30.261 21.972h-17.613c-0.706 0-1.461-0.756-1.688-1.285l-5.191-12.044c-0.050-0.126 0-0.277 0.126-0.328s0.277 0 0.328 0.126l5.191 12.044c0.176 0.428 0.806 0.983 1.235 0.983h17.613c0.277 0 0.479-0.63 0.479-1.209v-11.767c0-0.151 0.101-0.252 0.252-0.252s0.252 0.101 0.252 0.252v11.767c0 0.605-0.202 1.713-0.983 1.713z"></path>
<path fill="#000" style="fill: var(--color6, #000)" d="M10.835 31.446c-1.638 0-2.973-1.335-2.973-2.973s1.335-2.973 2.973-2.973 2.973 1.335 2.973 2.973c0 1.638-1.335 2.973-2.973 2.973zM10.835 26.003c-1.361 0-2.469 1.109-2.469 2.469s1.109 2.469 2.469 2.469 2.469-1.109 2.469-2.469-1.109-2.469-2.469-2.469z"></path>
<path fill="#000" style="fill: var(--color6, #000)" d="M10.835 30.211c-0.957 0-1.739-0.781-1.739-1.739s0.781-1.739 1.739-1.739c0.151 0 0.252 0.101 0.252 0.252s-0.101 0.252-0.252 0.252c-0.68 0-1.235 0.554-1.235 1.235s0.554 1.235 1.235 1.235 1.235-0.554 1.235-1.235c0-0.151 0.101-0.252 0.252-0.252s0.252 0.101 0.252 0.252c0 0.957-0.781 1.739-1.739 1.739z"></path>
<path fill="#000" style="fill: var(--color6, #000)" d="M29.027 31.446c-1.638 0-2.973-1.335-2.973-2.973s1.335-2.973 2.973-2.973 2.973 1.335 2.973 2.973c0 1.638-1.335 2.973-2.973 2.973zM29.027 26.003c-1.361 0-2.469 1.109-2.469 2.469s1.109 2.469 2.469 2.469 2.469-1.109 2.469-2.469-1.109-2.469-2.469-2.469z"></path>
<path fill="#000" style="fill: var(--color6, #000)" d="M29.027 30.211c-0.957 0-1.739-0.781-1.739-1.739s0.781-1.739 1.739-1.739c0.151 0 0.252 0.101 0.252 0.252s-0.101 0.252-0.252 0.252c-0.68 0-1.235 0.554-1.235 1.235s0.554 1.235 1.235 1.235c0.68 0 1.235-0.554 1.235-1.235 0-0.151 0.101-0.252 0.252-0.252s0.252 0.101 0.252 0.252c-0.025 0.957-0.781 1.739-1.739 1.739z"></path>
<path fill="#000" style="fill: var(--color6, #000)" d="M26.331 29.531h-12.85c-0.151 0-0.252-0.101-0.252-0.252s0.101-0.252 0.252-0.252h12.85c0.151 0 0.252 0.101 0.252 0.252s-0.101 0.252-0.252 0.252z"></path>
<path fill="#000" style="fill: var(--color6, #000)" d="M26.331 28.271h-12.598c-0.151 0-0.252-0.101-0.252-0.252s0.101-0.252 0.252-0.252h12.598c0.151 0 0.252 0.101 0.252 0.252s-0.101 0.252-0.252 0.252z"></path>
<path fill="#000" style="fill: var(--color6, #000)" d="M12.523 26.482c-0.025 0-0.076 0-0.101-0.025-0.126-0.050-0.176-0.202-0.126-0.328l1.94-4.485c0.050-0.126 0.202-0.176 0.328-0.126s0.176 0.202 0.126 0.328l-1.94 4.485c-0.050 0.076-0.126 0.151-0.227 0.151z"></path>
<path fill="#000" style="fill: var(--color6, #000)" d="M11.389 25.953c-0.025 0-0.076 0-0.101-0.025-0.126-0.050-0.176-0.202-0.126-0.328l1.713-3.981c0.050-0.126 0.202-0.176 0.328-0.126s0.176 0.202 0.126 0.328l-1.713 3.981c-0.050 0.101-0.126 0.151-0.227 0.151z"></path>
<path fill="#000" style="fill: var(--color6, #000)" d="M30.992 8.617h-25.953c-0.403 0-0.756-0.328-0.756-0.756v-0.252c0-0.403 0.328-0.756 0.756-0.756h25.953c0.403 0 0.756 0.328 0.756 0.756v0.252c0 0.428-0.328 0.756-0.756 0.756zM5.039 7.357c-0.126 0-0.252 0.101-0.252 0.252v0.252c0 0.126 0.101 0.252 0.252 0.252h25.953c0.126 0 0.252-0.101 0.252-0.252v-0.252c0-0.126-0.101-0.252-0.252-0.252h-25.953z"></path>
<path fill="#000" style="fill: var(--color6, #000)" d="M25.953 6.98c-0.151 0-0.252-0.101-0.252-0.252v-5.392c0-0.101-0.025-0.176-0.050-0.202-0.076-0.076-0.328-0.076-0.554-0.076h-13.052c-0.328 0-0.756 0-0.907 0.151-0.025 0.025-0.050 0.050-0.050 0.126v1.109c0 0.151-0.101 0.252-0.252 0.252s-0.252-0.101-0.252-0.252v-1.109c0-0.202 0.076-0.378 0.202-0.504 0.277-0.277 0.806-0.277 1.26-0.277h13.052c0.378 0 0.706 0 0.932 0.227 0.126 0.126 0.202 0.328 0.202 0.554v5.392c-0.025 0.151-0.126 0.252-0.277 0.252z"></path>
<path fill="#000" style="fill: var(--color6, #000)" d="M30.236 6.98c-0.151 0-0.252-0.101-0.252-0.252v-2.394c0-0.101-0.025-0.151-0.050-0.176-0.076-0.076-0.328-0.076-0.529-0.050h-3.074c-0.151 0-0.252-0.101-0.252-0.252s0.101-0.252 0.252-0.252h3.074c0.353 0 0.68 0 0.907 0.202 0.126 0.126 0.202 0.302 0.202 0.529v2.394c-0.025 0.151-0.126 0.252-0.277 0.252z"></path>
<path fill="#000" style="fill: var(--color6, #000)" d="M21.417 6.98c-0.151 0-0.252-0.101-0.252-0.252v-3.402c0-0.151-0.025-0.202-0.050-0.202-0.050-0.050-0.277-0.050-0.454-0.050h-10.683c-0.252 0-0.529 0-0.63 0.076-0.025 0.025-0.050 0.076-0.050 0.176v3.402c0 0.151-0.101 0.252-0.252 0.252s-0.252-0.101-0.252-0.252v-3.402c0-0.227 0.076-0.403 0.202-0.529 0.227-0.227 0.605-0.227 0.983-0.227h10.658c0.328 0 0.63 0 0.806 0.202 0.176 0.176 0.176 0.403 0.176 0.554v3.402c0.050 0.151-0.050 0.252-0.202 0.252z"></path>
</symbol>
<symbol id="icon-cart-col-large" viewBox="0 0 32 32">
<path fill="#7d8b95" style="fill: var(--color1, #7d8b95)" d="M4.032 3.641l1.083 2.394h1.512l-1.285-2.847c-0.454-1.008-1.209-1.688-2.671-1.688h-2.293v1.26h2.243c0.957 0 1.159 0.328 1.411 0.882z"></path>
<path fill="#efdc81" style="fill: var(--color2, #efdc81)" d="M12.397 20.649h17.613c0.554 0 1.109-0.403 1.109-0.957v-12.397h-25.449l5.342 12.372c0.202 0.504 0.832 0.983 1.386 0.983z"></path>
<path fill="#f4efef" style="fill: var(--color3, #f4efef)" d="M24.441 18.683c0.353 0 0.63-0.277 0.63-0.63v-8.466c0-0.353-0.277-0.63-0.63-0.63s-0.63 0.277-0.63 0.63v8.466c0 0.353 0.277 0.63 0.63 0.63z"></path>
<path fill="#f4efef" style="fill: var(--color3, #f4efef)" d="M27.968 18.683c0.353 0 0.63-0.277 0.63-0.63v-8.466c0-0.353-0.277-0.63-0.63-0.63s-0.63 0.277-0.63 0.63v8.466c0 0.353 0.277 0.63 0.63 0.63z"></path>
<path fill="#f4efef" style="fill: var(--color3, #f4efef)" d="M20.913 18.683c0.353 0 0.63-0.277 0.63-0.63v-8.466c0-0.353-0.277-0.63-0.63-0.63s-0.63 0.277-0.63 0.63v8.466c0 0.353 0.277 0.63 0.63 0.63z"></path>
<path fill="#f4efef" style="fill: var(--color3, #f4efef)" d="M17.386 18.683c0.353 0 0.63-0.277 0.63-0.63v-8.466c0-0.353-0.277-0.63-0.63-0.63s-0.63 0.277-0.63 0.63v8.466c0 0.353 0.277 0.63 0.63 0.63z"></path>
<path fill="#f4efef" style="fill: var(--color3, #f4efef)" d="M13.858 18.683c0.353 0 0.63-0.277 0.63-0.63v-8.466c0-0.353-0.277-0.63-0.63-0.63s-0.63 0.277-0.63 0.63v8.466c0 0.353 0.277 0.63 0.63 0.63z"></path>
<path fill="#f4efef" style="fill: var(--color3, #f4efef)" d="M11.213 9.613c0-0.353-0.151-0.63-0.504-0.63s-0.504 0.277-0.504 0.63v2.746c0 0.353 0.151 0.63 0.504 0.63s0.504-0.277 0.504-0.63v-2.746z"></path>
<path fill="#7d8b95" style="fill: var(--color1, #7d8b95)" d="M10.835 24.932c-1.512 0-2.721 1.209-2.721 2.721s1.209 2.721 2.721 2.721 2.721-1.209 2.721-2.721-1.209-2.721-2.721-2.721z"></path>
<path fill="#7d8b95" style="fill: var(--color1, #7d8b95)" d="M29.027 30.375c1.512 0 2.721-1.209 2.721-2.721s-1.209-2.721-2.721-2.721-2.721 1.209-2.721 2.721c0 1.512 1.209 2.721 2.721 2.721z"></path>
<path fill="#ef934a" style="fill: var(--color10, #ef934a)" d="M5.115 6.287v0c-0.302 0-0.454 0.428-0.454 0.705v0.252c0 0.277 0.176 0.302 0.454 0.302h25.902c0.277 0 0.378-0.025 0.378-0.302v-0.252c0-0.277-0.101-0.705-0.378-0.705h-25.902z"></path>
<path fill="#000" style="fill: var(--color6, #000)" d="M17.26 18.935c-0.479 0-0.882-0.378-0.882-0.882v-8.466c0-0.479 0.403-0.882 0.882-0.882s0.882 0.378 0.882 0.882v8.466c0 0.504-0.403 0.882-0.882 0.882zM17.26 9.235c-0.202 0-0.378 0.176-0.378 0.378v8.466c0 0.202 0.176 0.378 0.378 0.378s0.378-0.176 0.378-0.378v-8.466c0-0.202-0.176-0.378-0.378-0.378z"></path>
<path fill="#000" style="fill: var(--color6, #000)" d="M13.984 18.935c-0.479 0-0.882-0.378-0.882-0.882v-8.466c0-0.479 0.403-0.882 0.882-0.882s0.882 0.378 0.882 0.882v8.466c0 0.504-0.403 0.882-0.882 0.882zM13.984 9.235c-0.202 0-0.378 0.176-0.378 0.378v8.466c0 0.202 0.176 0.378 0.378 0.378s0.378-0.176 0.378-0.378v-8.466c0-0.202-0.176-0.378-0.378-0.378z"></path>
<path fill="#000" style="fill: var(--color6, #000)" d="M10.709 13.392c-0.479 0-0.882-0.378-0.882-0.882v-2.923c0-0.479 0.403-0.882 0.882-0.882s0.882 0.378 0.882 0.882v2.923c0 0.504-0.403 0.882-0.882 0.882zM10.709 9.235c-0.202 0-0.378 0.176-0.378 0.378v2.923c0 0.202 0.176 0.378 0.378 0.378s0.378-0.176 0.378-0.378v-2.923c0-0.202-0.176-0.378-0.378-0.378z"></path>
<path fill="#000" style="fill: var(--color6, #000)" d="M21.039 18.935c-0.479 0-0.882-0.378-0.882-0.882v-8.466c0-0.479 0.403-0.882 0.882-0.882s0.882 0.378 0.882 0.882v8.466c0 0.504-0.403 0.882-0.882 0.882zM21.039 9.235c-0.202 0-0.378 0.176-0.378 0.378v8.466c0 0.202 0.176 0.378 0.378 0.378s0.378-0.176 0.378-0.378v-8.466c0-0.202-0.176-0.378-0.378-0.378z"></path>
<path fill="#000" style="fill: var(--color6, #000)" d="M24.567 18.935c-0.479 0-0.882-0.378-0.882-0.882v-8.466c0-0.479 0.403-0.882 0.882-0.882s0.882 0.378 0.882 0.882v8.466c0 0.504-0.403 0.882-0.882 0.882zM24.567 9.235c-0.202 0-0.378 0.176-0.378 0.378v8.466c0 0.202 0.176 0.378 0.378 0.378s0.378-0.176 0.378-0.378v-8.466c0-0.202-0.176-0.378-0.378-0.378z"></path>
<path fill="#000" style="fill: var(--color6, #000)" d="M28.095 18.935c-0.479 0-0.882-0.378-0.882-0.882v-8.466c0-0.479 0.403-0.882 0.882-0.882s0.882 0.378 0.882 0.882v8.466c0 0.504-0.403 0.882-0.882 0.882zM28.095 9.235c-0.202 0-0.378 0.176-0.378 0.378v8.466c0 0.202 0.176 0.378 0.378 0.378s0.378-0.176 0.378-0.378v-8.466c0-0.202-0.176-0.378-0.378-0.378z"></path>
<path fill="#000" style="fill: var(--color6, #000)" d="M5.367 6.337c-0.101 0-0.176-0.050-0.227-0.151l-1.083-2.419c-0.202-0.428-0.302-0.63-1.184-0.63h-2.62c-0.151 0-0.252-0.101-0.252-0.252v-1.26c0-0.151 0.101-0.252 0.252-0.252h2.671c1.436 0 2.368 0.554 2.898 1.739l1.285 2.772c0.050 0.126 0 0.277-0.126 0.328s-0.277 0-0.328-0.126l-1.285-2.772c-0.454-1.033-1.184-1.461-2.444-1.461h-2.419v0.756h2.369c1.008 0 1.31 0.277 1.638 0.932l1.083 2.419c0.050 0.126 0 0.277-0.126 0.328-0.025 0.050-0.050 0.050-0.101 0.050z"></path>
<path fill="#000" style="fill: var(--color6, #000)" d="M30.261 21.027h-17.613c-0.655 0-1.436-0.68-1.688-1.26l-5.191-11.969c-0.050-0.126 0-0.277 0.126-0.328s0.277 0 0.328 0.126l5.191 11.968c0.176 0.428 0.806 0.957 1.235 0.957h17.613c0.328 0 0.479-0.63 0.479-1.083v-11.893c0-0.151 0.101-0.252 0.252-0.252s0.252 0.101 0.252 0.252v11.893c0 0.781-0.302 1.587-0.983 1.587z"></path>
<path fill="#000" style="fill: var(--color6, #000)" d="M10.835 30.627c-1.638 0-2.973-1.335-2.973-2.973s1.335-2.973 2.973-2.973 2.973 1.335 2.973 2.973c0 1.638-1.335 2.973-2.973 2.973zM10.835 25.184c-1.361 0-2.469 1.109-2.469 2.469s1.109 2.469 2.469 2.469 2.469-1.109 2.469-2.469-1.109-2.469-2.469-2.469z"></path>
<path fill="#000" style="fill: var(--color6, #000)" d="M10.835 29.392c-0.957 0-1.739-0.781-1.739-1.739s0.781-1.739 1.739-1.739c0.151 0 0.252 0.101 0.252 0.252s-0.101 0.252-0.252 0.252c-0.68 0-1.235 0.554-1.235 1.235s0.554 1.235 1.235 1.235 1.235-0.554 1.235-1.235c0-0.151 0.101-0.252 0.252-0.252s0.252 0.101 0.252 0.252c0 0.957-0.781 1.739-1.739 1.739z"></path>
<path fill="#000" style="fill: var(--color6, #000)" d="M29.027 30.627c-1.638 0-2.973-1.335-2.973-2.973s1.335-2.973 2.973-2.973 2.973 1.335 2.973 2.973c0 1.638-1.335 2.973-2.973 2.973zM29.027 25.184c-1.361 0-2.469 1.109-2.469 2.469s1.109 2.469 2.469 2.469 2.469-1.109 2.469-2.469-1.109-2.469-2.469-2.469z"></path>
<path fill="#000" style="fill: var(--color6, #000)" d="M29.027 29.392c-0.957 0-1.739-0.781-1.739-1.739s0.781-1.739 1.739-1.739c0.151 0 0.252 0.101 0.252 0.252s-0.101 0.252-0.252 0.252c-0.68 0-1.235 0.554-1.235 1.235s0.554 1.235 1.235 1.235c0.68 0 1.235-0.554 1.235-1.235 0-0.151 0.101-0.252 0.252-0.252s0.252 0.101 0.252 0.252c-0.025 0.957-0.781 1.739-1.739 1.739z"></path>
<path fill="#000" style="fill: var(--color6, #000)" d="M26.331 28.586h-12.85c-0.151 0-0.252-0.101-0.252-0.252s0.101-0.252 0.252-0.252h12.85c0.151 0 0.252 0.101 0.252 0.252s-0.101 0.252-0.252 0.252z"></path>
<path fill="#000" style="fill: var(--color6, #000)" d="M26.331 27.326h-12.85c-0.151 0-0.252-0.101-0.252-0.252s0.101-0.252 0.252-0.252h12.85c0.151 0 0.252 0.101 0.252 0.252s-0.101 0.252-0.252 0.252z"></path>
<path fill="#000" style="fill: var(--color6, #000)" d="M12.523 25.663c-0.025 0-0.076 0-0.101-0.025-0.126-0.050-0.176-0.202-0.126-0.328l1.965-4.535c0.050-0.126 0.202-0.176 0.328-0.126s0.176 0.202 0.126 0.328l-1.965 4.535c-0.050 0.076-0.126 0.151-0.227 0.151z"></path>
<path fill="#000" style="fill: var(--color6, #000)" d="M11.389 25.134c-0.025 0-0.076 0-0.101-0.025-0.126-0.050-0.176-0.202-0.126-0.328l1.713-3.956c0.050-0.126 0.202-0.176 0.328-0.126s0.176 0.202 0.126 0.328l-1.713 3.956c-0.050 0.101-0.126 0.151-0.227 0.151z"></path>
<path fill="#000" style="fill: var(--color6, #000)" d="M30.992 7.672h-25.953c-0.403 0-0.756-0.328-0.756-0.756v-0.252c0-0.403 0.328-0.756 0.756-0.756h25.953c0.403 0 0.756 0.328 0.756 0.756v0.252c0 0.428-0.328 0.756-0.756 0.756zM5.039 6.413c-0.126 0-0.252 0.101-0.252 0.252v0.252c0 0.126 0.101 0.252 0.252 0.252h25.953c0.126 0 0.252-0.101 0.252-0.252v-0.252c0-0.126-0.101-0.252-0.252-0.252h-25.953z"></path>
</symbol>
<symbol id="icon-cart-col-plus" viewBox="0 0 32 32">
<path fill="#7d8b95" style="fill: var(--color1, #7d8b95)" d="M4.032 3.641l1.083 2.394h1.512l-1.285-2.847c-0.454-1.008-1.209-1.688-2.671-1.688h-2.293v1.26h2.243c0.957 0 1.159 0.328 1.411 0.882z"></path>
<path fill="#efdc81" style="fill: var(--color2, #efdc81)" d="M12.397 20.649h17.613c0.554 0 1.109-0.403 1.109-0.957v-12.397h-25.449l5.342 12.372c0.202 0.504 0.832 0.983 1.386 0.983z"></path>
<path fill="#f4efef" style="fill: var(--color3, #f4efef)" d="M24.693 18.709c0.353 0 0.63-0.277 0.63-0.63v-8.466c0-0.353-0.277-0.63-0.63-0.63s-0.63 0.277-0.63 0.63v8.466c0 0.353 0.277 0.63 0.63 0.63z"></path>
<path fill="#f4efef" style="fill: var(--color3, #f4efef)" d="M28.22 18.709c0.353 0 0.63-0.277 0.63-0.63v-8.466c0-0.353-0.277-0.63-0.63-0.63s-0.63 0.277-0.63 0.63v8.466c0 0.353 0.277 0.63 0.63 0.63z"></path>
<path fill="#f4efef" style="fill: var(--color3, #f4efef)" d="M21.165 18.709c0.353 0 0.63-0.277 0.63-0.63v-8.466c0-0.353-0.277-0.63-0.63-0.63s-0.63 0.277-0.63 0.63v8.466c0 0.353 0.277 0.63 0.63 0.63z"></path>
<path fill="#f4efef" style="fill: var(--color3, #f4efef)" d="M17.386 18.709c0.353 0 0.63-0.277 0.63-0.63v-8.466c0-0.353-0.277-0.63-0.63-0.63s-0.63 0.277-0.63 0.63v8.466c0 0.353 0.277 0.63 0.63 0.63z"></path>
<path fill="#f4efef" style="fill: var(--color3, #f4efef)" d="M13.858 18.709c0.353 0 0.63-0.277 0.63-0.63v-8.466c0-0.353-0.277-0.63-0.63-0.63s-0.63 0.277-0.63 0.63v8.466c0 0.353 0.277 0.63 0.63 0.63z"></path>
<path fill="#f4efef" style="fill: var(--color3, #f4efef)" d="M11.213 9.613c0-0.353-0.151-0.63-0.504-0.63s-0.504 0.277-0.504 0.63v2.746c0 0.353 0.151 0.63 0.504 0.63s0.504-0.277 0.504-0.63v-2.746z"></path>
<path fill="#7d8b95" style="fill: var(--color1, #7d8b95)" d="M10.835 24.932c-1.512 0-2.721 1.209-2.721 2.721s1.209 2.721 2.721 2.721 2.721-1.209 2.721-2.721-1.209-2.721-2.721-2.721z"></path>
<path fill="#7d8b95" style="fill: var(--color1, #7d8b95)" d="M29.027 30.4c1.512 0 2.721-1.209 2.721-2.721s-1.209-2.721-2.721-2.721-2.721 1.209-2.721 2.721 1.209 2.721 2.721 2.721z"></path>
<path fill="#ef934a" style="fill: var(--color10, #ef934a)" d="M5.115 6.035v0c-0.302 0-0.454 0.454-0.454 0.731v0.252c0 0.277 0.176 0.302 0.454 0.302h25.902c0.277 0 0.378-0.025 0.378-0.302v-0.252c0-0.277-0.101-0.731-0.378-0.731h-25.676c-0.025 0-0.227 0-0.227 0z"></path>
<path fill="#73badd" style="fill: var(--color9, #73badd)" d="M26.885 17.928c0 3.841-3.114 6.954-6.954 6.954s-6.954-3.114-6.954-6.954c0-3.841 3.114-6.954 6.954-6.954s6.954 3.114 6.954 6.954z"></path>
<path fill="#000" style="fill: var(--color6, #000)" d="M16.63 11.83c-0.151 0-0.252-0.101-0.252-0.252v-1.991c0-0.479 0.403-0.882 0.882-0.882s0.882 0.378 0.882 0.882v1.487c0 0.151-0.101 0.252-0.252 0.252s-0.252-0.101-0.252-0.252v-1.487c0-0.202-0.176-0.378-0.378-0.378s-0.378 0.176-0.378 0.378v1.991c0 0.151-0.101 0.252-0.252 0.252z"></path>
<path fill="#000" style="fill: var(--color6, #000)" d="M13.354 15.609c-0.151 0-0.252-0.101-0.252-0.252v-5.77c0-0.479 0.403-0.882 0.882-0.882s0.882 0.378 0.882 0.882v3.754c0 0.151-0.101 0.252-0.252 0.252s-0.252-0.101-0.252-0.252v-3.754c0-0.202-0.176-0.378-0.378-0.378s-0.378 0.176-0.378 0.378v5.77c0 0.151-0.101 0.252-0.252 0.252z"></path>
<path fill="#000" style="fill: var(--color6, #000)" d="M10.709 13.392c-0.479 0-0.882-0.378-0.882-0.882v-2.923c0-0.479 0.403-0.882 0.882-0.882s0.882 0.378 0.882 0.882v2.923c0 0.504-0.403 0.882-0.882 0.882zM10.709 9.235c-0.202 0-0.378 0.176-0.378 0.378v2.923c0 0.202 0.176 0.378 0.378 0.378s0.378-0.176 0.378-0.378v-2.923c0-0.227-0.176-0.378-0.378-0.378z"></path>
<path fill="#000" style="fill: var(--color6, #000)" d="M21.669 11.326c-0.151 0-0.252-0.101-0.252-0.252v-1.487c0-0.202-0.176-0.378-0.378-0.378s-0.378 0.176-0.378 0.378v1.235c0 0.151-0.101 0.252-0.252 0.252s-0.252-0.101-0.252-0.252v-1.235c0-0.479 0.403-0.882 0.882-0.882s0.882 0.378 0.882 0.882v1.487c0 0.151-0.101 0.252-0.252 0.252z"></path>
<path fill="#000" style="fill: var(--color6, #000)" d="M25.197 13.594c-0.151 0-0.252-0.101-0.252-0.252v-3.754c0-0.202-0.176-0.378-0.378-0.378s-0.378 0.176-0.378 0.378v2.495c0 0.151-0.101 0.252-0.252 0.252s-0.252-0.101-0.252-0.252v-2.495c0-0.479 0.403-0.882 0.882-0.882s0.882 0.378 0.882 0.882v3.754c0 0.151-0.101 0.252-0.252 0.252z"></path>
<path fill="#000" style="fill: var(--color6, #000)" d="M28.095 18.935c-0.479 0-0.882-0.378-0.882-0.882v-8.466c0-0.479 0.403-0.882 0.882-0.882s0.882 0.378 0.882 0.882v8.466c0 0.504-0.403 0.882-0.882 0.882zM28.095 9.235c-0.202 0-0.378 0.176-0.378 0.378v8.466c0 0.202 0.176 0.378 0.378 0.378s0.378-0.176 0.378-0.378v-8.466c0-0.227-0.176-0.378-0.378-0.378z"></path>
<path fill="#000" style="fill: var(--color6, #000)" d="M5.367 6.337c-0.101 0-0.176-0.050-0.227-0.151l-1.083-2.419c-0.202-0.428-0.302-0.655-1.184-0.655h-2.62c-0.151 0-0.252-0.101-0.252-0.252v-1.26c0-0.151 0.101-0.252 0.252-0.252h2.671c1.436 0 2.368 0.554 2.898 1.764l1.285 2.772c0.050 0.126 0 0.277-0.126 0.328s-0.277 0-0.328-0.126l-1.285-2.772c-0.454-1.033-1.184-1.461-2.444-1.461h-2.419v0.756h2.369c1.008 0 1.31 0.277 1.638 0.932l1.083 2.419c0.050 0.126 0 0.277-0.126 0.328-0.025 0.050-0.050 0.050-0.101 0.050z"></path>
<path fill="#000" style="fill: var(--color6, #000)" d="M30.261 21.027h-3.679c-0.151 0-0.252-0.101-0.252-0.252s0.101-0.252 0.252-0.252h3.679c0.328 0 0.479-0.63 0.479-1.083v-11.893c0-0.151 0.101-0.252 0.252-0.252s0.252 0.101 0.252 0.252v11.893c0 0.806-0.302 1.587-0.983 1.587z"></path>
<path fill="#000" style="fill: var(--color6, #000)" d="M13.228 21.027h-0.58c-0.68 0-1.411-0.605-1.638-1.159l-5.291-12.246c-0.050-0.126 0-0.277 0.126-0.328s0.277 0 0.328 0.126l5.291 12.246c0.176 0.428 0.756 0.831 1.184 0.831h0.58c0.151 0 0.252 0.101 0.252 0.252s-0.101 0.277-0.252 0.277z"></path>
<path fill="#000" style="fill: var(--color6, #000)" d="M10.835 30.652c-1.638 0-2.973-1.335-2.973-2.973s1.335-2.973 2.973-2.973 2.973 1.335 2.973 2.973c0 1.638-1.335 2.973-2.973 2.973zM10.835 25.184c-1.361 0-2.469 1.109-2.469 2.469s1.109 2.469 2.469 2.469 2.469-1.109 2.469-2.469-1.109-2.469-2.469-2.469z"></path>
<path fill="#000" style="fill: var(--color6, #000)" d="M10.835 29.392c-0.957 0-1.739-0.781-1.739-1.739s0.781-1.739 1.739-1.739c0.151 0 0.252 0.101 0.252 0.252s-0.101 0.252-0.252 0.252c-0.68 0-1.235 0.554-1.235 1.235s0.554 1.235 1.235 1.235 1.235-0.554 1.235-1.235c0-0.151 0.101-0.252 0.252-0.252s0.252 0.101 0.252 0.252c0 0.957-0.781 1.739-1.739 1.739z"></path>
<path fill="#000" style="fill: var(--color6, #000)" d="M29.027 30.652c-1.638 0-2.973-1.335-2.973-2.973s1.335-2.973 2.973-2.973 2.973 1.335 2.973 2.973c0 1.638-1.335 2.973-2.973 2.973zM29.027 25.184c-1.361 0-2.469 1.109-2.469 2.469s1.109 2.469 2.469 2.469 2.469-1.109 2.469-2.469-1.109-2.469-2.469-2.469z"></path>
<path fill="#000" style="fill: var(--color6, #000)" d="M29.027 29.392c-0.957 0-1.739-0.781-1.739-1.739s0.781-1.739 1.739-1.739c0.151 0 0.252 0.101 0.252 0.252s-0.101 0.252-0.252 0.252c-0.68 0-1.235 0.554-1.235 1.235s0.554 1.235 1.235 1.235c0.68 0 1.235-0.554 1.235-1.235 0-0.151 0.101-0.252 0.252-0.252s0.252 0.101 0.252 0.252c-0.025 0.957-0.781 1.739-1.739 1.739z"></path>
<path fill="#000" style="fill: var(--color6, #000)" d="M26.331 28.586h-12.85c-0.151 0-0.252-0.101-0.252-0.252s0.101-0.252 0.252-0.252h12.85c0.151 0 0.252 0.101 0.252 0.252s-0.101 0.252-0.252 0.252z"></path>
<path fill="#000" style="fill: var(--color6, #000)" d="M26.331 27.326h-12.85c-0.151 0-0.252-0.101-0.252-0.252s0.101-0.252 0.252-0.252h12.85c0.151 0 0.252 0.101 0.252 0.252s-0.101 0.252-0.252 0.252z"></path>
<path fill="#000" style="fill: var(--color6, #000)" d="M11.389 25.134c-0.025 0-0.076 0-0.101-0.025-0.126-0.050-0.176-0.202-0.126-0.328l1.915-4.435c0.050-0.126 0.202-0.176 0.328-0.126s0.176 0.202 0.126 0.328l-1.915 4.435c-0.050 0.101-0.126 0.151-0.227 0.151z"></path>
<path fill="#000" style="fill: var(--color6, #000)" d="M12.523 25.663c-0.025 0-0.076 0-0.101-0.025-0.126-0.050-0.176-0.202-0.126-0.328l1.562-3.654c0.050-0.126 0.202-0.176 0.328-0.126s0.176 0.202 0.126 0.328l-1.562 3.654c-0.050 0.101-0.126 0.151-0.227 0.151z"></path>
<path fill="#000" style="fill: var(--color6, #000)" d="M30.992 7.672h-25.953c-0.403 0-0.756-0.328-0.756-0.756v-0.252c0-0.403 0.328-0.756 0.756-0.756h25.953c0.403 0 0.756 0.328 0.756 0.756v0.252c0 0.428-0.328 0.756-0.756 0.756zM5.039 6.413c-0.126 0-0.252 0.101-0.252 0.252v0.252c0 0.126 0.101 0.252 0.252 0.252h25.953c0.126 0 0.252-0.101 0.252-0.252v-0.252c0-0.126-0.101-0.252-0.252-0.252h-25.953z"></path>
<path fill="#000" style="fill: var(--color6, #000)" d="M19.905 25.159c-3.981 0-7.206-3.225-7.206-7.206s3.225-7.206 7.206-7.206 7.206 3.225 7.206 7.206c0.025 3.981-3.225 7.206-7.206 7.206zM19.905 11.25c-3.704 0-6.702 2.998-6.702 6.702s2.998 6.702 6.702 6.702 6.702-2.998 6.702-6.702c0.025-3.704-2.998-6.702-6.702-6.702z"></path>
<path fill="#000" style="fill: var(--color6, #000)" d="M19.905 21.405c-0.151 0-0.252-0.101-0.252-0.252v-6.551c0-0.151 0.101-0.252 0.252-0.252s0.252 0.101 0.252 0.252v6.551c0 0.151-0.101 0.252-0.252 0.252z"></path>
<path fill="#000" style="fill: var(--color6, #000)" d="M23.307 18.003h-6.803c-0.151 0-0.252-0.101-0.252-0.252s0.101-0.252 0.252-0.252h6.803c0.151 0 0.252 0.101 0.252 0.252s-0.101 0.252-0.252 0.252z"></path>
</symbol>
<symbol id="icon-cart-col-set" viewBox="0 0 32 32">
<path fill="#7d8b95" style="fill: var(--color1, #7d8b95)" d="M4.174 3.668l1.088 2.403h1.518l-1.29-2.858c-0.455-1.012-1.214-1.695-2.681-1.695h-2.428v1.265h2.378c0.961 0 1.164 0.329 1.417 0.885z"></path>
<path fill="#efdc81" style="fill: var(--color2, #efdc81)" d="M12.547 20.743h17.682c0.557 0 0.987-0.531 0.987-1.088v-12.319h-25.423l5.363 12.421c0.228 0.506 0.86 0.987 1.391 0.987z"></path>
<path fill="#f4efef" style="fill: var(--color3, #f4efef)" d="M24.538 18.643c0.354 0 0.632-0.278 0.632-0.607v-8.5c0-0.354-0.278-0.632-0.632-0.632s-0.632 0.278-0.632 0.632v8.5c0 0.329 0.278 0.607 0.632 0.607z"></path>
<path fill="#f4efef" style="fill: var(--color3, #f4efef)" d="M28.079 18.643c0.354 0 0.632-0.278 0.632-0.607v-8.5c0-0.354-0.278-0.632-0.632-0.632s-0.632 0.278-0.632 0.632v8.5c0 0.329 0.278 0.607 0.632 0.607z"></path>
<path fill="#f4efef" style="fill: var(--color3, #f4efef)" d="M20.996 18.643c0.354 0 0.632-0.278 0.632-0.607v-8.5c0-0.354-0.278-0.632-0.632-0.632s-0.632 0.278-0.632 0.632v8.5c0 0.329 0.278 0.607 0.632 0.607z"></path>
<path fill="#f4efef" style="fill: var(--color3, #f4efef)" d="M17.202 18.643c0.354 0 0.632-0.278 0.632-0.607v-8.5c0-0.354-0.278-0.632-0.632-0.632s-0.632 0.278-0.632 0.632v8.5c0 0.329 0.278 0.607 0.632 0.607z"></path>
<path fill="#f4efef" style="fill: var(--color3, #f4efef)" d="M13.913 18.643c0.354 0 0.632-0.278 0.632-0.607v-8.5c0-0.354-0.278-0.632-0.632-0.632s-0.632 0.278-0.632 0.632v8.5c0 0.329 0.278 0.607 0.632 0.607z"></path>
<path fill="#f4efef" style="fill: var(--color3, #f4efef)" d="M11.004 9.537c0-0.354-0.152-0.632-0.506-0.632s-0.506 0.278-0.506 0.632v2.757c0 0.354 0.152 0.632 0.506 0.632s0.506-0.278 0.506-0.632v-2.757z"></path>
<path fill="#7d8b95" style="fill: var(--color1, #7d8b95)" d="M10.751 24.917c-1.518 0-2.732 1.214-2.732 2.732s1.214 2.732 2.732 2.732 2.732-1.214 2.732-2.732-1.214-2.732-2.732-2.732z"></path>
<path fill="#7d8b95" style="fill: var(--color1, #7d8b95)" d="M29.015 30.381c1.518 0 2.732-1.214 2.732-2.732s-1.214-2.732-2.732-2.732-2.732 1.214-2.732 2.732 1.214 2.732 2.732 2.732z"></path>
<path fill="#2d414e" style="fill: var(--color4, #2d414e)" d="M5.009 6.324v0c-0.304 0-0.582 0.304-0.582 0.582v0.253c0 0.278 0.304 0.43 0.582 0.43h25.979c0.278 0 0.506-0.152 0.506-0.43v-0.253c0-0.278-0.228-0.582-0.506-0.582h-25.979z"></path>
<path fill="#aeb1b4" style="fill: var(--color11, #aeb1b4)" d="M26.435 17.834c0-0.202 0.126-0.405-0.025-0.506-0.101-0.076-0.228-0.126-0.354-0.126l-0.759-0.051c-0.152-0.835-0.481-1.594-0.936-2.251l0.228-0.278 0.253-0.304c0.202-0.253 0.202-0.658-0.025-0.885l-0.278-0.278c-0.126-0.126-0.329-0.202-0.506-0.177-0.126 0-0.278 0.051-0.379 0.152l-0.607 0.506c-0.658-0.455-1.417-0.784-2.251-0.936l-0.076-0.86c-0.025-0.329-0.329-0.43-0.658-0.43h-0.379c-0.329 0-0.632 0.101-0.658 0.43l-0.076 0.809c-0.835 0.126-1.594 0.481-2.251 0.936l-0.607-0.506c-0.253-0.202-0.658-0.202-0.885 0.051l-0.278 0.278c-0.228 0.228-0.253 0.632-0.025 0.885l0.506 0.582c-0.481 0.658-0.809 1.417-0.936 2.251l-0.759 0.051c-0.304 0.025-0.582 0.278-0.607 0.607 0 0.025 0 0.025 0 0.051v0.379c0 0.329 0.278 0.632 0.607 0.658l0.177 0.025 0.582 0.051c0.126 0.835 0.455 1.619 0.936 2.277l-0.481 0.582c-0.228 0.253-0.202 0.658 0.025 0.885l0.278 0.278c0.228 0.228 0.632 0.253 0.885 0.025l0.557-0.481c0.658 0.481 1.442 0.809 2.277 0.936l0.051 0.734c0.025 0.329 0.329 0.607 0.658 0.607h0.379c0.329 0 0.632-0.278 0.658-0.607l0.051-0.734c0.835-0.152 1.619-0.481 2.277-0.961l0.557 0.481c0.253 0.228 0.658 0.202 0.885-0.025l0.278-0.278c0.228-0.228 0.253-0.632 0.025-0.885l-0.481-0.582c0.481-0.658 0.784-1.442 0.936-2.277l0.329-0.025 0.455-0.025c0.329-0.025 0.379-0.329 0.379-0.658 0.051 0 0.051-0.379 0.051-0.379z"></path>
<path fill="#e8e3e3" style="fill: var(--color12, #e8e3e3)" d="M23.273 18.036c0 1.872-1.518 3.39-3.39 3.39s-3.39-1.518-3.39-3.39c0-1.872 1.518-3.39 3.39-3.39s3.39 1.518 3.39 3.39z"></path>
<path fill="#000" style="fill: var(--color6, #000)" d="M5.262 6.274c-0.101 0-0.177-0.051-0.228-0.152l-1.088-2.403c-0.202-0.43-0.278-0.582-1.189-0.582h-2.504c-0.152 0-0.253-0.101-0.253-0.253v-1.265c0-0.152 0.101-0.253 0.253-0.253h2.555c1.492 0 2.378 0.531 2.909 1.695l1.29 2.707c0.051 0.126 0 0.278-0.126 0.329s-0.278 0-0.329-0.126l-1.29-2.707c-0.43-0.987-1.164-1.391-2.454-1.391h-2.302v0.759h2.251c1.037 0 1.315 0.228 1.644 0.86l1.088 2.403c0.051 0.126 0 0.278-0.126 0.329-0.025 0.051-0.051 0.051-0.101 0.051z"></path>
<path fill="#000" style="fill: var(--color6, #000)" d="M30.255 21.123h-5.338c-0.152 0-0.253-0.101-0.253-0.253s0.101-0.253 0.253-0.253h5.338c0.329 0 0.607-0.734 0.607-1.214v-11.813c0-0.152 0.101-0.253 0.253-0.253s0.253 0.101 0.253 0.253v11.813c0 0.708-0.405 1.72-1.113 1.72z"></path>
<path fill="#000" style="fill: var(--color6, #000)" d="M14.798 21.123h-2.226c-0.683 0-1.417-0.632-1.67-1.189l-5.338-12.345c-0.051-0.126 0-0.278 0.126-0.329s0.278 0 0.329 0.126l5.338 12.345c0.202 0.455 0.784 0.885 1.214 0.885h2.226c0.152 0 0.253 0.101 0.253 0.253s-0.101 0.253-0.253 0.253z"></path>
<path fill="#000" style="fill: var(--color6, #000)" d="M10.751 30.634c-1.644 0-2.985-1.341-2.985-2.985s1.341-2.985 2.985-2.985 2.985 1.341 2.985 2.985c0 1.644-1.341 2.985-2.985 2.985zM10.751 25.17c-1.366 0-2.479 1.113-2.479 2.479s1.113 2.479 2.479 2.479 2.479-1.113 2.479-2.479-1.113-2.479-2.479-2.479z"></path>
<path fill="#000" style="fill: var(--color6, #000)" d="M10.751 29.394c-0.961 0-1.745-0.784-1.745-1.745s0.784-1.745 1.745-1.745c0.152 0 0.253 0.101 0.253 0.253s-0.101 0.253-0.253 0.253c-0.683 0-1.24 0.557-1.24 1.24s0.557 1.24 1.24 1.24 1.24-0.557 1.24-1.24c0-0.152 0.101-0.253 0.253-0.253s0.253 0.101 0.253 0.253c0 0.961-0.784 1.745-1.745 1.745z"></path>
<path fill="#000" style="fill: var(--color6, #000)" d="M29.015 30.634c-1.644 0-2.985-1.341-2.985-2.985s1.341-2.985 2.985-2.985 2.985 1.341 2.985 2.985c0 1.644-1.341 2.985-2.985 2.985zM29.015 25.17c-1.366 0-2.479 1.113-2.479 2.479s1.113 2.479 2.479 2.479 2.479-1.113 2.479-2.479-1.113-2.479-2.479-2.479z"></path>
<path fill="#000" style="fill: var(--color6, #000)" d="M29.015 29.394c-0.961 0-1.745-0.784-1.745-1.745s0.784-1.745 1.745-1.745c0.152 0 0.253 0.101 0.253 0.253s-0.101 0.253-0.253 0.253c-0.683 0-1.24 0.557-1.24 1.24s0.557 1.24 1.24 1.24c0.683 0 1.24-0.557 1.24-1.24 0-0.152 0.101-0.253 0.253-0.253s0.253 0.101 0.253 0.253c0 0.961-0.784 1.745-1.745 1.745z"></path>
<path fill="#000" style="fill: var(--color6, #000)" d="M26.182 28.711h-12.648c-0.152 0-0.253-0.101-0.253-0.253s0.101-0.253 0.253-0.253h12.648c0.152 0 0.253 0.101 0.253 0.253s-0.101 0.253-0.253 0.253z"></path>
<path fill="#000" style="fill: var(--color6, #000)" d="M26.182 27.447h-12.648c-0.152 0-0.253-0.101-0.253-0.253s0.101-0.253 0.253-0.253h12.648c0.152 0 0.253 0.101 0.253 0.253s-0.101 0.253-0.253 0.253z"></path>
<path fill="#000" style="fill: var(--color6, #000)" d="M11.307 25.119c-0.025 0-0.076 0-0.101-0.025-0.126-0.051-0.177-0.202-0.126-0.329l1.619-3.769c0.051-0.126 0.202-0.177 0.329-0.126s0.177 0.202 0.126 0.329l-1.619 3.769c-0.051 0.101-0.126 0.152-0.228 0.152z"></path>
<path fill="#000" style="fill: var(--color6, #000)" d="M12.446 25.651c-0.025 0-0.076 0-0.101-0.025-0.126-0.051-0.177-0.202-0.126-0.329l1.872-4.275c0.051-0.126 0.202-0.177 0.329-0.126s0.177 0.202 0.126 0.329l-1.872 4.275c-0.051 0.076-0.126 0.152-0.228 0.152z"></path>
<path fill="#000" style="fill: var(--color6, #000)" d="M31.115 7.715h-26.055c-0.405 0-0.759-0.329-0.759-0.759v-0.253c0-0.405 0.329-0.759 0.759-0.759h26.055c0.405 0 0.759 0.329 0.759 0.759v0.253c0 0.43-0.329 0.759-0.759 0.759zM5.059 6.451c-0.126 0-0.253 0.101-0.253 0.253v0.253c0 0.126 0.101 0.253 0.253 0.253h26.055c0.126 0 0.253-0.101 0.253-0.253v-0.253c0-0.126-0.101-0.253-0.253-0.253h-26.055z"></path>
<path fill="#000" style="fill: var(--color6, #000)" d="M19.883 21.679c-1.214 0-2.378-0.607-3.086-1.695-0.531-0.809-0.683-1.796-0.481-2.757s0.784-1.771 1.594-2.277c0.987-0.632 2.226-0.734 3.314-0.304 0.076 0.025 0.152 0.076 0.228 0.101 0.126 0.051 0.177 0.202 0.126 0.329s-0.202 0.177-0.329 0.126c-0.076-0.025-0.126-0.051-0.202-0.101-0.936-0.379-1.998-0.278-2.858 0.253-0.708 0.455-1.189 1.138-1.391 1.973-0.177 0.809-0.025 1.644 0.405 2.353 0.936 1.467 2.858 1.897 4.326 0.961 0.708-0.455 1.189-1.138 1.391-1.973 0.177-0.809 0.025-1.644-0.405-2.353-0.076-0.126-0.051-0.278 0.076-0.354s0.278-0.051 0.354 0.076c0.531 0.809 0.683 1.796 0.481 2.757s-0.784 1.771-1.594 2.277c-0.607 0.43-1.265 0.607-1.948 0.607z"></path>
<path fill="#000" style="fill: var(--color6, #000)" d="M20.085 25.17h-0.379c-0.481 0-0.86-0.329-0.911-0.784l-0.051-0.734c-0.708-0.152-1.417-0.43-2.024-0.835l-0.43 0.354c-0.354 0.304-0.911 0.278-1.24-0.051l-0.278-0.278c-0.329-0.329-0.354-0.885-0.051-1.24l0.354-0.43c-0.405-0.607-0.683-1.29-0.835-2.024l-0.557-0.051c-0.455-0.025-0.835-0.455-0.835-0.911v-0.379c0-0.455 0.379-0.86 0.835-0.911l0.582-0.051c0.152-0.708 0.43-1.391 0.835-1.998l-0.379-0.455c-0.304-0.354-0.278-0.911 0.051-1.24l0.278-0.278c0.329-0.329 0.885-0.354 1.24-0.051l0.455 0.405c0.582-0.379 1.24-0.632 1.998-0.784l0.051-0.531c0.025-0.43 0.379-0.708 0.911-0.708h0.379c0.506 0 0.86 0.278 0.911 0.708l0.051 0.481c0.708 0.152 1.391 0.43 1.998 0.835l0.455-0.379c0.354-0.304 0.911-0.278 1.24 0.051l0.278 0.278c0.329 0.329 0.329 0.885 0.051 1.24l-0.405 0.455c0.379 0.582 0.632 1.24 0.784 1.998l0.481 0.051c0.43 0.025 0.658 0.379 0.658 0.911v0.379c0 0.531-0.253 0.86-0.683 0.911l-0.405 0.051c-0.152 0.708-0.43 1.417-0.835 2.024l0.354 0.43c0.304 0.354 0.278 0.911-0.051 1.24l-0.278 0.278c-0.329 0.329-0.885 0.354-1.24 0.076l-0.405-0.329c-0.658 0.455-1.341 0.759-2.024 0.885l-0.051 0.632c-0.025 0.43-0.405 0.759-0.885 0.759zM16.696 22.236c0.051 0 0.101 0.025 0.152 0.051 0.658 0.455 1.391 0.759 2.175 0.911 0.126 0.025 0.202 0.126 0.202 0.228l0.051 0.936c0.025 0.202 0.202 0.304 0.405 0.304h0.379c0.177 0 0.379-0.101 0.405-0.329l0.051-0.835c0-0.126 0.101-0.202 0.202-0.228 0.734-0.126 1.467-0.43 2.175-0.961 0.101-0.076 0.228-0.051 0.304 0l0.557 0.455c0.152 0.126 0.405 0.126 0.557-0.025l0.278-0.278c0.152-0.152 0.152-0.405 0.025-0.557l-0.481-0.582c-0.076-0.076-0.076-0.228-0.025-0.304 0.455-0.632 0.759-1.391 0.885-2.175 0.025-0.101 0.101-0.202 0.228-0.202l0.582-0.051c0.051 0 0.202-0.025 0.202-0.405v-0.379c0-0.379-0.152-0.405-0.202-0.405v0l-0.683-0.051c-0.126 0-0.202-0.101-0.228-0.202-0.152-0.835-0.43-1.543-0.86-2.15-0.076-0.101-0.051-0.228 0.025-0.304l0.531-0.582c0.126-0.152 0.126-0.405-0.025-0.531l-0.278-0.278c-0.152-0.152-0.379-0.152-0.531-0.025l-0.582 0.506c-0.076 0.076-0.228 0.076-0.304 0.025-0.632-0.455-1.366-0.759-2.15-0.885-0.101-0.025-0.202-0.101-0.202-0.228l-0.076-0.658c-0.025-0.228-0.278-0.253-0.405-0.253h-0.379c-0.126 0-0.379 0.025-0.405 0.253l-0.076 0.734c0 0.126-0.101 0.202-0.202 0.228-0.809 0.126-1.518 0.43-2.15 0.86-0.101 0.076-0.228 0.051-0.304-0.025l-0.607-0.531c-0.152-0.126-0.405-0.126-0.531 0.025l-0.278 0.278c-0.152 0.152-0.152 0.379-0.025 0.531l0.506 0.582c0.076 0.101 0.076 0.228 0 0.304-0.455 0.632-0.759 1.366-0.885 2.15-0.025 0.101-0.101 0.202-0.228 0.202l-0.759 0.051c-0.202 0.025-0.379 0.202-0.379 0.405v0.379c0 0.202 0.177 0.379 0.379 0.405l0.759 0.051c0.126 0 0.202 0.101 0.228 0.202 0.126 0.784 0.43 1.518 0.885 2.175 0.076 0.101 0.051 0.228-0.025 0.304l-0.481 0.582c-0.126 0.152-0.126 0.405 0.025 0.557l0.278 0.278c0.152 0.152 0.379 0.152 0.557 0.025l0.557-0.481c0.101-0.051 0.152-0.076 0.202-0.076z"></path>
<path fill="#000" style="fill: var(--color6, #000)" d="M16.443 13.407c-0.152 0-0.253-0.101-0.253-0.253v-3.617c0-0.481 0.405-0.86 0.885-0.86s0.885 0.379 0.885 0.86v3.364c0 0.152-0.101 0.253-0.253 0.253s-0.253-0.101-0.253-0.253v-3.364c0-0.202-0.177-0.354-0.379-0.354s-0.379 0.177-0.379 0.354v3.617c0 0.152-0.101 0.253-0.253 0.253z"></path>
<path fill="#000" style="fill: var(--color6, #000)" d="M13.154 17.455c-0.152 0-0.253-0.101-0.253-0.253v-7.665c0-0.481 0.405-0.86 0.885-0.86s0.885 0.379 0.885 0.86v7.159c0 0.152-0.101 0.253-0.253 0.253s-0.253-0.101-0.253-0.253v-7.159c0-0.202-0.177-0.354-0.379-0.354s-0.379 0.177-0.379 0.354v7.665c0 0.152-0.101 0.253-0.253 0.253z"></path>
<path fill="#000" style="fill: var(--color6, #000)" d="M10.498 13.331c-0.481 0-0.885-0.379-0.885-0.885v-2.934c0-0.481 0.405-0.86 0.885-0.86s0.885 0.379 0.885 0.86v2.934c0 0.506-0.405 0.885-0.885 0.885zM10.498 9.157c-0.202 0-0.379 0.177-0.379 0.354v2.934c0 0.202 0.177 0.379 0.379 0.379s0.379-0.177 0.379-0.379v-2.934c0-0.177-0.177-0.354-0.379-0.354z"></path>
<path fill="#000" style="fill: var(--color6, #000)" d="M21.502 12.901c-0.152 0-0.253-0.101-0.253-0.253v-3.111c0-0.202-0.177-0.354-0.379-0.354s-0.379 0.177-0.379 0.354v1.847c0 0.152-0.101 0.253-0.253 0.253s-0.253-0.101-0.253-0.253v-1.847c0-0.481 0.405-0.86 0.885-0.86s0.885 0.379 0.885 0.86v3.111c0 0.152-0.101 0.253-0.253 0.253z"></path>
<path fill="#000" style="fill: var(--color6, #000)" d="M25.043 16.443c-0.152 0-0.253-0.101-0.253-0.253v-6.653c0-0.202-0.177-0.354-0.379-0.354s-0.379 0.177-0.379 0.354v3.364c0 0.152-0.101 0.253-0.253 0.253s-0.253-0.101-0.253-0.253v-3.364c0-0.481 0.405-0.86 0.885-0.86s0.885 0.379 0.885 0.86v6.653c0 0.152-0.101 0.253-0.253 0.253z"></path>
<path fill="#000" style="fill: var(--color6, #000)" d="M27.953 18.896c-0.481 0-0.885-0.379-0.885-0.885v-8.5c0-0.481 0.405-0.86 0.885-0.86s0.885 0.379 0.885 0.86v8.5c0 0.506-0.405 0.885-0.885 0.885zM27.953 9.157c-0.202 0-0.379 0.177-0.379 0.354v8.5c0 0.202 0.177 0.379 0.379 0.379s0.379-0.177 0.379-0.379v-8.5c0-0.177-0.177-0.354-0.379-0.354z"></path>
</symbol>
<symbol id="icon-cart-col-star" viewBox="0 0 32 32">
<path fill="#7d8b95" style="fill: var(--color1, #7d8b95)" d="M4.032 3.691l1.083 2.394h1.512l-1.285-2.847c-0.454-1.008-1.209-1.688-2.671-1.688h-2.293v1.26h2.243c0.957 0 1.159 0.328 1.411 0.882z"></path>
<path fill="#efdc81" style="fill: var(--color2, #efdc81)" d="M12.397 20.699h17.613c0.554 0 1.109-0.529 1.109-1.083v-12.271h-25.449l5.342 12.372c0.202 0.504 0.832 0.983 1.386 0.983z"></path>
<path fill="#f4efef" style="fill: var(--color3, #f4efef)" d="M24.441 18.381c0.353 0 0.63-0.277 0.63-0.63v-8.214c0-0.353-0.277-0.63-0.63-0.63s-0.63 0.277-0.63 0.63v8.214c0 0.353 0.277 0.63 0.63 0.63z"></path>
<path fill="#f4efef" style="fill: var(--color3, #f4efef)" d="M27.968 18.633c0.353 0 0.63-0.277 0.63-0.605v-8.466c0-0.353-0.277-0.63-0.63-0.63s-0.63 0.277-0.63 0.63v8.466c0 0.328 0.277 0.605 0.63 0.605z"></path>
<path fill="#f4efef" style="fill: var(--color3, #f4efef)" d="M20.913 18.633c0.353 0 0.63-0.277 0.63-0.605v-8.466c0-0.353-0.277-0.63-0.63-0.63s-0.63 0.277-0.63 0.63v8.466c0 0.328 0.277 0.605 0.63 0.605z"></path>
<path fill="#f4efef" style="fill: var(--color3, #f4efef)" d="M17.134 18.633c0.353 0 0.63-0.277 0.63-0.605v-8.466c0-0.353-0.277-0.63-0.63-0.63s-0.63 0.277-0.63 0.63v8.466c0 0.328 0.277 0.605 0.63 0.605z"></path>
<path fill="#f4efef" style="fill: var(--color3, #f4efef)" d="M13.858 17.121c0.353 0 0.63-0.277 0.63-0.605v-6.98c0-0.353-0.277-0.63-0.63-0.63s-0.63 0.277-0.63 0.63v6.98c0 0.328 0.277 0.605 0.63 0.605z"></path>
<path fill="#f4efef" style="fill: var(--color3, #f4efef)" d="M11.213 9.537c0-0.353-0.151-0.63-0.504-0.63s-0.504 0.277-0.504 0.63v2.746c0 0.353 0.151 0.63 0.504 0.63s0.504-0.277 0.504-0.63v-2.746z"></path>
<path fill="#7d8b95" style="fill: var(--color1, #7d8b95)" d="M10.835 24.857c-1.512 0-2.721 1.209-2.721 2.721s1.209 2.721 2.721 2.721 2.721-1.209 2.721-2.721c0-1.487-1.209-2.721-2.721-2.721z"></path>
<path fill="#7d8b95" style="fill: var(--color1, #7d8b95)" d="M29.027 30.324c1.512 0 2.721-1.209 2.721-2.721s-1.209-2.721-2.721-2.721-2.721 1.209-2.721 2.721c0 1.487 1.209 2.721 2.721 2.721z"></path>
<path fill="#2d414e" style="fill: var(--color4, #2d414e)" d="M5.115 6.085v0c-0.302 0-0.454 0.328-0.454 0.605v0.252c0 0.277 0.176 0.428 0.454 0.428h25.902c0.277 0 0.378-0.151 0.378-0.428v-0.252c0-0.277-0.101-0.605-0.378-0.605h-25.676c-0.025 0-0.227 0-0.227 0z"></path>
<path fill="#f0b551" style="fill: var(--color13, #f0b551)" d="M15.118 22.387c-0.202 1.26 0.529 1.789 1.663 1.209l1.965-1.033 1.209-0.63 1.285 0.68 1.26 0.655 0.655 0.353c1.134 0.58 1.865 0.050 1.663-1.209l-0.63-3.528 0.806-0.781 1.512-1.487 0.756-1.487c-0.101-0.353-0.504-0.58-1.134-0.68l-2.016-0.252h-0.025v-0.101l-1.512-0.227-0.454-0.907-0.932-1.89-0.479-0.857c-0.554-0.68-1.285-0.529-1.764 0.454l-1.033 2.142-0.529 1.109-0.882 0.126-2.671 0.403c-1.26 0.176-1.537 1.058-0.63 1.94l1.713 1.638 0.882 0.857-0.176 1.033-0.504 2.469z"></path>
<path fill="#000" style="fill: var(--color6, #000)" d="M5.367 6.312c-0.101 0-0.176-0.050-0.227-0.151l-1.083-2.394c-0.202-0.428-0.277-0.58-1.184-0.58h-2.62c-0.151 0-0.252-0.101-0.252-0.252v-1.26c0-0.151 0.101-0.252 0.252-0.252h2.671c1.487 0 2.368 0.529 2.898 1.688l1.285 2.696c0.050 0.126 0 0.277-0.126 0.328s-0.277 0-0.328-0.126l-1.285-2.721c-0.454-0.983-1.184-1.386-2.444-1.386h-2.419v0.756h2.369c1.033 0 1.31 0.227 1.638 0.882l1.083 2.394c0.050 0.126 0 0.277-0.126 0.328-0.025 0.025-0.050 0.050-0.101 0.050z"></path>
<path fill="#000" style="fill: var(--color6, #000)" d="M30.261 21.077h-5.694c-0.151 0-0.252-0.101-0.252-0.252s0.101-0.252 0.252-0.252h5.694c0.277 0 0.479-0.63 0.479-1.209v-11.767c0-0.151 0.101-0.252 0.252-0.252s0.252 0.101 0.252 0.252v11.767c0 0.605-0.202 1.713-0.983 1.713z"></path>
<path fill="#000" style="fill: var(--color6, #000)" d="M15.244 21.077h-2.595c-0.68 0-1.386-0.605-1.638-1.184l-5.342-12.296c-0.050-0.126 0-0.277 0.126-0.328s0.277 0 0.328 0.126l5.342 12.296c0.176 0.403 0.731 0.882 1.184 0.882h2.595c0.151 0 0.252 0.101 0.252 0.252s-0.101 0.252-0.252 0.252z"></path>
<path fill="#000" style="fill: var(--color6, #000)" d="M10.835 30.576c-1.638 0-2.973-1.335-2.973-2.973s1.335-2.973 2.973-2.973 2.973 1.335 2.973 2.973c0 1.638-1.335 2.973-2.973 2.973zM10.835 25.109c-1.361 0-2.469 1.109-2.469 2.469s1.109 2.469 2.469 2.469 2.469-1.109 2.469-2.469-1.109-2.469-2.469-2.469z"></path>
<path fill="#000" style="fill: var(--color6, #000)" d="M10.835 29.317c-0.957 0-1.739-0.781-1.739-1.739s0.781-1.739 1.739-1.739c0.151 0 0.252 0.101 0.252 0.252s-0.101 0.252-0.252 0.252c-0.68 0-1.235 0.554-1.235 1.235s0.554 1.235 1.235 1.235 1.235-0.554 1.235-1.235c0-0.151 0.101-0.252 0.252-0.252s0.252 0.101 0.252 0.252c0 0.957-0.781 1.739-1.739 1.739z"></path>
<path fill="#000" style="fill: var(--color6, #000)" d="M29.027 30.576c-1.638 0-2.973-1.335-2.973-2.973s1.335-2.973 2.973-2.973 2.973 1.335 2.973 2.973c0 1.638-1.335 2.973-2.973 2.973zM29.027 25.109c-1.361 0-2.469 1.109-2.469 2.469s1.109 2.469 2.469 2.469 2.469-1.109 2.469-2.469-1.109-2.469-2.469-2.469z"></path>
<path fill="#000" style="fill: var(--color6, #000)" d="M29.027 29.317c-0.957 0-1.739-0.781-1.739-1.739s0.781-1.739 1.739-1.739c0.151 0 0.252 0.101 0.252 0.252s-0.101 0.252-0.252 0.252c-0.68 0-1.235 0.554-1.235 1.235s0.554 1.235 1.235 1.235c0.68 0 1.235-0.554 1.235-1.235 0-0.151 0.101-0.252 0.252-0.252s0.252 0.101 0.252 0.252c-0.025 0.957-0.781 1.739-1.739 1.739z"></path>
<path fill="#000" style="fill: var(--color6, #000)" d="M26.331 28.636h-12.85c-0.151 0-0.252-0.101-0.252-0.252s0.101-0.252 0.252-0.252h12.85c0.151 0 0.252 0.101 0.252 0.252s-0.101 0.252-0.252 0.252z"></path>
<path fill="#000" style="fill: var(--color6, #000)" d="M26.331 27.376h-12.598c-0.151 0-0.252-0.101-0.252-0.252s0.101-0.252 0.252-0.252h12.598c0.151 0 0.252 0.101 0.252 0.252s-0.101 0.252-0.252 0.252z"></path>
<path fill="#000" style="fill: var(--color6, #000)" d="M11.389 25.058c-0.025 0-0.076 0-0.101-0.025-0.126-0.050-0.176-0.202-0.126-0.328l1.688-3.931c0.050-0.126 0.202-0.176 0.328-0.126s0.176 0.202 0.126 0.328l-1.688 3.931c-0.050 0.101-0.126 0.151-0.227 0.151z"></path>
<path fill="#000" style="fill: var(--color6, #000)" d="M12.523 25.587c-0.025 0-0.076 0-0.101-0.025-0.126-0.050-0.176-0.202-0.126-0.328l1.94-4.46c0.050-0.126 0.202-0.176 0.328-0.126s0.176 0.202 0.126 0.328l-1.94 4.46c-0.050 0.101-0.126 0.151-0.227 0.151z"></path>
<path fill="#000" style="fill: var(--color6, #000)" d="M30.992 7.723h-25.953c-0.403 0-0.756-0.328-0.756-0.756v-0.252c0-0.403 0.328-0.756 0.756-0.756h25.953c0.403 0 0.756 0.328 0.756 0.756v0.252c0 0.428-0.328 0.756-0.756 0.756zM5.039 6.463c-0.126 0-0.252 0.101-0.252 0.252v0.252c0 0.126 0.101 0.252 0.252 0.252h25.953c0.126 0 0.252-0.101 0.252-0.252v-0.252c0-0.126-0.101-0.252-0.252-0.252h-25.953z"></path>
<path fill="#000" style="fill: var(--color6, #000)" d="M15.924 24.101c-0.252 0-0.454-0.076-0.655-0.202-0.403-0.277-0.554-0.831-0.428-1.537l0.58-3.427-2.495-2.394-0.101-0.101c-0.428-0.454-0.58-0.957-0.454-1.386 0.151-0.454 0.63-0.781 1.335-0.882l2.671-0.403 0.756-0.101 1.537-3.124c0.328-0.655 0.756-1.008 1.26-1.008v0c0.479 0 0.932 0.353 1.26 0.983l1.537 3.099 3.427 0.479c0.706 0.101 1.184 0.403 1.335 0.882 0.151 0.454-0.050 1.008-0.554 1.512l-2.469 2.419 0.605 3.427c0.126 0.706-0.025 1.26-0.428 1.537s-0.957 0.277-1.587-0.076l-3.074-1.613-3.074 1.613c-0.353 0.202-0.68 0.302-0.983 0.302zM13.279 16.139l2.62 2.545c0.050 0.050 0.076 0.151 0.076 0.227l-0.605 3.553c-0.076 0.504 0 0.882 0.227 1.058s0.63 0.126 1.058-0.101l3.175-1.688c0.076-0.050 0.151-0.050 0.227 0l3.2 1.663c0.454 0.227 0.831 0.277 1.058 0.101s0.302-0.554 0.227-1.058l-0.63-3.553c-0.025-0.076 0-0.176 0.076-0.227l2.57-2.52c0.353-0.353 0.529-0.706 0.428-0.983s-0.428-0.454-0.932-0.529l-3.553-0.504c-0.076 0-0.151-0.076-0.202-0.126l-1.613-3.225c-0.227-0.454-0.529-0.706-0.806-0.706v0c-0.277 0-0.58 0.252-0.806 0.731l-1.587 3.225c-0.025 0.076-0.101 0.126-0.202 0.126l-3.553 0.529c-0.504 0.076-0.832 0.277-0.932 0.529-0.025 0.227 0.126 0.58 0.479 0.932z"></path>
<path fill="#000" style="fill: var(--color6, #000)" d="M16.63 14.148c-0.151 0-0.252-0.101-0.252-0.252v-4.384c0-0.479 0.403-0.882 0.882-0.882s0.882 0.378 0.882 0.882v3.124c0 0.151-0.101 0.252-0.252 0.252s-0.252-0.101-0.252-0.252v-3.124c0-0.202-0.176-0.378-0.378-0.378s-0.378 0.176-0.378 0.378v4.384c0 0.151-0.101 0.252-0.252 0.252z"></path>
<path fill="#000" style="fill: var(--color6, #000)" d="M13.354 14.652c-0.151 0-0.252-0.101-0.252-0.252v-4.888c0-0.479 0.403-0.882 0.882-0.882s0.882 0.378 0.882 0.882v4.636c0 0.151-0.101 0.252-0.252 0.252s-0.252-0.101-0.252-0.252v-4.636c0-0.202-0.176-0.378-0.378-0.378s-0.378 0.176-0.378 0.378v4.888c0 0.151-0.101 0.252-0.252 0.252z"></path>
<path fill="#000" style="fill: var(--color6, #000)" d="M10.709 13.317c-0.479 0-0.882-0.378-0.882-0.882v-2.923c0-0.479 0.403-0.882 0.882-0.882s0.882 0.378 0.882 0.882v2.923c0 0.504-0.403 0.882-0.882 0.882zM10.709 9.159c-0.202 0-0.378 0.176-0.378 0.378v2.923c0 0.202 0.176 0.378 0.378 0.378s0.378-0.176 0.378-0.378v-2.923c0-0.227-0.176-0.378-0.378-0.378z"></path>
<path fill="#000" style="fill: var(--color6, #000)" d="M21.669 12.132c-0.151 0-0.252-0.101-0.252-0.252v-2.368c0-0.202-0.176-0.378-0.378-0.378s-0.378 0.176-0.378 0.378v0.353c0 0.151-0.101 0.252-0.252 0.252s-0.252-0.101-0.252-0.252v-0.353c0-0.479 0.403-0.882 0.882-0.882s0.882 0.378 0.882 0.882v2.369c0 0.151-0.101 0.252-0.252 0.252z"></path>
<path fill="#000" style="fill: var(--color6, #000)" d="M25.197 14.4c-0.151 0-0.252-0.101-0.252-0.252v-4.636c0-0.202-0.176-0.378-0.378-0.378s-0.378 0.176-0.378 0.378v4.384c0 0.151-0.101 0.252-0.252 0.252s-0.252-0.101-0.252-0.252v-4.384c0-0.479 0.403-0.882 0.882-0.882s0.882 0.378 0.882 0.882v4.636c0 0.151-0.101 0.252-0.252 0.252z"></path>
<path fill="#000" style="fill: var(--color6, #000)" d="M28.095 18.86c-0.479 0-0.882-0.378-0.882-0.882v-8.466c0-0.479 0.403-0.882 0.882-0.882s0.882 0.378 0.882 0.882v8.466c0 0.504-0.403 0.882-0.882 0.882zM28.095 9.159c-0.202 0-0.378 0.176-0.378 0.378v8.466c0 0.202 0.176 0.378 0.378 0.378s0.378-0.176 0.378-0.378v-8.466c0-0.227-0.176-0.378-0.378-0.378z"></path>
</symbol>
<symbol id="icon-cart-col-upl" viewBox="0 0 32 32">
<path fill="#7d8b95" style="fill: var(--color1, #7d8b95)" d="M4.032 4.129l1.083 2.394h1.512l-1.285-2.847c-0.454-1.008-1.209-1.688-2.671-1.688h-2.293v1.26h2.243c0.957 0 1.159 0.328 1.411 0.882z"></path>
<path fill="#efdc81" style="fill: var(--color2, #efdc81)" d="M12.397 21.137h17.613c0.554 0 1.109-0.454 1.109-1.008v-12.346h-25.449l5.342 12.372c0.202 0.504 0.832 0.983 1.386 0.983z"></path>
<path fill="#f4efef" style="fill: var(--color3, #f4efef)" d="M24.441 19.121c0.353 0 0.63-0.277 0.63-0.63v-8.466c0-0.353-0.277-0.63-0.63-0.63s-0.63 0.277-0.63 0.63v8.466c0 0.353 0.277 0.63 0.63 0.63z"></path>
<path fill="#f4efef" style="fill: var(--color3, #f4efef)" d="M28.22 19.121c0.353 0 0.63-0.277 0.63-0.63v-8.466c0-0.353-0.277-0.63-0.63-0.63s-0.63 0.277-0.63 0.63v8.466c0 0.353 0.277 0.63 0.63 0.63z"></path>
<path fill="#f4efef" style="fill: var(--color3, #f4efef)" d="M20.913 19.121c0.353 0 0.63-0.277 0.63-0.63v-3.402h-1.26v3.427c0 0.328 0.277 0.605 0.63 0.605z"></path>
<path fill="#f4efef" style="fill: var(--color3, #f4efef)" d="M17.134 19.121c0.353 0 0.63-0.277 0.63-0.63v-3.402h-1.26v3.427c0 0.328 0.277 0.605 0.63 0.605z"></path>
<path fill="#f4efef" style="fill: var(--color3, #f4efef)" d="M13.858 19.121c0.353 0 0.63-0.277 0.63-0.63v-3.402l-1.26 0.025v3.402c0 0.328 0.277 0.605 0.63 0.605z"></path>
<path fill="#f4efef" style="fill: var(--color3, #f4efef)" d="M11.213 10.025c0-0.353-0.151-0.63-0.504-0.63s-0.504 0.277-0.504 0.63v2.746c0 0.353 0.151 0.63 0.504 0.63s0.504-0.277 0.504-0.63v-2.746z"></path>
<path fill="#7d8b95" style="fill: var(--color1, #7d8b95)" d="M10.835 25.37c-1.512 0-2.721 1.209-2.721 2.721s1.209 2.721 2.721 2.721 2.721-1.209 2.721-2.721c0-1.512-1.209-2.721-2.721-2.721z"></path>
<path fill="#7d8b95" style="fill: var(--color1, #7d8b95)" d="M29.027 30.813c1.512 0 2.721-1.209 2.721-2.721s-1.209-2.721-2.721-2.721-2.721 1.209-2.721 2.721 1.209 2.721 2.721 2.721z"></path>
<path fill="#2d414e" style="fill: var(--color4, #2d414e)" d="M11.817 6.523h-6.728c-0.277 0-0.454 0.378-0.454 0.655v0.252c0 0.277 0.176 0.353 0.454 0.353h6.098l0.63-1.26z"></path>
<path fill="#2d414e" style="fill: var(--color4, #2d414e)" d="M31.244 6.523h-6.778l0.857 1.26h5.946c0.277 0 0.378-0.076 0.378-0.353v-0.252c-0.025-0.277-0.126-0.655-0.403-0.655z"></path>
<path fill="#df5c4e" style="fill: var(--color5, #df5c4e)" d="M18.318 1.080l-5.493 6.702h2.167v6.047h6.551v-6.047h2.268z"></path>
<path fill="#000" style="fill: var(--color6, #000)" d="M17.26 19.373c-0.479 0-0.882-0.378-0.882-0.882v-3.553c0-0.151 0.101-0.252 0.252-0.252h1.26c0.151 0 0.252 0.101 0.252 0.252v3.553c0 0.504-0.403 0.882-0.882 0.882zM16.882 15.216v3.301c0 0.202 0.176 0.378 0.378 0.378s0.378-0.176 0.378-0.378v-3.301h-0.756z"></path>
<path fill="#000" style="fill: var(--color6, #000)" d="M13.984 19.373c-0.479 0-0.882-0.378-0.882-0.882v-3.553c0-0.151 0.101-0.252 0.252-0.252h1.26c0.151 0 0.252 0.101 0.252 0.252v3.553c0 0.504-0.403 0.882-0.882 0.882zM13.606 15.216v3.301c0 0.202 0.176 0.378 0.378 0.378s0.378-0.176 0.378-0.378v-3.301h-0.756z"></path>
<path fill="#000" style="fill: var(--color6, #000)" d="M10.709 13.83c-0.479 0-0.882-0.378-0.882-0.882v-2.923c0-0.479 0.403-0.882 0.882-0.882s0.882 0.378 0.882 0.882v2.923c0 0.504-0.403 0.882-0.882 0.882zM10.709 9.672c-0.202 0-0.378 0.176-0.378 0.378v2.923c0 0.202 0.176 0.378 0.378 0.378s0.378-0.176 0.378-0.378v-2.923c0-0.202-0.176-0.378-0.378-0.378z"></path>
<path fill="#000" style="fill: var(--color6, #000)" d="M21.039 19.373c-0.479 0-0.882-0.378-0.882-0.882v-3.553c0-0.151 0.101-0.252 0.252-0.252h1.26c0.151 0 0.252 0.101 0.252 0.252v3.553c0 0.504-0.403 0.882-0.882 0.882zM20.661 15.216v3.301c0 0.202 0.176 0.378 0.378 0.378s0.378-0.176 0.378-0.378v-3.301h-0.756z"></path>
<path fill="#000" style="fill: var(--color6, #000)" d="M24.567 19.373c-0.479 0-0.882-0.378-0.882-0.882v-8.466c0-0.479 0.403-0.882 0.882-0.882s0.882 0.378 0.882 0.882v8.466c0 0.504-0.403 0.882-0.882 0.882zM24.567 9.672c-0.202 0-0.378 0.176-0.378 0.378v8.466c0 0.202 0.176 0.378 0.378 0.378s0.378-0.176 0.378-0.378v-8.466c0-0.202-0.176-0.378-0.378-0.378z"></path>
<path fill="#000" style="fill: var(--color6, #000)" d="M28.095 19.373c-0.479 0-0.882-0.378-0.882-0.882v-8.466c0-0.479 0.403-0.882 0.882-0.882s0.882 0.378 0.882 0.882v8.466c0 0.504-0.403 0.882-0.882 0.882zM28.095 9.672c-0.202 0-0.378 0.176-0.378 0.378v8.466c0 0.202 0.176 0.378 0.378 0.378s0.378-0.176 0.378-0.378v-8.466c0-0.202-0.176-0.378-0.378-0.378z"></path>
<path fill="#000" style="fill: var(--color6, #000)" d="M5.367 6.775c-0.101 0-0.176-0.050-0.227-0.151l-1.083-2.394c-0.202-0.428-0.302-0.605-1.184-0.605h-2.62c-0.151 0-0.252-0.101-0.252-0.252v-1.26c0-0.151 0.101-0.252 0.252-0.252h2.671c1.461 0 2.368 0.554 2.898 1.713l1.285 2.746c0.050 0.126 0 0.277-0.126 0.328s-0.277 0-0.328-0.126l-1.285-2.746c-0.454-1.008-1.184-1.436-2.444-1.436h-2.419v0.756h2.369c1.008 0 1.31 0.227 1.638 0.907l1.083 2.394c0.050 0.126 0 0.277-0.126 0.328-0.025 0.050-0.050 0.050-0.101 0.050z"></path>
<path fill="#000" style="fill: var(--color6, #000)" d="M10.961 8.161h-5.72c-0.403 0-0.957-0.428-0.957-0.857v-0.252c0-0.428 0.479-0.655 0.957-0.655h6.476c0.151 0 0.252 0.101 0.252 0.252s-0.101 0.252-0.252 0.252h-6.476c-0.227 0-0.428 0.101-0.454 0.151v0.252c0 0.101 0.277 0.353 0.454 0.353h5.72c0.151 0 0.252 0.101 0.252 0.252s-0.101 0.252-0.252 0.252z"></path>
<path fill="#000" style="fill: var(--color6, #000)" d="M31.118 8.161h-5.543c-0.151 0-0.252-0.101-0.252-0.252s0.101-0.252 0.252-0.252h5.543c0.050 0 0.126-0.151 0.126-0.353v-0.252c0-0.101 0-0.151-0.176-0.151h-6.249c-0.151 0-0.252-0.101-0.252-0.252s0.101-0.252 0.252-0.252h6.249c0.428 0 0.68 0.252 0.68 0.655v0.252c0 0.504-0.252 0.857-0.63 0.857z"></path>
<path fill="#000" style="fill: var(--color6, #000)" d="M30.261 21.515h-17.613c-0.68 0-1.461-0.756-1.688-1.31l-5.165-12.019c-0.050-0.126 0-0.277 0.126-0.328s0.277 0 0.328 0.126l5.165 12.019c0.202 0.454 0.806 1.008 1.235 1.008h17.613c0.328 0 0.479-0.655 0.479-1.134v-11.843c0-0.151 0.101-0.252 0.252-0.252s0.252 0.101 0.252 0.252v11.843c0 0.781-0.302 1.638-0.983 1.638z"></path>
<path fill="#000" style="fill: var(--color6, #000)" d="M10.835 31.065c-1.638 0-2.973-1.335-2.973-2.973s1.335-2.973 2.973-2.973 2.973 1.335 2.973 2.973-1.335 2.973-2.973 2.973zM10.835 25.622c-1.361 0-2.469 1.109-2.469 2.469s1.109 2.469 2.469 2.469 2.469-1.109 2.469-2.469-1.109-2.469-2.469-2.469z"></path>
<path fill="#000" style="fill: var(--color6, #000)" d="M10.835 29.805c-0.957 0-1.739-0.781-1.739-1.739s0.781-1.739 1.739-1.739c0.151 0 0.252 0.101 0.252 0.252s-0.101 0.252-0.252 0.252c-0.68 0-1.235 0.554-1.235 1.235s0.554 1.235 1.235 1.235 1.235-0.554 1.235-1.235c0-0.151 0.101-0.252 0.252-0.252s0.252 0.101 0.252 0.252c0 0.983-0.781 1.739-1.739 1.739z"></path>
<path fill="#000" style="fill: var(--color6, #000)" d="M29.027 31.065c-1.638 0-2.973-1.335-2.973-2.973s1.335-2.973 2.973-2.973 2.973 1.335 2.973 2.973-1.335 2.973-2.973 2.973zM29.027 25.622c-1.361 0-2.469 1.109-2.469 2.469s1.109 2.469 2.469 2.469 2.469-1.109 2.469-2.469-1.109-2.469-2.469-2.469z"></path>
<path fill="#000" style="fill: var(--color6, #000)" d="M29.027 29.805c-0.957 0-1.739-0.781-1.739-1.739s0.781-1.739 1.739-1.739c0.151 0 0.252 0.101 0.252 0.252s-0.101 0.252-0.252 0.252c-0.68 0-1.235 0.554-1.235 1.235s0.554 1.235 1.235 1.235c0.68 0 1.235-0.554 1.235-1.235 0-0.151 0.101-0.252 0.252-0.252s0.252 0.101 0.252 0.252c-0.025 0.983-0.781 1.739-1.739 1.739z"></path>
<path fill="#000" style="fill: var(--color6, #000)" d="M26.331 29.074h-12.85c-0.151 0-0.252-0.101-0.252-0.252s0.101-0.252 0.252-0.252h12.85c0.151 0 0.252 0.101 0.252 0.252s-0.101 0.252-0.252 0.252z"></path>
<path fill="#000" style="fill: var(--color6, #000)" d="M26.331 27.814h-12.598c-0.151 0-0.252-0.101-0.252-0.252s0.101-0.252 0.252-0.252h12.598c0.151 0 0.252 0.101 0.252 0.252s-0.101 0.252-0.252 0.252z"></path>
<path fill="#000" style="fill: var(--color6, #000)" d="M12.523 26.076c-0.025 0-0.076 0-0.101-0.025-0.126-0.050-0.176-0.202-0.126-0.328l1.94-4.51c0.050-0.126 0.202-0.176 0.328-0.126s0.176 0.202 0.126 0.328l-1.94 4.51c-0.050 0.101-0.126 0.151-0.227 0.151z"></path>
<path fill="#000" style="fill: var(--color6, #000)" d="M11.389 25.572c-0.025 0-0.076 0-0.101-0.025-0.126-0.050-0.176-0.202-0.126-0.328l1.663-3.88c0.050-0.126 0.202-0.176 0.328-0.126s0.176 0.202 0.126 0.328l-1.663 3.88c-0.050 0.076-0.126 0.151-0.227 0.151z"></path>
<path fill="#000" style="fill: var(--color6, #000)" d="M21.417 14.208h-6.551c-0.151 0-0.252-0.101-0.252-0.252v-5.795h-1.789c-0.101 0-0.176-0.050-0.227-0.151-0.050-0.076-0.025-0.202 0.025-0.277l5.493-6.702c0.101-0.126 0.302-0.126 0.378 0l5.493 6.702c0.050 0.076 0.076 0.176 0.025 0.277-0.050 0.076-0.126 0.151-0.227 0.151h-2.142v5.795c0.025 0.151-0.076 0.252-0.227 0.252zM15.118 13.704h6.047v-5.795c0-0.151 0.101-0.252 0.252-0.252h1.865l-4.964-6.047-4.964 6.047h1.487c0.151 0 0.252 0.101 0.252 0.252v5.795h0.025z"></path>
</symbol>
<symbol id="icon-cart-col-warn" viewBox="0 0 32 32">
<path fill="#7d8b95" style="fill: var(--color1, #7d8b95)" d="M4.032 3.767l1.083 2.394h1.512l-1.285-2.847c-0.454-1.008-1.209-1.688-2.671-1.688h-2.293v1.26h2.243c0.957 0 1.159 0.328 1.411 0.882z"></path>
<path fill="#efdc81" style="fill: var(--color2, #efdc81)" d="M12.649 20.523h17.613c0.554 0 1.109-0.428 1.109-0.957v-12.397h-25.449l5.342 12.372c0.202 0.504 0.832 0.983 1.386 0.983z"></path>
<path fill="#f4efef" style="fill: var(--color3, #f4efef)" d="M24.693 18.809c0.353 0 0.63-0.277 0.63-0.63v-8.466c0-0.353-0.277-0.63-0.63-0.63s-0.63 0.277-0.63 0.63v8.466c0 0.353 0.277 0.63 0.63 0.63z"></path>
<path fill="#f4efef" style="fill: var(--color3, #f4efef)" d="M28.22 18.809c0.353 0 0.63-0.277 0.63-0.63v-8.466c0-0.353-0.277-0.63-0.63-0.63s-0.63 0.277-0.63 0.63v8.466c0 0.353 0.277 0.63 0.63 0.63z"></path>
<path fill="#f4efef" style="fill: var(--color3, #f4efef)" d="M20.913 18.809c0.353 0 0.63-0.277 0.63-0.63v-8.466c0-0.353-0.277-0.63-0.63-0.63s-0.63 0.277-0.63 0.63v8.466c0 0.353 0.277 0.63 0.63 0.63z"></path>
<path fill="#f4efef" style="fill: var(--color3, #f4efef)" d="M17.386 18.809c0.353 0 0.63-0.277 0.63-0.63v-8.466c0-0.353-0.277-0.63-0.63-0.63s-0.63 0.277-0.63 0.63v8.466c0 0.353 0.277 0.63 0.63 0.63z"></path>
<path fill="#f4efef" style="fill: var(--color3, #f4efef)" d="M13.858 18.809c0.353 0 0.63-0.277 0.63-0.63v-8.466c0-0.353-0.277-0.63-0.63-0.63s-0.63 0.277-0.63 0.63v8.466c0 0.353 0.277 0.63 0.63 0.63z"></path>
<path fill="#f4efef" style="fill: var(--color3, #f4efef)" d="M11.213 9.713c0-0.353-0.151-0.63-0.504-0.63s-0.504 0.277-0.504 0.63v2.746c0 0.353 0.151 0.605 0.504 0.605s0.504-0.277 0.504-0.605v-2.746z"></path>
<path fill="#7d8b95" style="fill: var(--color1, #7d8b95)" d="M10.835 25.058c-1.512 0-2.721 1.209-2.721 2.721s1.209 2.721 2.721 2.721 2.721-1.209 2.721-2.721-1.209-2.721-2.721-2.721z"></path>
<path fill="#7d8b95" style="fill: var(--color1, #7d8b95)" d="M29.027 30.501c1.512 0 2.721-1.209 2.721-2.721s-1.209-2.721-2.721-2.721-2.721 1.209-2.721 2.721c0 1.512 1.209 2.721 2.721 2.721z"></path>
<path fill="#2d414e" style="fill: var(--color4, #2d414e)" d="M5.115 5.909v0c-0.302 0-0.454 0.428-0.454 0.705v0.252c0 0.277 0.176 0.302 0.454 0.302h25.902c0.277 0 0.378-0.025 0.378-0.302v-0.252c0-0.277-0.101-0.705-0.378-0.705h-25.902z"></path>
<path fill="#f0b551" style="fill: var(--color13, #f0b551)" d="M12.624 21.556c-0.68 1.109-0.176 1.991 1.134 1.991h12.548c1.31 0 1.814-0.907 1.134-1.991l-6.299-9.953-0.378-0.479c-0.655-0.479-1.461-0.302-1.991 0.554l-6.148 9.877z"></path>
<path fill="#000" style="fill: var(--color6, #000)" d="M5.291 6.211c-0.101 0-0.202-0.050-0.227-0.151l-1.008-2.293c-0.252-0.504-0.378-0.756-1.184-0.756h-2.62c-0.151 0-0.252-0.101-0.252-0.252v-1.26c0-0.151 0.101-0.252 0.252-0.252h2.671c1.386 0 2.343 0.605 2.898 1.865l1.209 2.696c0.050 0.126 0 0.277-0.126 0.328s-0.277 0-0.328-0.126l-1.209-2.696c-0.479-1.083-1.235-1.562-2.444-1.562h-2.419v0.756h2.369c1.134 0 1.361 0.504 1.638 1.058l1.008 2.293c0.050 0.126 0 0.277-0.126 0.328-0.025 0.025-0.076 0.025-0.101 0.025z"></path>
<path fill="#000" style="fill: var(--color6, #000)" d="M30.261 20.901h-3.175c-0.151 0-0.252-0.101-0.252-0.252s0.101-0.252 0.252-0.252h3.175c0.428 0 0.479-0.58 0.479-0.831v-12.145c0-0.151 0.101-0.252 0.252-0.252s0.252 0.101 0.252 0.252v12.145c0 0.831-0.378 1.335-0.983 1.335z"></path>
<path fill="#000" style="fill: var(--color6, #000)" d="M12.976 20.901h-0.328c-0.655 0-1.386-0.479-1.663-1.083l-5.367-12.296c-0.050-0.126 0-0.277 0.126-0.328s0.277 0 0.328 0.126l5.367 12.296c0.176 0.403 0.756 0.781 1.184 0.781h0.328c0.151 0 0.252 0.101 0.252 0.252s-0.076 0.252-0.227 0.252z"></path>
<path fill="#000" style="fill: var(--color6, #000)" d="M10.835 30.753c-1.638 0-2.973-1.335-2.973-2.973s1.335-2.973 2.973-2.973 2.973 1.335 2.973 2.973c0 1.638-1.335 2.973-2.973 2.973zM10.835 25.31c-1.361 0-2.469 1.109-2.469 2.469s1.109 2.469 2.469 2.469 2.469-1.109 2.469-2.469-1.109-2.469-2.469-2.469z"></path>
<path fill="#000" style="fill: var(--color6, #000)" d="M10.835 29.493c-0.957 0-1.739-0.781-1.739-1.739s0.781-1.739 1.739-1.739c0.151 0 0.252 0.101 0.252 0.252s-0.101 0.252-0.252 0.252c-0.68 0-1.235 0.554-1.235 1.235s0.554 1.235 1.235 1.235 1.235-0.554 1.235-1.235c0-0.151 0.101-0.252 0.252-0.252s0.252 0.101 0.252 0.252c0 0.983-0.781 1.739-1.739 1.739z"></path>
<path fill="#000" style="fill: var(--color6, #000)" d="M29.027 30.753c-1.638 0-2.973-1.335-2.973-2.973s1.335-2.973 2.973-2.973 2.973 1.335 2.973 2.973c0 1.638-1.335 2.973-2.973 2.973zM29.027 25.31c-1.361 0-2.469 1.109-2.469 2.469s1.109 2.469 2.469 2.469 2.469-1.109 2.469-2.469-1.109-2.469-2.469-2.469z"></path>
<path fill="#000" style="fill: var(--color6, #000)" d="M29.027 29.493c-0.957 0-1.739-0.781-1.739-1.739s0.781-1.739 1.739-1.739c0.151 0 0.252 0.101 0.252 0.252s-0.101 0.252-0.252 0.252c-0.68 0-1.235 0.554-1.235 1.235s0.554 1.235 1.235 1.235c0.68 0 1.235-0.554 1.235-1.235 0-0.151 0.101-0.252 0.252-0.252s0.252 0.101 0.252 0.252c-0.025 0.983-0.781 1.739-1.739 1.739z"></path>
<path fill="#000" style="fill: var(--color6, #000)" d="M26.331 28.712h-12.85c-0.151 0-0.252-0.101-0.252-0.252s0.101-0.252 0.252-0.252h12.85c0.151 0 0.252 0.101 0.252 0.252s-0.101 0.252-0.252 0.252z"></path>
<path fill="#000" style="fill: var(--color6, #000)" d="M26.331 27.452h-12.598c-0.151 0-0.252-0.101-0.252-0.252s0.101-0.252 0.252-0.252h12.598c0.151 0 0.252 0.101 0.252 0.252s-0.101 0.252-0.252 0.252z"></path>
<path fill="#000" style="fill: var(--color6, #000)" d="M11.389 25.26c-0.025 0-0.076 0-0.101-0.025-0.126-0.050-0.176-0.202-0.126-0.328l0.932-2.192c0.050-0.126 0.202-0.176 0.328-0.126s0.176 0.202 0.126 0.328l-0.932 2.192c-0.050 0.076-0.126 0.151-0.227 0.151z"></path>
<path fill="#000" style="fill: var(--color6, #000)" d="M12.523 25.764c-0.025 0-0.076 0-0.101-0.025-0.126-0.050-0.176-0.202-0.126-0.328l0.731-1.713c0.050-0.126 0.202-0.176 0.328-0.126s0.176 0.202 0.126 0.328l-0.731 1.713c-0.050 0.101-0.126 0.151-0.227 0.151z"></path>
<path fill="#000" style="fill: var(--color6, #000)" d="M30.992 7.546h-25.953c-0.403 0-0.756-0.328-0.756-0.756v-0.252c0-0.403 0.328-0.756 0.756-0.756h25.953c0.403 0 0.756 0.328 0.756 0.756v0.252c0 0.428-0.328 0.756-0.756 0.756zM5.039 6.287c-0.126 0-0.252 0.101-0.252 0.252v0.252c0 0.126 0.101 0.252 0.252 0.252h25.953c0.126 0 0.252-0.101 0.252-0.252v-0.252c0-0.126-0.101-0.252-0.252-0.252h-25.953z"></path>
<path fill="#000" style="fill: var(--color6, #000)" d="M26.305 23.924h-12.548c-0.68 0-1.235-0.277-1.512-0.781s-0.227-1.184 0.176-1.814l6.123-9.953c0.403-0.63 0.957-1.008 1.512-1.008v0c0.554 0 1.058 0.328 1.411 0.907l1.512 2.419 4.661 7.635c0.403 0.63 0.454 1.285 0.176 1.814-0.277 0.504-0.806 0.781-1.512 0.781zM20.082 10.898v0c-0.403 0-0.806 0.277-1.083 0.756l-6.123 9.953c-0.302 0.479-0.353 0.957-0.151 1.285 0.176 0.328 0.554 0.504 1.083 0.504h12.548c0.504 0 0.882-0.176 1.083-0.504 0.202-0.353 0.126-0.831-0.151-1.285l-4.661-7.635-1.512-2.419c-0.328-0.403-0.68-0.655-1.033-0.655z"></path>
<path fill="#000" style="fill: var(--color6, #000)" d="M20.157 19.263c-0.151 0-0.252-0.101-0.252-0.252v-5.039c0-0.151 0.101-0.252 0.252-0.252s0.252 0.101 0.252 0.252v5.039c0 0.151-0.101 0.252-0.252 0.252z"></path>
<path fill="#000" style="fill: var(--color6, #000)" d="M20.157 21.128c-0.076 0-0.126-0.025-0.176-0.076s-0.076-0.126-0.076-0.176c0-0.076 0.025-0.126 0.076-0.176 0.101-0.101 0.252-0.101 0.353 0 0.050 0.050 0.076 0.101 0.076 0.176s-0.025 0.126-0.076 0.176c-0.050 0.050-0.101 0.076-0.176 0.076z"></path>
<path fill="#000" style="fill: var(--color6, #000)" d="M16.63 14.98c-0.151 0-0.252-0.101-0.252-0.252v-4.989c0-0.479 0.403-0.882 0.882-0.882s0.882 0.378 0.882 0.882v2.973c0 0.151-0.101 0.252-0.252 0.252s-0.252-0.101-0.252-0.252v-2.973c0-0.202-0.176-0.378-0.378-0.378s-0.378 0.176-0.378 0.378v4.989c0 0.151-0.101 0.252-0.252 0.252z"></path>
<path fill="#000" style="fill: var(--color6, #000)" d="M13.984 19.087c-0.479 0-0.882-0.378-0.882-0.857v-8.466c0-0.479 0.403-0.882 0.882-0.882s0.882 0.378 0.882 0.882v8.239c0 0.151-0.101 0.252-0.252 0.252s-0.252-0.101-0.252-0.252v-8.265c0-0.202-0.176-0.378-0.378-0.378s-0.378 0.176-0.378 0.378v8.466c0 0.202 0.176 0.353 0.378 0.353 0.151 0 0.252 0.101 0.252 0.252s-0.101 0.277-0.252 0.277z"></path>
<path fill="#000" style="fill: var(--color6, #000)" d="M10.709 13.543c-0.479 0-0.882-0.378-0.882-0.882v-2.923c0-0.479 0.403-0.882 0.882-0.882s0.882 0.378 0.882 0.882v2.923c0 0.479-0.403 0.882-0.882 0.882zM10.709 9.361c-0.202 0-0.378 0.176-0.378 0.378v2.923c0 0.202 0.176 0.378 0.378 0.378s0.378-0.176 0.378-0.353v-2.923c0-0.227-0.176-0.403-0.378-0.403z"></path>
<path fill="#000" style="fill: var(--color6, #000)" d="M21.669 12.208c-0.151 0-0.252-0.101-0.252-0.252v-2.217c0-0.202-0.176-0.378-0.378-0.378s-0.378 0.176-0.378 0.378v0.706c0 0.151-0.101 0.252-0.252 0.252s-0.252-0.101-0.252-0.252v-0.706c0-0.479 0.403-0.882 0.882-0.882s0.882 0.378 0.882 0.882v2.217c0 0.151-0.101 0.252-0.252 0.252z"></path>
<path fill="#000" style="fill: var(--color6, #000)" d="M25.197 17.751c-0.151 0-0.252-0.101-0.252-0.252v-7.761c0-0.202-0.176-0.378-0.378-0.378s-0.378 0.176-0.378 0.378v5.745c0 0.151-0.101 0.252-0.252 0.252s-0.252-0.101-0.252-0.252v-5.745c0-0.479 0.403-0.882 0.882-0.882s0.882 0.378 0.882 0.882v7.761c0 0.151-0.101 0.252-0.252 0.252z"></path>
<path fill="#000" style="fill: var(--color6, #000)" d="M28.095 19.087c-0.479 0-0.882-0.378-0.882-0.882v-8.466c0-0.479 0.403-0.882 0.882-0.882s0.882 0.378 0.882 0.882v8.466c0 0.479-0.403 0.882-0.882 0.882zM28.095 9.361c-0.202 0-0.378 0.176-0.378 0.378v8.466c0 0.202 0.176 0.378 0.378 0.378s0.378-0.176 0.378-0.378v-8.466c0-0.202-0.176-0.378-0.378-0.378z"></path>
</symbol>
</defs>
</svg>
