<svg xmlns="http://www.w3.org/2000/svg" aria-hidden="true" style="position:absolute;width:0;height:0;overflow:hidden"><defs><symbol id="icon-cart-col-cross" viewBox="0 0 32 32"><path fill="#7d8b95" d="m4.032 3.641 1.083 2.394h1.512L5.342 3.188C4.888 2.18 4.133 1.5 2.671 1.5H.378v1.26h2.243c.957 0 1.159.328 1.411.882z" style="fill:var(--color1, #7d8b95)"/><path fill="#efdc81" d="M12.397 20.901H30.01c.554 0 1.109-.403 1.109-.957V7.547H5.67l5.342 12.372c.202.504.832.983 1.386.983z" style="fill:var(--color2, #efdc81)"/><path fill="#f4efef" d="M24.693 18.683c.353 0 .63-.277.63-.605V9.612c0-.353-.277-.63-.63-.63s-.63.277-.63.63v8.466c0 .328.277.605.63.605zM28.22 18.683c.353 0 .63-.277.63-.605V9.612c0-.353-.277-.63-.63-.63s-.63.277-.63.63v8.466c0 .328.277.605.63.605zM21.165 18.683c.353 0 .63-.277.63-.605V9.612c0-.353-.277-.63-.63-.63s-.63.277-.63.63v8.466c0 .328.277.605.63.605zM17.386 18.683c.353 0 .63-.277.63-.605V9.612c0-.353-.277-.63-.63-.63s-.63.277-.63.63v8.466c0 .328.277.605.63.605zM14.11 18.683c.353 0 .63-.277.63-.605V9.612c0-.353-.277-.63-.63-.63s-.63.277-.63.63v8.466c0 .328.277.605.63.605zM11.213 9.613c0-.353-.151-.63-.504-.63s-.504.277-.504.63v2.746c0 .353.151.63.504.63s.504-.277.504-.63V9.613z" style="fill:var(--color3, #f4efef)"/><path fill="#7d8b95" d="M10.835 24.932c-1.512 0-2.721 1.209-2.721 2.721s1.209 2.721 2.721 2.721 2.721-1.209 2.721-2.721-1.209-2.721-2.721-2.721zM29.027 30.375c1.512 0 2.721-1.209 2.721-2.721s-1.209-2.721-2.721-2.721-2.721 1.209-2.721 2.721 1.209 2.721 2.721 2.721z" style="fill:var(--color1, #7d8b95)"/><path fill="#2d414e" d="M5.115 6.287c-.302 0-.454.428-.454.705v.252c0 .277.176.302.454.302h25.902c.277 0 .378-.025.378-.302v-.252c0-.277-.101-.705-.378-.705H5.115z" style="fill:var(--color4, #2d414e)"/><path fill="#df5c4e" d="M26.885 17.928a6.954 6.954 0 1 1-13.908 0 6.954 6.954 0 0 1 13.908 0z" style="fill:var(--color5, #df5c4e)"/><path d="M5.367 6.337c-.101 0-.176-.05-.227-.151L4.057 3.767c-.202-.428-.302-.63-1.184-.63H.253c-.151 0-.252-.101-.252-.252v-1.26c0-.151.101-.252.252-.252h2.671c1.436 0 2.368.554 2.898 1.739l1.285 2.772c.05.126 0 .277-.126.328s-.277 0-.328-.126L5.368 3.314c-.454-1.033-1.184-1.461-2.444-1.461H.505v.756h2.369c1.008 0 1.31.277 1.638.932L5.595 5.96c.05.126 0 .277-.126.328-.025.05-.05.05-.101.05zM30.261 21.027h-3.679c-.151 0-.252-.101-.252-.252s.101-.252.252-.252h3.679c.328 0 .479-.63.479-1.083V7.547c0-.151.101-.252.252-.252s.252.101.252.252V19.44c0 .781-.302 1.587-.983 1.587zM13.228 21.027h-.58c-.68 0-1.411-.605-1.638-1.159L5.719 7.648c-.05-.126 0-.277.126-.328s.277 0 .328.126l5.291 12.22c.202.428.756.857 1.184.857h.58c.151 0 .252.101.252.252s-.101.252-.252.252zM10.835 30.627c-1.638 0-2.973-1.335-2.973-2.973s1.335-2.973 2.973-2.973 2.973 1.335 2.973 2.973a2.978 2.978 0 0 1-2.973 2.973zm0-5.443c-1.361 0-2.469 1.109-2.469 2.469s1.109 2.469 2.469 2.469 2.469-1.109 2.469-2.469-1.109-2.469-2.469-2.469z" style="fill:var(--color6, #000)"/><path d="M10.835 29.392c-.957 0-1.739-.781-1.739-1.739s.781-1.739 1.739-1.739c.151 0 .252.101.252.252s-.101.252-.252.252c-.68 0-1.235.554-1.235 1.235s.554 1.235 1.235 1.235 1.235-.554 1.235-1.235c0-.151.101-.252.252-.252s.252.101.252.252c0 .957-.781 1.739-1.739 1.739zM29.027 30.627c-1.638 0-2.973-1.335-2.973-2.973s1.335-2.973 2.973-2.973S32 26.016 32 27.654a2.978 2.978 0 0 1-2.973 2.973zm0-5.443c-1.361 0-2.469 1.109-2.469 2.469s1.109 2.469 2.469 2.469 2.469-1.109 2.469-2.469-1.109-2.469-2.469-2.469z" style="fill:var(--color6, #000)"/><path d="M29.027 29.392c-.957 0-1.739-.781-1.739-1.739s.781-1.739 1.739-1.739c.151 0 .252.101.252.252s-.101.252-.252.252c-.68 0-1.235.554-1.235 1.235s.554 1.235 1.235 1.235c.68 0 1.235-.554 1.235-1.235 0-.151.101-.252.252-.252s.252.101.252.252c-.025.957-.781 1.739-1.739 1.739zM26.331 28.586h-12.85c-.151 0-.252-.101-.252-.252s.101-.252.252-.252h12.85c.151 0 .252.101.252.252s-.101.252-.252.252zM26.331 27.326h-12.85c-.151 0-.252-.101-.252-.252s.101-.252.252-.252h12.85c.151 0 .252.101.252.252s-.101.252-.252.252zM11.389 25.134c-.025 0-.076 0-.101-.025-.126-.05-.176-.202-.126-.328l1.915-4.435c.05-.126.202-.176.328-.126s.176.202.126.328l-1.915 4.435c-.05.101-.126.151-.227.151zM12.523 25.663c-.025 0-.076 0-.101-.025-.126-.05-.176-.202-.126-.328l1.562-3.654c.05-.126.202-.176.328-.126s.176.202.126.328l-1.562 3.654c-.05.076-.126.151-.227.151zM30.992 7.672H5.039a.759.759 0 0 1-.756-.756v-.252c0-.403.328-.756.756-.756h25.953c.403 0 .756.328.756.756v.252a.743.743 0 0 1-.756.756zM5.039 6.413a.253.253 0 0 0-.252.252v.252c0 .126.101.252.252.252h25.953a.253.253 0 0 0 .252-.252v-.252a.253.253 0 0 0-.252-.252H5.039z" style="fill:var(--color6, #000)"/><path d="M19.931 25.159c-3.981 0-7.206-3.225-7.206-7.206s3.225-7.206 7.206-7.206 7.206 3.225 7.206 7.206-3.225 7.206-7.206 7.206zm0-13.934c-3.704 0-6.702 2.998-6.702 6.702s2.998 6.702 6.702 6.702a6.699 6.699 0 0 0 6.702-6.702c0-3.679-2.998-6.702-6.702-6.702z" style="fill:var(--color6, #000)"/><path d="M22.35 20.75a.225.225 0 0 1-.176-.076l-4.737-4.737c-.101-.101-.101-.252 0-.353s.252-.101.353 0l4.737 4.737a.244.244 0 0 1 0 .353.274.274 0 0 1-.176.076z" style="fill:var(--color6, #000)"/><path d="M17.613 20.75a.225.225 0 0 1-.176-.076.244.244 0 0 1 0-.353l4.737-4.737c.101-.101.252-.101.353 0s.101.252 0 .353l-4.737 4.737a.274.274 0 0 1-.176.076zM16.63 11.83c-.151 0-.252-.101-.252-.252V9.587c0-.479.403-.882.882-.882s.882.378.882.882v1.487c0 .151-.101.252-.252.252s-.252-.101-.252-.252V9.587c0-.202-.176-.378-.378-.378s-.378.176-.378.378v1.991c0 .151-.101.252-.252.252zM13.354 15.609c-.151 0-.252-.101-.252-.252v-5.77c0-.479.403-.882.882-.882s.882.378.882.882v3.754c0 .151-.101.252-.252.252s-.252-.101-.252-.252V9.587c0-.202-.176-.378-.378-.378s-.378.176-.378.378v5.77c0 .151-.101.252-.252.252zM10.709 13.392a.876.876 0 0 1-.882-.882V9.587c0-.479.403-.882.882-.882s.882.378.882.882v2.923a.876.876 0 0 1-.882.882zm0-4.157a.387.387 0 0 0-.378.378v2.923c0 .202.176.378.378.378s.378-.176.378-.378V9.613a.387.387 0 0 0-.378-.378zM21.669 11.326c-.151 0-.252-.101-.252-.252V9.587c0-.202-.176-.378-.378-.378s-.378.176-.378.378v1.235c0 .151-.101.252-.252.252s-.252-.101-.252-.252V9.587c0-.479.403-.882.882-.882s.882.378.882.882v1.487c0 .151-.101.252-.252.252zM25.197 13.594c-.151 0-.252-.101-.252-.252V9.588c0-.202-.176-.378-.378-.378s-.378.176-.378.378v2.495c0 .151-.101.252-.252.252s-.252-.101-.252-.252V9.588c0-.479.403-.882.882-.882s.882.378.882.882v3.754c0 .151-.101.252-.252.252zM28.095 18.935a.876.876 0 0 1-.882-.882V9.587c0-.479.403-.882.882-.882s.882.378.882.882v8.466a.876.876 0 0 1-.882.882zm0-9.7a.387.387 0 0 0-.378.378v8.466c0 .202.176.378.378.378s.378-.176.378-.378V9.613a.387.387 0 0 0-.378-.378z" style="fill:var(--color6, #000)"/></symbol><symbol id="icon-cart-col-del" viewBox="0 0 32 32"><path fill="#7d8b95" d="m4.032 3.641 1.083 2.394h1.512L5.342 3.188C4.888 2.18 4.133 1.5 2.671 1.5H.378v1.26h2.243c.957 0 1.159.328 1.411.882z" style="fill:var(--color1, #7d8b95)"/><path fill="#efdc81" d="M12.397 20.649H30.01c.554 0 1.109-.403 1.109-.957V7.295H5.67l5.342 12.372c.202.504.832.983 1.386.983z" style="fill:var(--color2, #efdc81)"/><path fill="#f4efef" d="M24.693 18.709c.353 0 .63-.277.63-.605V9.638c0-.353-.277-.63-.63-.63s-.63.277-.63.63v8.466c0 .328.277.605.63.605zM28.22 18.709c.353 0 .63-.277.63-.605V9.638c0-.353-.277-.63-.63-.63s-.63.277-.63.63v8.466c0 .328.277.605.63.605zM21.165 18.709c.353 0 .63-.277.63-.605V9.638c0-.353-.277-.63-.63-.63s-.63.277-.63.63v8.466c0 .328.277.605.63.605zM17.386 18.709c.353 0 .63-.277.63-.605V9.638c0-.353-.277-.63-.63-.63s-.63.277-.63.63v8.466c0 .328.277.605.63.605zM14.11 18.709c.353 0 .63-.277.63-.605V9.638c0-.353-.277-.63-.63-.63s-.63.277-.63.63v8.466c0 .328.277.605.63.605zM11.213 9.613c0-.353-.151-.63-.504-.63s-.504.277-.504.63v2.746c0 .353.151.63.504.63s.504-.277.504-.63V9.613z" style="fill:var(--color3, #f4efef)"/><path fill="#7d8b95" d="M10.835 24.932c-1.512 0-2.721 1.209-2.721 2.721s1.209 2.721 2.721 2.721 2.721-1.209 2.721-2.721a2.725 2.725 0 0 0-2.721-2.721zM29.027 30.4c1.512 0 2.721-1.209 2.721-2.721s-1.209-2.721-2.721-2.721-2.721 1.209-2.721 2.721a2.725 2.725 0 0 0 2.721 2.721z" style="fill:var(--color1, #7d8b95)"/><path fill="#2d414e" d="M5.115 6.035c-.302 0-.454.454-.454.731v.252c0 .277.176.302.454.302h25.902c.277 0 .378-.025.378-.302v-.252c0-.277-.101-.731-.378-.731H5.114z" style="fill:var(--color4, #2d414e)"/><path fill="#df5c4e" d="M26.885 17.928a6.954 6.954 0 1 1-13.908 0 6.954 6.954 0 0 1 13.908 0z" style="fill:var(--color5, #df5c4e)"/><path d="M16.63 11.83c-.151 0-.252-.101-.252-.252V9.587c0-.479.403-.882.882-.882s.882.378.882.882v1.487c0 .151-.101.252-.252.252s-.252-.101-.252-.252V9.587c0-.202-.176-.378-.378-.378s-.378.176-.378.378v1.991c0 .151-.101.252-.252.252zM13.354 15.609c-.151 0-.252-.101-.252-.252v-5.77c0-.479.403-.882.882-.882s.882.378.882.882v3.754c0 .151-.101.252-.252.252s-.252-.101-.252-.252V9.587c0-.202-.176-.378-.378-.378s-.378.176-.378.378v5.77c0 .151-.101.252-.252.252zM10.709 13.392a.876.876 0 0 1-.882-.882V9.587c0-.479.403-.882.882-.882s.882.378.882.882v2.923a.876.876 0 0 1-.882.882zm0-4.157a.387.387 0 0 0-.378.378v2.923c0 .202.176.378.378.378s.378-.176.378-.378V9.613a.37.37 0 0 0-.378-.378zM21.669 11.326c-.151 0-.252-.101-.252-.252V9.587c0-.202-.176-.378-.378-.378s-.378.176-.378.378v1.235c0 .151-.101.252-.252.252s-.252-.101-.252-.252V9.587c0-.479.403-.882.882-.882s.882.378.882.882v1.487c0 .151-.101.252-.252.252zM25.197 13.594c-.151 0-.252-.101-.252-.252V9.588c0-.202-.176-.378-.378-.378s-.378.176-.378.378v2.495c0 .151-.101.252-.252.252s-.252-.101-.252-.252V9.588c0-.479.403-.882.882-.882s.882.378.882.882v3.754c0 .151-.101.252-.252.252zM28.095 18.935a.876.876 0 0 1-.882-.882V9.587c0-.479.403-.882.882-.882s.882.378.882.882v8.466a.876.876 0 0 1-.882.882zm0-9.7a.387.387 0 0 0-.378.378v8.466c0 .202.176.378.378.378s.378-.176.378-.378V9.613a.37.37 0 0 0-.378-.378zM5.367 6.337c-.101 0-.176-.05-.227-.151L4.057 3.767c-.202-.428-.302-.655-1.184-.655H.253c-.151 0-.252-.101-.252-.252V1.6c0-.151.101-.252.252-.252h2.671c1.436 0 2.368.554 2.898 1.764l1.285 2.772c.05.126 0 .277-.126.328s-.277 0-.328-.126L5.368 3.314c-.454-1.033-1.184-1.461-2.444-1.461H.505v.756h2.369c1.008 0 1.31.277 1.638.932L5.595 5.96c.05.126 0 .277-.126.328-.025.05-.05.05-.101.05z" style="fill:var(--color6, #000)"/><path d="M30.261 21.027h-3.679c-.151 0-.252-.101-.252-.252s.101-.252.252-.252h3.679c.328 0 .479-.63.479-1.083V7.547c0-.151.101-.252.252-.252s.252.101.252.252V19.44c0 .806-.302 1.587-.983 1.587zM13.228 21.027h-.58c-.68 0-1.411-.605-1.638-1.159L5.693 7.597c-.05-.126 0-.277.126-.328s.277 0 .328.126l5.317 12.271c.176.428.756.831 1.184.831h.58c.151 0 .252.101.252.252s-.101.277-.252.277zM10.835 30.652c-1.638 0-2.973-1.335-2.973-2.973s1.335-2.973 2.973-2.973 2.973 1.335 2.973 2.973a2.978 2.978 0 0 1-2.973 2.973zm0-5.468c-1.361 0-2.469 1.109-2.469 2.469s1.109 2.469 2.469 2.469 2.469-1.109 2.469-2.469-1.109-2.469-2.469-2.469z" style="fill:var(--color6, #000)"/><path d="M10.835 29.392c-.957 0-1.739-.781-1.739-1.739s.781-1.739 1.739-1.739c.151 0 .252.101.252.252s-.101.252-.252.252c-.68 0-1.235.554-1.235 1.235s.554 1.235 1.235 1.235 1.235-.554 1.235-1.235c0-.151.101-.252.252-.252s.252.101.252.252c0 .957-.781 1.739-1.739 1.739zM29.027 30.652c-1.638 0-2.973-1.335-2.973-2.973s1.335-2.973 2.973-2.973S32 26.041 32 27.679a2.978 2.978 0 0 1-2.973 2.973zm0-5.468c-1.361 0-2.469 1.109-2.469 2.469s1.109 2.469 2.469 2.469 2.469-1.109 2.469-2.469-1.109-2.469-2.469-2.469z" style="fill:var(--color6, #000)"/><path d="M29.027 29.392c-.957 0-1.739-.781-1.739-1.739s.781-1.739 1.739-1.739c.151 0 .252.101.252.252s-.101.252-.252.252c-.68 0-1.235.554-1.235 1.235s.554 1.235 1.235 1.235c.68 0 1.235-.554 1.235-1.235 0-.151.101-.252.252-.252s.252.101.252.252c-.025.957-.781 1.739-1.739 1.739zM26.331 28.586h-12.85c-.151 0-.252-.101-.252-.252s.101-.252.252-.252h12.85c.151 0 .252.101.252.252s-.101.252-.252.252zM26.331 27.326h-12.85c-.151 0-.252-.101-.252-.252s.101-.252.252-.252h12.85c.151 0 .252.101.252.252s-.101.252-.252.252zM11.389 25.134c-.025 0-.076 0-.101-.025-.126-.05-.176-.202-.126-.328l1.915-4.435c.05-.126.202-.176.328-.126s.176.202.126.328l-1.915 4.435c-.05.101-.126.151-.227.151zM12.523 25.663c-.025 0-.076 0-.101-.025-.126-.05-.176-.202-.126-.328l1.562-3.654c.05-.126.202-.176.328-.126s.176.202.126.328l-1.562 3.654c-.05.101-.126.151-.227.151zM30.992 7.672H5.039a.759.759 0 0 1-.756-.756v-.252c0-.403.328-.756.756-.756h25.953c.403 0 .756.328.756.756v.252a.743.743 0 0 1-.756.756zM5.039 6.413a.253.253 0 0 0-.252.252v.252c0 .126.101.252.252.252h25.953a.253.253 0 0 0 .252-.252v-.252a.253.253 0 0 0-.252-.252H5.039z" style="fill:var(--color6, #000)"/><path d="M19.905 25.159c-3.981 0-7.206-3.225-7.206-7.206s3.225-7.206 7.206-7.206 7.206 3.225 7.206 7.206-3.225 7.206-7.206 7.206zm0-13.909c-3.704 0-6.702 2.998-6.702 6.702s2.998 6.702 6.702 6.702c3.704 0 6.702-2.998 6.702-6.702s-2.998-6.702-6.702-6.702z" style="fill:var(--color6, #000)"/><path d="M23.559 18.003h-7.307c-.151 0-.252-.101-.252-.252s.101-.252.252-.252h7.307c.151 0 .252.101.252.252s-.101.252-.252.252z" style="fill:var(--color6, #000)"/></symbol><symbol id="icon-cart-col-full" viewBox="0 0 32 32"><path fill="#f4aea8" d="M26.079 1.587c0-.554-.504-.907-1.033-.907H12.095c-.554 0-1.134.353-1.134.907v1.109h9.6c.554 0 .983.328.983.882V6.98h4.535V1.588z" style="fill:var(--color7, #f4aea8)"/><path fill="#54b265" d="M30.362 4.586c0-.554-.554-.882-1.083-.882h-3.2V6.98h4.283V4.586z" style="fill:var(--color8, #54b265)"/><path fill="#73badd" d="M20.561 2.696H10.104c-.554 0-.907.328-.907.882V6.98h12.346V3.578c0-.554-.428-.882-.983-.882z" style="fill:var(--color9, #73badd)"/><path fill="#7d8b95" d="M4.032 4.586 5.115 6.98h1.512L5.342 4.133c-.454-1.008-1.209-1.688-2.671-1.688H.378v1.26h2.243c.957 0 1.159.328 1.411.882z" style="fill:var(--color1, #7d8b95)"/><path fill="#efdc81" d="M12.397 21.846H30.01c.554 0 1.109-.529 1.109-1.083V8.492H5.67l5.342 12.372c.202.504.832.983 1.386.983z" style="fill:var(--color2, #efdc81)"/><path fill="#f4efef" d="M24.693 19.502c.353 0 .63-.277.63-.605v-8.466c0-.353-.277-.63-.63-.63s-.63.277-.63.63v8.466c0 .328.277.605.63.605zM28.22 19.502c.353 0 .63-.277.63-.605v-8.466c0-.353-.277-.63-.63-.63s-.63.277-.63.63v8.466c0 .328.277.605.63.605zM21.165 19.502c.353 0 .63-.277.63-.605v-8.466c0-.353-.277-.63-.63-.63s-.63.277-.63.63v8.466c0 .328.277.605.63.605zM17.386 19.502c.353 0 .63-.277.63-.605v-8.466c0-.353-.277-.63-.63-.63s-.63.277-.63.63v8.466c0 .328.277.605.63.605zM14.11 19.502c.353 0 .63-.277.63-.605v-8.466c0-.353-.277-.63-.63-.63s-.63.277-.63.63v8.466c0 .328.277.605.63.605zM11.213 10.406c0-.353-.151-.63-.504-.63s-.504.277-.504.63v2.746c0 .353.151.605.504.605s.504-.277.504-.605v-2.746z" style="fill:var(--color3, #f4efef)"/><path fill="#7d8b95" d="M10.835 25.751c-1.512 0-2.721 1.209-2.721 2.721s1.209 2.721 2.721 2.721 2.721-1.209 2.721-2.721-1.209-2.721-2.721-2.721zM29.027 31.194c1.512 0 2.721-1.209 2.721-2.721s-1.209-2.721-2.721-2.721-2.721 1.209-2.721 2.721a2.71 2.71 0 0 0 2.721 2.721z" style="fill:var(--color1, #7d8b95)"/><path fill="#2d414e" d="M5.115 6.98c-.302 0-.454.302-.454.58v.252c0 .277.176.428.454.428h25.902c.277 0 .378-.151.378-.428V7.56c0-.277-.101-.58-.378-.58H5.115z" style="fill:var(--color4, #2d414e)"/><path d="M17.26 19.754a.876.876 0 0 1-.882-.882v-8.466c0-.479.403-.882.882-.882s.882.378.882.882v8.466a.876.876 0 0 1-.882.882zm0-9.7a.387.387 0 0 0-.378.378v8.466c0 .202.176.378.378.378s.378-.176.378-.378v-8.466a.387.387 0 0 0-.378-.378zM13.984 19.754a.876.876 0 0 1-.882-.882v-8.466c0-.479.403-.882.882-.882s.882.378.882.882v8.466a.876.876 0 0 1-.882.882zm0-9.7a.387.387 0 0 0-.378.378v8.466c0 .202.176.378.378.378s.378-.176.378-.378v-8.466a.387.387 0 0 0-.378-.378zM10.709 14.211a.876.876 0 0 1-.882-.882v-2.923c0-.479.403-.882.882-.882s.882.378.882.882v2.923a.876.876 0 0 1-.882.882zm0-4.157a.387.387 0 0 0-.378.378v2.923c0 .202.176.378.378.378s.378-.176.378-.378v-2.923a.387.387 0 0 0-.378-.378zM21.039 19.754a.876.876 0 0 1-.882-.882v-8.466c0-.479.403-.882.882-.882s.882.378.882.882v8.466a.876.876 0 0 1-.882.882zm0-9.7a.387.387 0 0 0-.378.378v8.466c0 .202.176.378.378.378s.378-.176.378-.378v-8.466a.387.387 0 0 0-.378-.378zM24.567 19.754a.876.876 0 0 1-.882-.882v-8.466c0-.479.403-.882.882-.882s.882.378.882.882v8.466a.876.876 0 0 1-.882.882zm0-9.7a.387.387 0 0 0-.378.378v8.466c0 .202.176.378.378.378s.378-.176.378-.378v-8.466a.387.387 0 0 0-.378-.378zM28.095 19.754a.876.876 0 0 1-.882-.882v-8.466c0-.479.403-.882.882-.882s.882.378.882.882v8.466a.876.876 0 0 1-.882.882zm0-9.7a.387.387 0 0 0-.378.378v8.466c0 .202.176.378.378.378s.378-.176.378-.378v-8.466a.387.387 0 0 0-.378-.378zM5.367 7.181c-.101 0-.176-.05-.227-.151L4.057 4.636c-.202-.428-.277-.58-1.184-.58H.253c-.151 0-.252-.101-.252-.252v-1.26c0-.151.101-.252.252-.252h2.671c1.487 0 2.368.529 2.898 1.688l1.285 2.696c.05.126 0 .277-.126.328s-.277 0-.328-.126L5.368 4.182c-.428-.983-1.159-1.386-2.444-1.386H.505v.756h2.369c1.033 0 1.31.227 1.638.857l1.083 2.394c.05.126 0 .277-.126.328-.025.05-.05.05-.101.05z" style="fill:var(--color6, #000)"/><path d="M30.261 21.972H12.648c-.706 0-1.461-.756-1.688-1.285L5.769 8.643c-.05-.126 0-.277.126-.328s.277 0 .328.126l5.191 12.044c.176.428.806.983 1.235.983h17.613c.277 0 .479-.63.479-1.209V8.492c0-.151.101-.252.252-.252s.252.101.252.252v11.767c0 .605-.202 1.713-.983 1.713zM10.835 31.446c-1.638 0-2.973-1.335-2.973-2.973S9.197 25.5 10.835 25.5s2.973 1.335 2.973 2.973a2.978 2.978 0 0 1-2.973 2.973zm0-5.443c-1.361 0-2.469 1.109-2.469 2.469s1.109 2.469 2.469 2.469 2.469-1.109 2.469-2.469-1.109-2.469-2.469-2.469z" style="fill:var(--color6, #000)"/><path d="M10.835 30.211c-.957 0-1.739-.781-1.739-1.739s.781-1.739 1.739-1.739c.151 0 .252.101.252.252s-.101.252-.252.252c-.68 0-1.235.554-1.235 1.235s.554 1.235 1.235 1.235 1.235-.554 1.235-1.235c0-.151.101-.252.252-.252s.252.101.252.252c0 .957-.781 1.739-1.739 1.739zM29.027 31.446c-1.638 0-2.973-1.335-2.973-2.973s1.335-2.973 2.973-2.973S32 26.835 32 28.473a2.978 2.978 0 0 1-2.973 2.973zm0-5.443c-1.361 0-2.469 1.109-2.469 2.469s1.109 2.469 2.469 2.469 2.469-1.109 2.469-2.469-1.109-2.469-2.469-2.469z" style="fill:var(--color6, #000)"/><path d="M29.027 30.211c-.957 0-1.739-.781-1.739-1.739s.781-1.739 1.739-1.739c.151 0 .252.101.252.252s-.101.252-.252.252c-.68 0-1.235.554-1.235 1.235s.554 1.235 1.235 1.235c.68 0 1.235-.554 1.235-1.235 0-.151.101-.252.252-.252s.252.101.252.252c-.025.957-.781 1.739-1.739 1.739zM26.331 29.531h-12.85c-.151 0-.252-.101-.252-.252s.101-.252.252-.252h12.85c.151 0 .252.101.252.252s-.101.252-.252.252zM26.331 28.271H13.733c-.151 0-.252-.101-.252-.252s.101-.252.252-.252h12.598c.151 0 .252.101.252.252s-.101.252-.252.252zM12.523 26.482c-.025 0-.076 0-.101-.025-.126-.05-.176-.202-.126-.328l1.94-4.485c.05-.126.202-.176.328-.126s.176.202.126.328l-1.94 4.485c-.05.076-.126.151-.227.151zM11.389 25.953c-.025 0-.076 0-.101-.025-.126-.05-.176-.202-.126-.328l1.713-3.981c.05-.126.202-.176.328-.126s.176.202.126.328l-1.713 3.981c-.05.101-.126.151-.227.151zM30.992 8.617H5.039a.759.759 0 0 1-.756-.756v-.252c0-.403.328-.756.756-.756h25.953c.403 0 .756.328.756.756v.252a.743.743 0 0 1-.756.756zM5.039 7.357a.253.253 0 0 0-.252.252v.252c0 .126.101.252.252.252h25.953a.253.253 0 0 0 .252-.252v-.252a.253.253 0 0 0-.252-.252H5.039z" style="fill:var(--color6, #000)"/><path d="M25.953 6.98c-.151 0-.252-.101-.252-.252V1.336c0-.101-.025-.176-.05-.202-.076-.076-.328-.076-.554-.076H12.045c-.328 0-.756 0-.907.151-.025.025-.05.05-.05.126v1.109c0 .151-.101.252-.252.252s-.252-.101-.252-.252V1.335c0-.202.076-.378.202-.504.277-.277.806-.277 1.26-.277h13.052c.378 0 .706 0 .932.227.126.126.202.328.202.554v5.392c-.025.151-.126.252-.277.252z" style="fill:var(--color6, #000)"/><path d="M30.236 6.98c-.151 0-.252-.101-.252-.252V4.334c0-.101-.025-.151-.05-.176-.076-.076-.328-.076-.529-.05h-3.074c-.151 0-.252-.101-.252-.252s.101-.252.252-.252h3.074c.353 0 .68 0 .907.202a.721.721 0 0 1 .202.529v2.394c-.025.151-.126.252-.277.252zM21.417 6.98c-.151 0-.252-.101-.252-.252V3.326c0-.151-.025-.202-.05-.202-.05-.05-.277-.05-.454-.05H9.978c-.252 0-.529 0-.63.076-.025.025-.05.076-.05.176v3.402c0 .151-.101.252-.252.252s-.252-.101-.252-.252V3.326c0-.227.076-.403.202-.529.227-.227.605-.227.983-.227h10.658c.328 0 .63 0 .806.202.176.176.176.403.176.554v3.402c.05.151-.05.252-.202.252z" style="fill:var(--color6, #000)"/></symbol><symbol id="icon-cart-col-large" viewBox="0 0 32 32"><path fill="#7d8b95" d="m4.032 3.641 1.083 2.394h1.512L5.342 3.188C4.888 2.18 4.133 1.5 2.671 1.5H.378v1.26h2.243c.957 0 1.159.328 1.411.882z" style="fill:var(--color1, #7d8b95)"/><path fill="#efdc81" d="M12.397 20.649H30.01c.554 0 1.109-.403 1.109-.957V7.295H5.67l5.342 12.372c.202.504.832.983 1.386.983z" style="fill:var(--color2, #efdc81)"/><path fill="#f4efef" d="M24.441 18.683c.353 0 .63-.277.63-.63V9.587c0-.353-.277-.63-.63-.63s-.63.277-.63.63v8.466c0 .353.277.63.63.63zM27.968 18.683c.353 0 .63-.277.63-.63V9.587c0-.353-.277-.63-.63-.63s-.63.277-.63.63v8.466c0 .353.277.63.63.63zM20.913 18.683c.353 0 .63-.277.63-.63V9.587c0-.353-.277-.63-.63-.63s-.63.277-.63.63v8.466c0 .353.277.63.63.63zM17.386 18.683c.353 0 .63-.277.63-.63V9.587c0-.353-.277-.63-.63-.63s-.63.277-.63.63v8.466c0 .353.277.63.63.63zM13.858 18.683c.353 0 .63-.277.63-.63V9.587c0-.353-.277-.63-.63-.63s-.63.277-.63.63v8.466c0 .353.277.63.63.63zM11.213 9.613c0-.353-.151-.63-.504-.63s-.504.277-.504.63v2.746c0 .353.151.63.504.63s.504-.277.504-.63V9.613z" style="fill:var(--color3, #f4efef)"/><path fill="#7d8b95" d="M10.835 24.932c-1.512 0-2.721 1.209-2.721 2.721s1.209 2.721 2.721 2.721 2.721-1.209 2.721-2.721-1.209-2.721-2.721-2.721zM29.027 30.375c1.512 0 2.721-1.209 2.721-2.721s-1.209-2.721-2.721-2.721-2.721 1.209-2.721 2.721a2.71 2.71 0 0 0 2.721 2.721z" style="fill:var(--color1, #7d8b95)"/><path fill="#ef934a" d="M5.115 6.287c-.302 0-.454.428-.454.705v.252c0 .277.176.302.454.302h25.902c.277 0 .378-.025.378-.302v-.252c0-.277-.101-.705-.378-.705H5.115z" style="fill:var(--color10, #ef934a)"/><path d="M17.26 18.935a.876.876 0 0 1-.882-.882V9.587c0-.479.403-.882.882-.882s.882.378.882.882v8.466a.876.876 0 0 1-.882.882zm0-9.7a.387.387 0 0 0-.378.378v8.466c0 .202.176.378.378.378s.378-.176.378-.378V9.613a.387.387 0 0 0-.378-.378zM13.984 18.935a.876.876 0 0 1-.882-.882V9.587c0-.479.403-.882.882-.882s.882.378.882.882v8.466a.876.876 0 0 1-.882.882zm0-9.7a.387.387 0 0 0-.378.378v8.466c0 .202.176.378.378.378s.378-.176.378-.378V9.613a.387.387 0 0 0-.378-.378zM10.709 13.392a.876.876 0 0 1-.882-.882V9.587c0-.479.403-.882.882-.882s.882.378.882.882v2.923a.876.876 0 0 1-.882.882zm0-4.157a.387.387 0 0 0-.378.378v2.923c0 .202.176.378.378.378s.378-.176.378-.378V9.613a.387.387 0 0 0-.378-.378zM21.039 18.935a.876.876 0 0 1-.882-.882V9.587c0-.479.403-.882.882-.882s.882.378.882.882v8.466a.876.876 0 0 1-.882.882zm0-9.7a.387.387 0 0 0-.378.378v8.466c0 .202.176.378.378.378s.378-.176.378-.378V9.613a.387.387 0 0 0-.378-.378zM24.567 18.935a.876.876 0 0 1-.882-.882V9.587c0-.479.403-.882.882-.882s.882.378.882.882v8.466a.876.876 0 0 1-.882.882zm0-9.7a.387.387 0 0 0-.378.378v8.466c0 .202.176.378.378.378s.378-.176.378-.378V9.613a.387.387 0 0 0-.378-.378zM28.095 18.935a.876.876 0 0 1-.882-.882V9.587c0-.479.403-.882.882-.882s.882.378.882.882v8.466a.876.876 0 0 1-.882.882zm0-9.7a.387.387 0 0 0-.378.378v8.466c0 .202.176.378.378.378s.378-.176.378-.378V9.613a.387.387 0 0 0-.378-.378zM5.367 6.337c-.101 0-.176-.05-.227-.151L4.057 3.767c-.202-.428-.302-.63-1.184-.63H.253c-.151 0-.252-.101-.252-.252v-1.26c0-.151.101-.252.252-.252h2.671c1.436 0 2.368.554 2.898 1.739l1.285 2.772c.05.126 0 .277-.126.328s-.277 0-.328-.126L5.368 3.314c-.454-1.033-1.184-1.461-2.444-1.461H.505v.756h2.369c1.008 0 1.31.277 1.638.932L5.595 5.96c.05.126 0 .277-.126.328-.025.05-.05.05-.101.05z" style="fill:var(--color6, #000)"/><path d="M30.261 21.027H12.648c-.655 0-1.436-.68-1.688-1.26L5.769 7.798c-.05-.126 0-.277.126-.328s.277 0 .328.126l5.191 11.968c.176.428.806.957 1.235.957h17.613c.328 0 .479-.63.479-1.083V7.545c0-.151.101-.252.252-.252s.252.101.252.252v11.893c0 .781-.302 1.587-.983 1.587zM10.835 30.627c-1.638 0-2.973-1.335-2.973-2.973s1.335-2.973 2.973-2.973 2.973 1.335 2.973 2.973a2.978 2.978 0 0 1-2.973 2.973zm0-5.443c-1.361 0-2.469 1.109-2.469 2.469s1.109 2.469 2.469 2.469 2.469-1.109 2.469-2.469-1.109-2.469-2.469-2.469z" style="fill:var(--color6, #000)"/><path d="M10.835 29.392c-.957 0-1.739-.781-1.739-1.739s.781-1.739 1.739-1.739c.151 0 .252.101.252.252s-.101.252-.252.252c-.68 0-1.235.554-1.235 1.235s.554 1.235 1.235 1.235 1.235-.554 1.235-1.235c0-.151.101-.252.252-.252s.252.101.252.252c0 .957-.781 1.739-1.739 1.739zM29.027 30.627c-1.638 0-2.973-1.335-2.973-2.973s1.335-2.973 2.973-2.973S32 26.016 32 27.654a2.978 2.978 0 0 1-2.973 2.973zm0-5.443c-1.361 0-2.469 1.109-2.469 2.469s1.109 2.469 2.469 2.469 2.469-1.109 2.469-2.469-1.109-2.469-2.469-2.469z" style="fill:var(--color6, #000)"/><path d="M29.027 29.392c-.957 0-1.739-.781-1.739-1.739s.781-1.739 1.739-1.739c.151 0 .252.101.252.252s-.101.252-.252.252c-.68 0-1.235.554-1.235 1.235s.554 1.235 1.235 1.235c.68 0 1.235-.554 1.235-1.235 0-.151.101-.252.252-.252s.252.101.252.252c-.025.957-.781 1.739-1.739 1.739zM26.331 28.586h-12.85c-.151 0-.252-.101-.252-.252s.101-.252.252-.252h12.85c.151 0 .252.101.252.252s-.101.252-.252.252zM26.331 27.326h-12.85c-.151 0-.252-.101-.252-.252s.101-.252.252-.252h12.85c.151 0 .252.101.252.252s-.101.252-.252.252zM12.523 25.663c-.025 0-.076 0-.101-.025-.126-.05-.176-.202-.126-.328l1.965-4.535c.05-.126.202-.176.328-.126s.176.202.126.328l-1.965 4.535c-.05.076-.126.151-.227.151zM11.389 25.134c-.025 0-.076 0-.101-.025-.126-.05-.176-.202-.126-.328l1.713-3.956c.05-.126.202-.176.328-.126s.176.202.126.328l-1.713 3.956c-.05.101-.126.151-.227.151zM30.992 7.672H5.039a.759.759 0 0 1-.756-.756v-.252c0-.403.328-.756.756-.756h25.953c.403 0 .756.328.756.756v.252a.743.743 0 0 1-.756.756zM5.039 6.413a.253.253 0 0 0-.252.252v.252c0 .126.101.252.252.252h25.953a.253.253 0 0 0 .252-.252v-.252a.253.253 0 0 0-.252-.252H5.039z" style="fill:var(--color6, #000)"/></symbol><symbol id="icon-cart-col-plus" viewBox="0 0 32 32"><path fill="#7d8b95" d="m4.032 3.641 1.083 2.394h1.512L5.342 3.188C4.888 2.18 4.133 1.5 2.671 1.5H.378v1.26h2.243c.957 0 1.159.328 1.411.882z" style="fill:var(--color1, #7d8b95)"/><path fill="#efdc81" d="M12.397 20.649H30.01c.554 0 1.109-.403 1.109-.957V7.295H5.67l5.342 12.372c.202.504.832.983 1.386.983z" style="fill:var(--color2, #efdc81)"/><path fill="#f4efef" d="M24.693 18.709c.353 0 .63-.277.63-.63V9.613c0-.353-.277-.63-.63-.63s-.63.277-.63.63v8.466c0 .353.277.63.63.63zM28.22 18.709c.353 0 .63-.277.63-.63V9.613c0-.353-.277-.63-.63-.63s-.63.277-.63.63v8.466c0 .353.277.63.63.63zM21.165 18.709c.353 0 .63-.277.63-.63V9.613c0-.353-.277-.63-.63-.63s-.63.277-.63.63v8.466c0 .353.277.63.63.63zM17.386 18.709c.353 0 .63-.277.63-.63V9.613c0-.353-.277-.63-.63-.63s-.63.277-.63.63v8.466c0 .353.277.63.63.63zM13.858 18.709c.353 0 .63-.277.63-.63V9.613c0-.353-.277-.63-.63-.63s-.63.277-.63.63v8.466c0 .353.277.63.63.63zM11.213 9.613c0-.353-.151-.63-.504-.63s-.504.277-.504.63v2.746c0 .353.151.63.504.63s.504-.277.504-.63V9.613z" style="fill:var(--color3, #f4efef)"/><path fill="#7d8b95" d="M10.835 24.932c-1.512 0-2.721 1.209-2.721 2.721s1.209 2.721 2.721 2.721 2.721-1.209 2.721-2.721-1.209-2.721-2.721-2.721zM29.027 30.4c1.512 0 2.721-1.209 2.721-2.721s-1.209-2.721-2.721-2.721-2.721 1.209-2.721 2.721 1.209 2.721 2.721 2.721z" style="fill:var(--color1, #7d8b95)"/><path fill="#ef934a" d="M5.115 6.035c-.302 0-.454.454-.454.731v.252c0 .277.176.302.454.302h25.902c.277 0 .378-.025.378-.302v-.252c0-.277-.101-.731-.378-.731H5.114z" style="fill:var(--color10, #ef934a)"/><path fill="#73badd" d="M26.885 17.928a6.954 6.954 0 1 1-13.908 0 6.954 6.954 0 0 1 13.908 0z" style="fill:var(--color9, #ffca42)"/><path d="M16.63 11.83c-.151 0-.252-.101-.252-.252V9.587c0-.479.403-.882.882-.882s.882.378.882.882v1.487c0 .151-.101.252-.252.252s-.252-.101-.252-.252V9.587c0-.202-.176-.378-.378-.378s-.378.176-.378.378v1.991c0 .151-.101.252-.252.252zM13.354 15.609c-.151 0-.252-.101-.252-.252v-5.77c0-.479.403-.882.882-.882s.882.378.882.882v3.754c0 .151-.101.252-.252.252s-.252-.101-.252-.252V9.587c0-.202-.176-.378-.378-.378s-.378.176-.378.378v5.77c0 .151-.101.252-.252.252zM10.709 13.392a.876.876 0 0 1-.882-.882V9.587c0-.479.403-.882.882-.882s.882.378.882.882v2.923a.876.876 0 0 1-.882.882zm0-4.157a.387.387 0 0 0-.378.378v2.923c0 .202.176.378.378.378s.378-.176.378-.378V9.613a.37.37 0 0 0-.378-.378zM21.669 11.326c-.151 0-.252-.101-.252-.252V9.587c0-.202-.176-.378-.378-.378s-.378.176-.378.378v1.235c0 .151-.101.252-.252.252s-.252-.101-.252-.252V9.587c0-.479.403-.882.882-.882s.882.378.882.882v1.487c0 .151-.101.252-.252.252zM25.197 13.594c-.151 0-.252-.101-.252-.252V9.588c0-.202-.176-.378-.378-.378s-.378.176-.378.378v2.495c0 .151-.101.252-.252.252s-.252-.101-.252-.252V9.588c0-.479.403-.882.882-.882s.882.378.882.882v3.754c0 .151-.101.252-.252.252zM28.095 18.935a.876.876 0 0 1-.882-.882V9.587c0-.479.403-.882.882-.882s.882.378.882.882v8.466a.876.876 0 0 1-.882.882zm0-9.7a.387.387 0 0 0-.378.378v8.466c0 .202.176.378.378.378s.378-.176.378-.378V9.613a.37.37 0 0 0-.378-.378zM5.367 6.337c-.101 0-.176-.05-.227-.151L4.057 3.767c-.202-.428-.302-.655-1.184-.655H.253c-.151 0-.252-.101-.252-.252V1.6c0-.151.101-.252.252-.252h2.671c1.436 0 2.368.554 2.898 1.764l1.285 2.772c.05.126 0 .277-.126.328s-.277 0-.328-.126L5.368 3.314c-.454-1.033-1.184-1.461-2.444-1.461H.505v.756h2.369c1.008 0 1.31.277 1.638.932L5.595 5.96c.05.126 0 .277-.126.328-.025.05-.05.05-.101.05z" style="fill:var(--color6, #000)"/><path d="M30.261 21.027h-3.679c-.151 0-.252-.101-.252-.252s.101-.252.252-.252h3.679c.328 0 .479-.63.479-1.083V7.547c0-.151.101-.252.252-.252s.252.101.252.252V19.44c0 .806-.302 1.587-.983 1.587zM13.228 21.027h-.58c-.68 0-1.411-.605-1.638-1.159L5.719 7.622c-.05-.126 0-.277.126-.328s.277 0 .328.126l5.291 12.246c.176.428.756.831 1.184.831h.58c.151 0 .252.101.252.252s-.101.277-.252.277zM10.835 30.652c-1.638 0-2.973-1.335-2.973-2.973s1.335-2.973 2.973-2.973 2.973 1.335 2.973 2.973a2.978 2.978 0 0 1-2.973 2.973zm0-5.468c-1.361 0-2.469 1.109-2.469 2.469s1.109 2.469 2.469 2.469 2.469-1.109 2.469-2.469-1.109-2.469-2.469-2.469z" style="fill:var(--color6, #000)"/><path d="M10.835 29.392c-.957 0-1.739-.781-1.739-1.739s.781-1.739 1.739-1.739c.151 0 .252.101.252.252s-.101.252-.252.252c-.68 0-1.235.554-1.235 1.235s.554 1.235 1.235 1.235 1.235-.554 1.235-1.235c0-.151.101-.252.252-.252s.252.101.252.252c0 .957-.781 1.739-1.739 1.739zM29.027 30.652c-1.638 0-2.973-1.335-2.973-2.973s1.335-2.973 2.973-2.973S32 26.041 32 27.679a2.978 2.978 0 0 1-2.973 2.973zm0-5.468c-1.361 0-2.469 1.109-2.469 2.469s1.109 2.469 2.469 2.469 2.469-1.109 2.469-2.469-1.109-2.469-2.469-2.469z" style="fill:var(--color6, #000)"/><path d="M29.027 29.392c-.957 0-1.739-.781-1.739-1.739s.781-1.739 1.739-1.739c.151 0 .252.101.252.252s-.101.252-.252.252c-.68 0-1.235.554-1.235 1.235s.554 1.235 1.235 1.235c.68 0 1.235-.554 1.235-1.235 0-.151.101-.252.252-.252s.252.101.252.252c-.025.957-.781 1.739-1.739 1.739zM26.331 28.586h-12.85c-.151 0-.252-.101-.252-.252s.101-.252.252-.252h12.85c.151 0 .252.101.252.252s-.101.252-.252.252zM26.331 27.326h-12.85c-.151 0-.252-.101-.252-.252s.101-.252.252-.252h12.85c.151 0 .252.101.252.252s-.101.252-.252.252zM11.389 25.134c-.025 0-.076 0-.101-.025-.126-.05-.176-.202-.126-.328l1.915-4.435c.05-.126.202-.176.328-.126s.176.202.126.328l-1.915 4.435c-.05.101-.126.151-.227.151zM12.523 25.663c-.025 0-.076 0-.101-.025-.126-.05-.176-.202-.126-.328l1.562-3.654c.05-.126.202-.176.328-.126s.176.202.126.328l-1.562 3.654c-.05.101-.126.151-.227.151zM30.992 7.672H5.039a.759.759 0 0 1-.756-.756v-.252c0-.403.328-.756.756-.756h25.953c.403 0 .756.328.756.756v.252a.743.743 0 0 1-.756.756zM5.039 6.413a.253.253 0 0 0-.252.252v.252c0 .126.101.252.252.252h25.953a.253.253 0 0 0 .252-.252v-.252a.253.253 0 0 0-.252-.252H5.039z" style="fill:var(--color6, #000)"/><path d="M19.905 25.159c-3.981 0-7.206-3.225-7.206-7.206s3.225-7.206 7.206-7.206 7.206 3.225 7.206 7.206c.025 3.981-3.225 7.206-7.206 7.206zm0-13.909c-3.704 0-6.702 2.998-6.702 6.702s2.998 6.702 6.702 6.702 6.702-2.998 6.702-6.702c.025-3.704-2.998-6.702-6.702-6.702z" style="fill:var(--color6, #000)"/><path d="M19.905 21.405c-.151 0-.252-.101-.252-.252v-6.551c0-.151.101-.252.252-.252s.252.101.252.252v6.551c0 .151-.101.252-.252.252z" style="fill:var(--color6, #000)"/><path d="M23.307 18.003h-6.803c-.151 0-.252-.101-.252-.252s.101-.252.252-.252h6.803c.151 0 .252.101.252.252s-.101.252-.252.252z" style="fill:var(--color6, #000)"/></symbol><symbol id="icon-cart-col-set" viewBox="0 0 32 32"><path fill="#7d8b95" d="m4.174 3.668 1.088 2.403H6.78L5.49 3.213c-.455-1.012-1.214-1.695-2.681-1.695H.381v1.265h2.378c.961 0 1.164.329 1.417.885z" style="fill:var(--color1, #7d8b95)"/><path fill="#efdc81" d="M12.547 20.743h17.682c.557 0 .987-.531.987-1.088V7.336H5.793l5.363 12.421c.228.506.86.987 1.391.987z" style="fill:var(--color2, #efdc81)"/><path fill="#f4efef" d="M24.538 18.643a.62.62 0 0 0 .632-.607v-8.5c0-.354-.278-.632-.632-.632s-.632.278-.632.632v8.5a.62.62 0 0 0 .632.607zM28.079 18.643a.62.62 0 0 0 .632-.607v-8.5c0-.354-.278-.632-.632-.632s-.632.278-.632.632v8.5a.62.62 0 0 0 .632.607zM20.996 18.643a.62.62 0 0 0 .632-.607v-8.5c0-.354-.278-.632-.632-.632s-.632.278-.632.632v8.5a.62.62 0 0 0 .632.607zM17.202 18.643a.62.62 0 0 0 .632-.607v-8.5c0-.354-.278-.632-.632-.632s-.632.278-.632.632v8.5a.62.62 0 0 0 .632.607zM13.913 18.643a.62.62 0 0 0 .632-.607v-8.5c0-.354-.278-.632-.632-.632s-.632.278-.632.632v8.5a.62.62 0 0 0 .632.607zM11.004 9.537c0-.354-.152-.632-.506-.632s-.506.278-.506.632v2.757c0 .354.152.632.506.632s.506-.278.506-.632V9.537z" style="fill:var(--color3, #f4efef)"/><path fill="#7d8b95" d="M10.751 24.917c-1.518 0-2.732 1.214-2.732 2.732s1.214 2.732 2.732 2.732 2.732-1.214 2.732-2.732-1.214-2.732-2.732-2.732zM29.015 30.381c1.518 0 2.732-1.214 2.732-2.732s-1.214-2.732-2.732-2.732-2.732 1.214-2.732 2.732 1.214 2.732 2.732 2.732z" style="fill:var(--color1, #7d8b95)"/><path fill="#2d414e" d="M5.009 6.324c-.304 0-.582.304-.582.582v.253c0 .278.304.43.582.43h25.979c.278 0 .506-.152.506-.43v-.253c0-.278-.228-.582-.506-.582H5.009z" style="fill:var(--color4, #2d414e)"/><path fill="#aeb1b4" d="M26.435 17.834c0-.202.126-.405-.025-.506a.603.603 0 0 0-.354-.126l-.759-.051a5.755 5.755 0 0 0-.936-2.251l.228-.278.253-.304c.202-.253.202-.658-.025-.885l-.278-.278a.63.63 0 0 0-.506-.177.558.558 0 0 0-.379.152l-.607.506a5.767 5.767 0 0 0-2.251-.936l-.076-.86c-.025-.329-.329-.43-.658-.43h-.379c-.329 0-.632.101-.658.43l-.076.809c-.835.126-1.594.481-2.251.936l-.607-.506c-.253-.202-.658-.202-.885.051l-.278.278a.658.658 0 0 0-.025.885l.506.582a5.096 5.096 0 0 0-.936 2.251l-.759.051a.673.673 0 0 0-.607.607v.43c0 .329.278.632.607.658l.177.025.582.051a5.18 5.18 0 0 0 .936 2.277l-.481.582a.659.659 0 0 0 .025.885l.278.278a.658.658 0 0 0 .885.025l.557-.481a5.192 5.192 0 0 0 2.277.936l.051.734a.68.68 0 0 0 .658.607h.379a.681.681 0 0 0 .658-.607l.051-.734a5.557 5.557 0 0 0 2.277-.961l.557.481a.659.659 0 0 0 .885-.025l.278-.278a.658.658 0 0 0 .025-.885l-.481-.582c.481-.658.784-1.442.936-2.277l.329-.025.455-.025c.329-.025.379-.329.379-.658.051 0 .051-.379.051-.379z" style="fill:var(--color11, #aeb1b4)"/><path fill="#e8e3e3" d="M23.273 18.036a3.39 3.39 0 1 1-6.78 0 3.39 3.39 0 0 1 6.78 0z" style="fill:var(--color12, #e8e3e3)"/><path d="M5.262 6.274c-.101 0-.177-.051-.228-.152L3.946 3.719c-.202-.43-.278-.582-1.189-.582H.253C.101 3.137 0 3.036 0 2.884V1.619c0-.152.101-.253.253-.253h2.555c1.492 0 2.378.531 2.909 1.695l1.29 2.707c.051.126 0 .278-.126.329s-.278 0-.329-.126l-1.29-2.707c-.43-.987-1.164-1.391-2.454-1.391H.506v.759h2.251c1.037 0 1.315.228 1.644.86l1.088 2.403c.051.126 0 .278-.126.329-.025.051-.051.051-.101.051zM30.255 21.123h-5.338c-.152 0-.253-.101-.253-.253s.101-.253.253-.253h5.338c.329 0 .607-.734.607-1.214V7.59c0-.152.101-.253.253-.253s.253.101.253.253v11.813c0 .708-.405 1.72-1.113 1.72zM14.798 21.123h-2.226c-.683 0-1.417-.632-1.67-1.189L5.564 7.589c-.051-.126 0-.278.126-.329s.278 0 .329.126l5.338 12.345c.202.455.784.885 1.214.885h2.226c.152 0 .253.101.253.253s-.101.253-.253.253zM10.751 30.634c-1.644 0-2.985-1.341-2.985-2.985s1.341-2.985 2.985-2.985 2.985 1.341 2.985 2.985a2.99 2.99 0 0 1-2.985 2.985zm0-5.464c-1.366 0-2.479 1.113-2.479 2.479s1.113 2.479 2.479 2.479 2.479-1.113 2.479-2.479-1.113-2.479-2.479-2.479z" style="fill:var(--color6, #000)"/><path d="M10.751 29.394c-.961 0-1.745-.784-1.745-1.745s.784-1.745 1.745-1.745c.152 0 .253.101.253.253s-.101.253-.253.253c-.683 0-1.24.557-1.24 1.24s.557 1.24 1.24 1.24 1.24-.557 1.24-1.24c0-.152.101-.253.253-.253s.253.101.253.253c0 .961-.784 1.745-1.745 1.745zM29.015 30.634c-1.644 0-2.985-1.341-2.985-2.985s1.341-2.985 2.985-2.985S32 26.005 32 27.649a2.99 2.99 0 0 1-2.985 2.985zm0-5.464c-1.366 0-2.479 1.113-2.479 2.479s1.113 2.479 2.479 2.479 2.479-1.113 2.479-2.479-1.113-2.479-2.479-2.479z" style="fill:var(--color6, #000)"/><path d="M29.015 29.394c-.961 0-1.745-.784-1.745-1.745s.784-1.745 1.745-1.745c.152 0 .253.101.253.253s-.101.253-.253.253c-.683 0-1.24.557-1.24 1.24s.557 1.24 1.24 1.24c.683 0 1.24-.557 1.24-1.24 0-.152.101-.253.253-.253s.253.101.253.253c0 .961-.784 1.745-1.745 1.745zM26.182 28.711H13.534c-.152 0-.253-.101-.253-.253s.101-.253.253-.253h12.648c.152 0 .253.101.253.253s-.101.253-.253.253zM26.182 27.447H13.534c-.152 0-.253-.101-.253-.253s.101-.253.253-.253h12.648c.152 0 .253.101.253.253s-.101.253-.253.253zM11.307 25.119c-.025 0-.076 0-.101-.025-.126-.051-.177-.202-.126-.329l1.619-3.769c.051-.126.202-.177.329-.126s.177.202.126.329l-1.619 3.769c-.051.101-.126.152-.228.152zM12.446 25.651c-.025 0-.076 0-.101-.025-.126-.051-.177-.202-.126-.329l1.872-4.275c.051-.126.202-.177.329-.126s.177.202.126.329L12.674 25.5c-.051.076-.126.152-.228.152zM31.115 7.715H5.06a.761.761 0 0 1-.759-.759v-.253c0-.405.329-.759.759-.759h26.055c.405 0 .759.329.759.759v.253c0 .43-.329.759-.759.759zM5.059 6.451a.254.254 0 0 0-.253.253v.253c0 .126.101.253.253.253h26.055a.254.254 0 0 0 .253-.253v-.253a.254.254 0 0 0-.253-.253H5.059zM19.883 21.679a3.675 3.675 0 0 1-3.086-1.695c-.531-.809-.683-1.796-.481-2.757s.784-1.771 1.594-2.277a3.66 3.66 0 0 1 3.314-.304c.076.025.152.076.228.101.126.051.177.202.126.329s-.202.177-.329.126a.763.763 0 0 1-.202-.101 3.176 3.176 0 0 0-2.858.253 3.19 3.19 0 0 0-1.391 1.973 3.204 3.204 0 0 0 .405 2.353 3.121 3.121 0 0 0 4.326.961 3.19 3.19 0 0 0 1.391-1.973 3.204 3.204 0 0 0-.405-2.353c-.076-.126-.051-.278.076-.354s.278-.051.354.076c.531.809.683 1.796.481 2.757s-.784 1.771-1.594 2.277a3.284 3.284 0 0 1-1.948.607z" style="fill:var(--color6, #000)"/><path d="M20.085 25.17h-.379c-.481 0-.86-.329-.911-.784l-.051-.734a5.917 5.917 0 0 1-2.024-.835l-.43.354a.93.93 0 0 1-1.24-.051l-.278-.278a.93.93 0 0 1-.051-1.24l.354-.43a5.713 5.713 0 0 1-.835-2.024l-.557-.051c-.455-.025-.835-.455-.835-.911v-.379c0-.455.379-.86.835-.911l.582-.051a5.79 5.79 0 0 1 .835-1.998l-.379-.455a.93.93 0 0 1 .051-1.24l.278-.278a.93.93 0 0 1 1.24-.051l.455.405c.582-.379 1.24-.632 1.998-.784l.051-.531c.025-.43.379-.708.911-.708h.379c.506 0 .86.278.911.708l.051.481a5.79 5.79 0 0 1 1.998.835l.455-.379a.93.93 0 0 1 1.24.051l.278.278c.329.329.329.885.051 1.24l-.405.455c.379.582.632 1.24.784 1.998l.481.051c.43.025.658.379.658.911v.379c0 .531-.253.86-.683.911l-.405.051a5.917 5.917 0 0 1-.835 2.024l.354.43a.93.93 0 0 1-.051 1.24l-.278.278a.96.96 0 0 1-1.24.076l-.405-.329c-.658.455-1.341.759-2.024.885l-.051.632c-.025.43-.405.759-.885.759zm-3.389-2.934c.051 0 .101.025.152.051a5.71 5.71 0 0 0 2.175.911.24.24 0 0 1 .202.228l.051.936c.025.202.202.304.405.304h.379c.177 0 .379-.101.405-.329l.051-.835c0-.126.101-.202.202-.228.734-.126 1.467-.43 2.175-.961.101-.076.228-.051.304 0l.557.455a.426.426 0 0 0 .557-.025l.278-.278a.424.424 0 0 0 .025-.557l-.481-.582c-.076-.076-.076-.228-.025-.304a5.145 5.145 0 0 0 .885-2.175c.025-.101.101-.202.228-.202l.582-.051c.051 0 .202-.025.202-.405v-.379c0-.379-.152-.405-.202-.405l-.683-.051c-.126 0-.202-.101-.228-.202-.152-.835-.43-1.543-.86-2.15a.23.23 0 0 1 .025-.304l.531-.582c.126-.152.126-.405-.025-.531l-.278-.278a.39.39 0 0 0-.531-.025l-.582.506c-.076.076-.228.076-.304.025a5.044 5.044 0 0 0-2.15-.885c-.101-.025-.202-.101-.202-.228l-.076-.658c-.025-.228-.278-.253-.405-.253h-.379c-.126 0-.379.025-.405.253l-.076.734c0 .126-.101.202-.202.228a5.2 5.2 0 0 0-2.15.86.23.23 0 0 1-.304-.025l-.607-.531c-.152-.126-.405-.126-.531.025l-.278.278a.39.39 0 0 0-.025.531l.506.582c.076.101.076.228 0 .304a5.044 5.044 0 0 0-.885 2.15c-.025.101-.101.202-.228.202l-.759.051c-.202.025-.379.202-.379.405v.379c0 .202.177.379.379.405l.759.051c.126 0 .202.101.228.202.126.784.43 1.518.885 2.175a.23.23 0 0 1-.025.304l-.481.582a.426.426 0 0 0 .025.557l.278.278c.152.152.379.152.557.025l.557-.481c.101-.051.152-.076.202-.076z" style="fill:var(--color6, #000)"/><path d="M16.443 13.407c-.152 0-.253-.101-.253-.253V9.537c0-.481.405-.86.885-.86s.885.379.885.86v3.364c0 .152-.101.253-.253.253s-.253-.101-.253-.253V9.537c0-.202-.177-.354-.379-.354s-.379.177-.379.354v3.617c0 .152-.101.253-.253.253zM13.154 17.455c-.152 0-.253-.101-.253-.253V9.537c0-.481.405-.86.885-.86s.885.379.885.86v7.159c0 .152-.101.253-.253.253s-.253-.101-.253-.253V9.537c0-.202-.177-.354-.379-.354s-.379.177-.379.354v7.665c0 .152-.101.253-.253.253zM10.498 13.331a.879.879 0 0 1-.885-.885V9.512c0-.481.405-.86.885-.86s.885.379.885.86v2.934a.88.88 0 0 1-.885.885zm0-4.174c-.202 0-.379.177-.379.354v2.934c0 .202.177.379.379.379s.379-.177.379-.379V9.511c0-.177-.177-.354-.379-.354zM21.502 12.901c-.152 0-.253-.101-.253-.253V9.537c0-.202-.177-.354-.379-.354s-.379.177-.379.354v1.847c0 .152-.101.253-.253.253s-.253-.101-.253-.253V9.537c0-.481.405-.86.885-.86s.885.379.885.86v3.111c0 .152-.101.253-.253.253zM25.043 16.443c-.152 0-.253-.101-.253-.253V9.537c0-.202-.177-.354-.379-.354s-.379.177-.379.354v3.364c0 .152-.101.253-.253.253s-.253-.101-.253-.253V9.537c0-.481.405-.86.885-.86s.885.379.885.86v6.653c0 .152-.101.253-.253.253zM27.953 18.896a.879.879 0 0 1-.885-.885v-8.5c0-.481.405-.86.885-.86s.885.379.885.86v8.5a.88.88 0 0 1-.885.885zm0-9.739c-.202 0-.379.177-.379.354v8.5c0 .202.177.379.379.379s.379-.177.379-.379v-8.5c0-.177-.177-.354-.379-.354z" style="fill:var(--color6, #000)"/></symbol><symbol id="icon-cart-col-star" viewBox="0 0 32 32"><path fill="#7d8b95" d="m4.032 3.691 1.083 2.394h1.512L5.342 3.238C4.888 2.23 4.133 1.55 2.671 1.55H.378v1.26h2.243c.957 0 1.159.328 1.411.882z" style="fill:var(--color1, #7d8b95)"/><path fill="#efdc81" d="M12.397 20.699H30.01c.554 0 1.109-.529 1.109-1.083V7.345H5.67l5.342 12.372c.202.504.832.983 1.386.983z" style="fill:var(--color2, #efdc81)"/><path fill="#f4efef" d="M24.441 18.381c.353 0 .63-.277.63-.63V9.537c0-.353-.277-.63-.63-.63s-.63.277-.63.63v8.214c0 .353.277.63.63.63zM27.968 18.633c.353 0 .63-.277.63-.605V9.562c0-.353-.277-.63-.63-.63s-.63.277-.63.63v8.466c0 .328.277.605.63.605zM20.913 18.633c.353 0 .63-.277.63-.605V9.562c0-.353-.277-.63-.63-.63s-.63.277-.63.63v8.466c0 .328.277.605.63.605zM17.134 18.633c.353 0 .63-.277.63-.605V9.562c0-.353-.277-.63-.63-.63s-.63.277-.63.63v8.466c0 .328.277.605.63.605zM13.858 17.121c.353 0 .63-.277.63-.605v-6.98c0-.353-.277-.63-.63-.63s-.63.277-.63.63v6.98c0 .328.277.605.63.605zM11.213 9.537c0-.353-.151-.63-.504-.63s-.504.277-.504.63v2.746c0 .353.151.63.504.63s.504-.277.504-.63V9.537z" style="fill:var(--color3, #f4efef)"/><path fill="#7d8b95" d="M10.835 24.857c-1.512 0-2.721 1.209-2.721 2.721s1.209 2.721 2.721 2.721 2.721-1.209 2.721-2.721a2.725 2.725 0 0 0-2.721-2.721zM29.027 30.324c1.512 0 2.721-1.209 2.721-2.721s-1.209-2.721-2.721-2.721-2.721 1.209-2.721 2.721a2.725 2.725 0 0 0 2.721 2.721z" style="fill:var(--color1, #7d8b95)"/><path fill="#2d414e" d="M5.115 6.085c-.302 0-.454.328-.454.605v.252c0 .277.176.428.454.428h25.902c.277 0 .378-.151.378-.428V6.69c0-.277-.101-.605-.378-.605H5.114z" style="fill:var(--color4, #2d414e)"/><path fill="#f0b551" d="M15.118 22.387c-.202 1.26.529 1.789 1.663 1.209l1.965-1.033 1.209-.63 1.285.68 1.26.655.655.353c1.134.58 1.865.05 1.663-1.209l-.63-3.528.806-.781 1.512-1.487.756-1.487c-.101-.353-.504-.58-1.134-.68l-2.016-.252h-.025v-.101l-1.512-.227-.454-.907-.932-1.89-.479-.857c-.554-.68-1.285-.529-1.764.454l-1.033 2.142-.529 1.109-.882.126-2.671.403c-1.26.176-1.537 1.058-.63 1.94l1.713 1.638.882.857-.176 1.033-.504 2.469z" style="fill:var(--color13, #f0b551)"/><path d="M5.367 6.312c-.101 0-.176-.05-.227-.151L4.057 3.767c-.202-.428-.277-.58-1.184-.58H.253c-.151 0-.252-.101-.252-.252v-1.26c0-.151.101-.252.252-.252h2.671c1.487 0 2.368.529 2.898 1.688l1.285 2.696c.05.126 0 .277-.126.328s-.277 0-.328-.126L5.368 3.288c-.454-.983-1.184-1.386-2.444-1.386H.505v.756h2.369c1.033 0 1.31.227 1.638.882l1.083 2.394c.05.126 0 .277-.126.328-.025.025-.05.05-.101.05zM30.261 21.077h-5.694c-.151 0-.252-.101-.252-.252s.101-.252.252-.252h5.694c.277 0 .479-.63.479-1.209V7.597c0-.151.101-.252.252-.252s.252.101.252.252v11.767c0 .605-.202 1.713-.983 1.713zM15.244 21.077h-2.595c-.68 0-1.386-.605-1.638-1.184L5.669 7.597c-.05-.126 0-.277.126-.328s.277 0 .328.126l5.342 12.296c.176.403.731.882 1.184.882h2.595c.151 0 .252.101.252.252s-.101.252-.252.252zM10.835 30.576c-1.638 0-2.973-1.335-2.973-2.973s1.335-2.973 2.973-2.973 2.973 1.335 2.973 2.973a2.978 2.978 0 0 1-2.973 2.973zm0-5.467c-1.361 0-2.469 1.109-2.469 2.469s1.109 2.469 2.469 2.469 2.469-1.109 2.469-2.469-1.109-2.469-2.469-2.469z" style="fill:var(--color6, #000)"/><path d="M10.835 29.317c-.957 0-1.739-.781-1.739-1.739s.781-1.739 1.739-1.739c.151 0 .252.101.252.252s-.101.252-.252.252c-.68 0-1.235.554-1.235 1.235s.554 1.235 1.235 1.235 1.235-.554 1.235-1.235c0-.151.101-.252.252-.252s.252.101.252.252c0 .957-.781 1.739-1.739 1.739zM29.027 30.576c-1.638 0-2.973-1.335-2.973-2.973s1.335-2.973 2.973-2.973S32 25.965 32 27.603a2.978 2.978 0 0 1-2.973 2.973zm0-5.467c-1.361 0-2.469 1.109-2.469 2.469s1.109 2.469 2.469 2.469 2.469-1.109 2.469-2.469-1.109-2.469-2.469-2.469z" style="fill:var(--color6, #000)"/><path d="M29.027 29.317c-.957 0-1.739-.781-1.739-1.739s.781-1.739 1.739-1.739c.151 0 .252.101.252.252s-.101.252-.252.252c-.68 0-1.235.554-1.235 1.235s.554 1.235 1.235 1.235c.68 0 1.235-.554 1.235-1.235 0-.151.101-.252.252-.252s.252.101.252.252c-.025.957-.781 1.739-1.739 1.739zM26.331 28.636h-12.85c-.151 0-.252-.101-.252-.252s.101-.252.252-.252h12.85c.151 0 .252.101.252.252s-.101.252-.252.252zM26.331 27.376H13.733c-.151 0-.252-.101-.252-.252s.101-.252.252-.252h12.598c.151 0 .252.101.252.252s-.101.252-.252.252zM11.389 25.058c-.025 0-.076 0-.101-.025-.126-.05-.176-.202-.126-.328l1.688-3.931c.05-.126.202-.176.328-.126s.176.202.126.328l-1.688 3.931c-.05.101-.126.151-.227.151zM12.523 25.587c-.025 0-.076 0-.101-.025-.126-.05-.176-.202-.126-.328l1.94-4.46c.05-.126.202-.176.328-.126s.176.202.126.328l-1.94 4.46c-.05.101-.126.151-.227.151zM30.992 7.723H5.039a.759.759 0 0 1-.756-.756v-.252c0-.403.328-.756.756-.756h25.953c.403 0 .756.328.756.756v.252a.743.743 0 0 1-.756.756zM5.039 6.463a.253.253 0 0 0-.252.252v.252c0 .126.101.252.252.252h25.953a.253.253 0 0 0 .252-.252v-.252a.253.253 0 0 0-.252-.252H5.039z" style="fill:var(--color6, #000)"/><path d="M15.924 24.101c-.252 0-.454-.076-.655-.202-.403-.277-.554-.831-.428-1.537l.58-3.427-2.495-2.394-.101-.101c-.428-.454-.58-.957-.454-1.386.151-.454.63-.781 1.335-.882l2.671-.403.756-.101 1.537-3.124c.328-.655.756-1.008 1.26-1.008.479 0 .932.353 1.26.983l1.537 3.099 3.427.479c.706.101 1.184.403 1.335.882.151.454-.05 1.008-.554 1.512l-2.469 2.419.605 3.427c.126.706-.025 1.26-.428 1.537s-.957.277-1.587-.076l-3.074-1.613-3.074 1.613c-.353.202-.68.302-.983.302zm-2.645-7.962 2.62 2.545c.05.05.076.151.076.227l-.605 3.553c-.076.504 0 .882.227 1.058s.63.126 1.058-.101l3.175-1.688a.19.19 0 0 1 .227 0l3.2 1.663c.454.227.831.277 1.058.101s.302-.554.227-1.058l-.63-3.553a.204.204 0 0 1 .076-.227l2.57-2.52c.353-.353.529-.706.428-.983s-.428-.454-.932-.529l-3.553-.504c-.076 0-.151-.076-.202-.126l-1.613-3.225c-.227-.454-.529-.706-.806-.706s-.58.252-.806.731l-1.587 3.225c-.025.076-.101.126-.202.126l-3.553.529c-.504.076-.832.277-.932.529-.025.227.126.58.479.932z" style="fill:var(--color6, #000)"/><path d="M16.63 14.148c-.151 0-.252-.101-.252-.252V9.512c0-.479.403-.882.882-.882s.882.378.882.882v3.124c0 .151-.101.252-.252.252s-.252-.101-.252-.252V9.512c0-.202-.176-.378-.378-.378s-.378.176-.378.378v4.384c0 .151-.101.252-.252.252zM13.354 14.652c-.151 0-.252-.101-.252-.252V9.512c0-.479.403-.882.882-.882s.882.378.882.882v4.636c0 .151-.101.252-.252.252s-.252-.101-.252-.252V9.512c0-.202-.176-.378-.378-.378s-.378.176-.378.378V14.4c0 .151-.101.252-.252.252zM10.709 13.317a.876.876 0 0 1-.882-.882V9.512c0-.479.403-.882.882-.882s.882.378.882.882v2.923a.876.876 0 0 1-.882.882zm0-4.158a.387.387 0 0 0-.378.378v2.923c0 .202.176.378.378.378s.378-.176.378-.378V9.537a.37.37 0 0 0-.378-.378zM21.669 12.132c-.151 0-.252-.101-.252-.252V9.512c0-.202-.176-.378-.378-.378s-.378.176-.378.378v.353c0 .151-.101.252-.252.252s-.252-.101-.252-.252v-.353c0-.479.403-.882.882-.882s.882.378.882.882v2.369c0 .151-.101.252-.252.252zM25.197 14.4c-.151 0-.252-.101-.252-.252V9.512c0-.202-.176-.378-.378-.378s-.378.176-.378.378v4.384c0 .151-.101.252-.252.252s-.252-.101-.252-.252V9.512c0-.479.403-.882.882-.882s.882.378.882.882v4.636c0 .151-.101.252-.252.252zM28.095 18.86a.876.876 0 0 1-.882-.882V9.512c0-.479.403-.882.882-.882s.882.378.882.882v8.466a.876.876 0 0 1-.882.882zm0-9.701a.387.387 0 0 0-.378.378v8.466c0 .202.176.378.378.378s.378-.176.378-.378V9.537a.37.37 0 0 0-.378-.378z" style="fill:var(--color6, #000)"/></symbol><symbol id="icon-cart-col-upl" viewBox="0 0 32 32"><path fill="#7d8b95" d="m4.032 4.129 1.083 2.394h1.512L5.342 3.676c-.454-1.008-1.209-1.688-2.671-1.688H.378v1.26h2.243c.957 0 1.159.328 1.411.882z" style="fill:var(--color1, #7d8b95)"/><path fill="#efdc81" d="M12.397 21.137H30.01c.554 0 1.109-.454 1.109-1.008V7.783H5.67l5.342 12.372c.202.504.832.983 1.386.983z" style="fill:var(--color2, #efdc81)"/><path fill="#f4efef" d="M24.441 19.121c.353 0 .63-.277.63-.63v-8.466c0-.353-.277-.63-.63-.63s-.63.277-.63.63v8.466c0 .353.277.63.63.63zM28.22 19.121c.353 0 .63-.277.63-.63v-8.466c0-.353-.277-.63-.63-.63s-.63.277-.63.63v8.466c0 .353.277.63.63.63zM20.913 19.121c.353 0 .63-.277.63-.63v-3.402h-1.26v3.427c0 .328.277.605.63.605zM17.134 19.121c.353 0 .63-.277.63-.63v-3.402h-1.26v3.427c0 .328.277.605.63.605zM13.858 19.121c.353 0 .63-.277.63-.63v-3.402l-1.26.025v3.402c0 .328.277.605.63.605zM11.213 10.025c0-.353-.151-.63-.504-.63s-.504.277-.504.63v2.746c0 .353.151.63.504.63s.504-.277.504-.63v-2.746z" style="fill:var(--color3, #f4efef)"/><path fill="#7d8b95" d="M10.835 25.37c-1.512 0-2.721 1.209-2.721 2.721s1.209 2.721 2.721 2.721 2.721-1.209 2.721-2.721a2.71 2.71 0 0 0-2.721-2.721zM29.027 30.813c1.512 0 2.721-1.209 2.721-2.721s-1.209-2.721-2.721-2.721-2.721 1.209-2.721 2.721 1.209 2.721 2.721 2.721z" style="fill:var(--color1, #7d8b95)"/><path fill="#2d414e" d="M11.817 6.523H5.089c-.277 0-.454.378-.454.655v.252c0 .277.176.353.454.353h6.098l.63-1.26zM31.244 6.523h-6.778l.857 1.26h5.946c.277 0 .378-.076.378-.353v-.252c-.025-.277-.126-.655-.403-.655z" style="fill:var(--color4, #2d414e)"/><path fill="#df5c4e" d="m18.318 1.08-5.493 6.702h2.167v6.047h6.551V7.782h2.268z" style="fill:var(--color5, #df5c4e)"/><path d="M17.26 19.373a.876.876 0 0 1-.882-.882v-3.553c0-.151.101-.252.252-.252h1.26c.151 0 .252.101.252.252v3.553a.876.876 0 0 1-.882.882zm-.378-4.157v3.301c0 .202.176.378.378.378s.378-.176.378-.378v-3.301h-.756zM13.984 19.373a.876.876 0 0 1-.882-.882v-3.553c0-.151.101-.252.252-.252h1.26c.151 0 .252.101.252.252v3.553a.876.876 0 0 1-.882.882zm-.378-4.157v3.301c0 .202.176.378.378.378s.378-.176.378-.378v-3.301h-.756zM10.709 13.83a.876.876 0 0 1-.882-.882v-2.923c0-.479.403-.882.882-.882s.882.378.882.882v2.923a.876.876 0 0 1-.882.882zm0-4.158a.387.387 0 0 0-.378.378v2.923c0 .202.176.378.378.378s.378-.176.378-.378V10.05a.387.387 0 0 0-.378-.378zM21.039 19.373a.876.876 0 0 1-.882-.882v-3.553c0-.151.101-.252.252-.252h1.26c.151 0 .252.101.252.252v3.553a.876.876 0 0 1-.882.882zm-.378-4.157v3.301c0 .202.176.378.378.378s.378-.176.378-.378v-3.301h-.756zM24.567 19.373a.876.876 0 0 1-.882-.882v-8.466c0-.479.403-.882.882-.882s.882.378.882.882v8.466a.876.876 0 0 1-.882.882zm0-9.701a.387.387 0 0 0-.378.378v8.466c0 .202.176.378.378.378s.378-.176.378-.378V10.05a.387.387 0 0 0-.378-.378zM28.095 19.373a.876.876 0 0 1-.882-.882v-8.466c0-.479.403-.882.882-.882s.882.378.882.882v8.466a.876.876 0 0 1-.882.882zm0-9.701a.387.387 0 0 0-.378.378v8.466c0 .202.176.378.378.378s.378-.176.378-.378V10.05a.387.387 0 0 0-.378-.378zM5.367 6.775c-.101 0-.176-.05-.227-.151L4.057 4.23c-.202-.428-.302-.605-1.184-.605H.253c-.151 0-.252-.101-.252-.252v-1.26c0-.151.101-.252.252-.252h2.671c1.461 0 2.368.554 2.898 1.713L7.107 6.32c.05.126 0 .277-.126.328s-.277 0-.328-.126L5.368 3.776C4.914 2.768 4.184 2.34 2.924 2.34H.505v.756h2.369c1.008 0 1.31.227 1.638.907l1.083 2.394c.05.126 0 .277-.126.328-.025.05-.05.05-.101.05z" style="fill:var(--color6, #000)"/><path d="M10.961 8.161h-5.72c-.403 0-.957-.428-.957-.857v-.252c0-.428.479-.655.957-.655h6.476c.151 0 .252.101.252.252s-.101.252-.252.252H5.241c-.227 0-.428.101-.454.151v.252c0 .101.277.353.454.353h5.72c.151 0 .252.101.252.252s-.101.252-.252.252zM31.118 8.161h-5.543c-.151 0-.252-.101-.252-.252s.101-.252.252-.252h5.543c.05 0 .126-.151.126-.353v-.252c0-.101 0-.151-.176-.151h-6.249c-.151 0-.252-.101-.252-.252s.101-.252.252-.252h6.249c.428 0 .68.252.68.655v.252c0 .504-.252.857-.63.857z" style="fill:var(--color6, #000)"/><path d="M30.261 21.515H12.648c-.68 0-1.461-.756-1.688-1.31L5.795 8.186c-.05-.126 0-.277.126-.328s.277 0 .328.126l5.165 12.019c.202.454.806 1.008 1.235 1.008h17.613c.328 0 .479-.655.479-1.134V8.034c0-.151.101-.252.252-.252s.252.101.252.252v11.843c0 .781-.302 1.638-.983 1.638zM10.835 31.065c-1.638 0-2.973-1.335-2.973-2.973s1.335-2.973 2.973-2.973 2.973 1.335 2.973 2.973-1.335 2.973-2.973 2.973zm0-5.443c-1.361 0-2.469 1.109-2.469 2.469s1.109 2.469 2.469 2.469 2.469-1.109 2.469-2.469-1.109-2.469-2.469-2.469z" style="fill:var(--color6, #000)"/><path d="M10.835 29.805c-.957 0-1.739-.781-1.739-1.739s.781-1.739 1.739-1.739c.151 0 .252.101.252.252s-.101.252-.252.252c-.68 0-1.235.554-1.235 1.235s.554 1.235 1.235 1.235 1.235-.554 1.235-1.235c0-.151.101-.252.252-.252s.252.101.252.252c0 .983-.781 1.739-1.739 1.739zM29.027 31.065c-1.638 0-2.973-1.335-2.973-2.973s1.335-2.973 2.973-2.973S32 26.454 32 28.092s-1.335 2.973-2.973 2.973zm0-5.443c-1.361 0-2.469 1.109-2.469 2.469s1.109 2.469 2.469 2.469 2.469-1.109 2.469-2.469-1.109-2.469-2.469-2.469z" style="fill:var(--color6, #000)"/><path d="M29.027 29.805c-.957 0-1.739-.781-1.739-1.739s.781-1.739 1.739-1.739c.151 0 .252.101.252.252s-.101.252-.252.252c-.68 0-1.235.554-1.235 1.235s.554 1.235 1.235 1.235c.68 0 1.235-.554 1.235-1.235 0-.151.101-.252.252-.252s.252.101.252.252c-.025.983-.781 1.739-1.739 1.739zM26.331 29.074h-12.85c-.151 0-.252-.101-.252-.252s.101-.252.252-.252h12.85c.151 0 .252.101.252.252s-.101.252-.252.252zM26.331 27.814H13.733c-.151 0-.252-.101-.252-.252s.101-.252.252-.252h12.598c.151 0 .252.101.252.252s-.101.252-.252.252zM12.523 26.076c-.025 0-.076 0-.101-.025-.126-.05-.176-.202-.126-.328l1.94-4.51c.05-.126.202-.176.328-.126s.176.202.126.328l-1.94 4.51c-.05.101-.126.151-.227.151zM11.389 25.572c-.025 0-.076 0-.101-.025-.126-.05-.176-.202-.126-.328l1.663-3.88c.05-.126.202-.176.328-.126s.176.202.126.328l-1.663 3.88c-.05.076-.126.151-.227.151zM21.417 14.208h-6.551c-.151 0-.252-.101-.252-.252V8.161h-1.789c-.101 0-.176-.05-.227-.151-.05-.076-.025-.202.025-.277l5.493-6.702c.101-.126.302-.126.378 0l5.493 6.702a.27.27 0 0 1 .025.277c-.05.076-.126.151-.227.151h-2.142v5.795c.025.151-.076.252-.227.252zm-6.299-.504h6.047V7.909c0-.151.101-.252.252-.252h1.865L18.318 1.61l-4.964 6.047h1.487c.151 0 .252.101.252.252v5.795h.025z" style="fill:var(--color6, #000)"/></symbol><symbol id="icon-cart-col-warn" viewBox="0 0 32 32"><path fill="#7d8b95" d="m4.032 3.767 1.083 2.394h1.512L5.342 3.314c-.454-1.008-1.209-1.688-2.671-1.688H.378v1.26h2.243c.957 0 1.159.328 1.411.882z" style="fill:var(--color1, #7d8b95)"/><path fill="#efdc81" d="M12.649 20.523h17.613c.554 0 1.109-.428 1.109-.957V7.169H5.922l5.342 12.372c.202.504.832.983 1.386.983z" style="fill:var(--color2, #efdc81)"/><path fill="#f4efef" d="M24.693 18.809c.353 0 .63-.277.63-.63V9.713c0-.353-.277-.63-.63-.63s-.63.277-.63.63v8.466c0 .353.277.63.63.63zM28.22 18.809c.353 0 .63-.277.63-.63V9.713c0-.353-.277-.63-.63-.63s-.63.277-.63.63v8.466c0 .353.277.63.63.63zM20.913 18.809c.353 0 .63-.277.63-.63V9.713c0-.353-.277-.63-.63-.63s-.63.277-.63.63v8.466c0 .353.277.63.63.63zM17.386 18.809c.353 0 .63-.277.63-.63V9.713c0-.353-.277-.63-.63-.63s-.63.277-.63.63v8.466c0 .353.277.63.63.63zM13.858 18.809c.353 0 .63-.277.63-.63V9.713c0-.353-.277-.63-.63-.63s-.63.277-.63.63v8.466c0 .353.277.63.63.63zM11.213 9.713c0-.353-.151-.63-.504-.63s-.504.277-.504.63v2.746c0 .353.151.605.504.605s.504-.277.504-.605V9.713z" style="fill:var(--color3, #f4efef)"/><path fill="#7d8b95" d="M10.835 25.058c-1.512 0-2.721 1.209-2.721 2.721S9.323 30.5 10.835 30.5s2.721-1.209 2.721-2.721-1.209-2.721-2.721-2.721zM29.027 30.501c1.512 0 2.721-1.209 2.721-2.721s-1.209-2.721-2.721-2.721-2.721 1.209-2.721 2.721a2.71 2.71 0 0 0 2.721 2.721z" style="fill:var(--color1, #7d8b95)"/><path fill="#2d414e" d="M5.115 5.909c-.302 0-.454.428-.454.705v.252c0 .277.176.302.454.302h25.902c.277 0 .378-.025.378-.302v-.252c0-.277-.101-.705-.378-.705H5.115z" style="fill:var(--color4, #2d414e)"/><path fill="#f0b551" d="M12.624 21.556c-.68 1.109-.176 1.991 1.134 1.991h12.548c1.31 0 1.814-.907 1.134-1.991l-6.299-9.953-.378-.479c-.655-.479-1.461-.302-1.991.554l-6.148 9.877z" style="fill:var(--color13, #f0b551)"/><path d="M5.291 6.211c-.101 0-.202-.05-.227-.151L4.056 3.767c-.252-.504-.378-.756-1.184-.756H.252C.101 3.011 0 2.91 0 2.759v-1.26c0-.151.101-.252.252-.252h2.671c1.386 0 2.343.605 2.898 1.865L7.03 5.808c.05.126 0 .277-.126.328s-.277 0-.328-.126L5.367 3.314c-.479-1.083-1.235-1.562-2.444-1.562H.504v.756h2.369c1.134 0 1.361.504 1.638 1.058l1.008 2.293c.05.126 0 .277-.126.328-.025.025-.076.025-.101.025zM30.261 20.901h-3.175c-.151 0-.252-.101-.252-.252s.101-.252.252-.252h3.175c.428 0 .479-.58.479-.831V7.421c0-.151.101-.252.252-.252s.252.101.252.252v12.145c0 .831-.378 1.335-.983 1.335zM12.976 20.901h-.328c-.655 0-1.386-.479-1.663-1.083L5.618 7.522c-.05-.126 0-.277.126-.328s.277 0 .328.126l5.367 12.296c.176.403.756.781 1.184.781h.328c.151 0 .252.101.252.252s-.076.252-.227.252zM10.835 30.753c-1.638 0-2.973-1.335-2.973-2.973s1.335-2.973 2.973-2.973 2.973 1.335 2.973 2.973a2.978 2.978 0 0 1-2.973 2.973zm0-5.443c-1.361 0-2.469 1.109-2.469 2.469s1.109 2.469 2.469 2.469 2.469-1.109 2.469-2.469-1.109-2.469-2.469-2.469z" style="fill:var(--color6, #000)"/><path d="M10.835 29.493c-.957 0-1.739-.781-1.739-1.739s.781-1.739 1.739-1.739c.151 0 .252.101.252.252s-.101.252-.252.252c-.68 0-1.235.554-1.235 1.235s.554 1.235 1.235 1.235 1.235-.554 1.235-1.235c0-.151.101-.252.252-.252s.252.101.252.252c0 .983-.781 1.739-1.739 1.739zM29.027 30.753c-1.638 0-2.973-1.335-2.973-2.973s1.335-2.973 2.973-2.973S32 26.142 32 27.78a2.978 2.978 0 0 1-2.973 2.973zm0-5.443c-1.361 0-2.469 1.109-2.469 2.469s1.109 2.469 2.469 2.469 2.469-1.109 2.469-2.469-1.109-2.469-2.469-2.469z" style="fill:var(--color6, #000)"/><path d="M29.027 29.493c-.957 0-1.739-.781-1.739-1.739s.781-1.739 1.739-1.739c.151 0 .252.101.252.252s-.101.252-.252.252c-.68 0-1.235.554-1.235 1.235s.554 1.235 1.235 1.235c.68 0 1.235-.554 1.235-1.235 0-.151.101-.252.252-.252s.252.101.252.252c-.025.983-.781 1.739-1.739 1.739zM26.331 28.712h-12.85c-.151 0-.252-.101-.252-.252s.101-.252.252-.252h12.85c.151 0 .252.101.252.252s-.101.252-.252.252zM26.331 27.452H13.733c-.151 0-.252-.101-.252-.252s.101-.252.252-.252h12.598c.151 0 .252.101.252.252s-.101.252-.252.252zM11.389 25.26c-.025 0-.076 0-.101-.025-.126-.05-.176-.202-.126-.328l.932-2.192c.05-.126.202-.176.328-.126s.176.202.126.328l-.932 2.192c-.05.076-.126.151-.227.151zM12.523 25.764c-.025 0-.076 0-.101-.025-.126-.05-.176-.202-.126-.328l.731-1.713c.05-.126.202-.176.328-.126s.176.202.126.328l-.731 1.713c-.05.101-.126.151-.227.151zM30.992 7.546H5.039a.759.759 0 0 1-.756-.756v-.252c0-.403.328-.756.756-.756h25.953c.403 0 .756.328.756.756v.252a.743.743 0 0 1-.756.756zM5.039 6.287a.253.253 0 0 0-.252.252v.252c0 .126.101.252.252.252h25.953a.253.253 0 0 0 .252-.252v-.252a.253.253 0 0 0-.252-.252H5.039z" style="fill:var(--color6, #000)"/><path d="M26.305 23.924H13.757c-.68 0-1.235-.277-1.512-.781s-.227-1.184.176-1.814l6.123-9.953c.403-.63.957-1.008 1.512-1.008.554 0 1.058.328 1.411.907l1.512 2.419 4.661 7.635c.403.63.454 1.285.176 1.814-.277.504-.806.781-1.512.781zm-6.223-13.026c-.403 0-.806.277-1.083.756l-6.123 9.953c-.302.479-.353.957-.151 1.285.176.328.554.504 1.083.504h12.548c.504 0 .882-.176 1.083-.504.202-.353.126-.831-.151-1.285l-4.661-7.635-1.512-2.419c-.328-.403-.68-.655-1.033-.655z" style="fill:var(--color6, #000)"/><path d="M20.157 19.263c-.151 0-.252-.101-.252-.252v-5.039c0-.151.101-.252.252-.252s.252.101.252.252v5.039c0 .151-.101.252-.252.252zM20.157 21.128c-.076 0-.126-.025-.176-.076s-.076-.126-.076-.176c0-.076.025-.126.076-.176a.244.244 0 0 1 .353 0c.05.05.076.101.076.176s-.025.126-.076.176a.23.23 0 0 1-.176.076zM16.63 14.98c-.151 0-.252-.101-.252-.252V9.739c0-.479.403-.882.882-.882s.882.378.882.882v2.973c0 .151-.101.252-.252.252s-.252-.101-.252-.252V9.739c0-.202-.176-.378-.378-.378s-.378.176-.378.378v4.989c0 .151-.101.252-.252.252zM13.984 19.087c-.479 0-.882-.378-.882-.857V9.764c0-.479.403-.882.882-.882s.882.378.882.882v8.239c0 .151-.101.252-.252.252s-.252-.101-.252-.252V9.738c0-.202-.176-.378-.378-.378s-.378.176-.378.378v8.466c0 .202.176.353.378.353.151 0 .252.101.252.252s-.101.277-.252.277zM10.709 13.543a.876.876 0 0 1-.882-.882V9.738c0-.479.403-.882.882-.882s.882.378.882.882v2.923a.893.893 0 0 1-.882.882zm0-4.182a.387.387 0 0 0-.378.378v2.923c0 .202.176.378.378.378s.378-.176.378-.353V9.764c0-.227-.176-.403-.378-.403zM21.669 12.208c-.151 0-.252-.101-.252-.252V9.739c0-.202-.176-.378-.378-.378s-.378.176-.378.378v.706c0 .151-.101.252-.252.252s-.252-.101-.252-.252v-.706c0-.479.403-.882.882-.882s.882.378.882.882v2.217c0 .151-.101.252-.252.252zM25.197 17.751c-.151 0-.252-.101-.252-.252V9.738c0-.202-.176-.378-.378-.378s-.378.176-.378.378v5.745c0 .151-.101.252-.252.252s-.252-.101-.252-.252V9.738c0-.479.403-.882.882-.882s.882.378.882.882v7.761c0 .151-.101.252-.252.252zM28.095 19.087a.876.876 0 0 1-.882-.882V9.739c0-.479.403-.882.882-.882s.882.378.882.882v8.466a.893.893 0 0 1-.882.882zm0-9.726a.387.387 0 0 0-.378.378v8.466c0 .202.176.378.378.378s.378-.176.378-.378V9.739a.387.387 0 0 0-.378-.378z" style="fill:var(--color6, #000)"/></symbol></defs></svg>