<svg aria-hidden="true" style="position: absolute; width: 0; height: 0; overflow: hidden;" version="1.1" xmlns="http://www.w3.org/2000/svg" xmlns:xlink="http://www.w3.org/1999/xlink">
<defs>
<symbol id="icon-cart-empty" viewBox="0 0 32 32">
<path d="M29.333 2c-1.29 0-2.366 0.915-2.613 2.132l-1.603 0.534h-21.759c-2.208 0-3.816 2.075-3.241 4.209l2.599 9.31c0.391 1.453 1.72 2.472 3.237 2.472l16.712 0.008c0 0 0 0 0 0s0 0 0 0c1.105 0 2 0.895 2 2s-0.895 2-2 2h-0.228c-0.549-1.554-2.030-2.667-3.771-2.667s-3.223 1.113-3.771 2.667h-4.457c-0.549-1.554-2.030-2.667-3.771-2.667s-3.223 1.113-3.772 2.667h-1.562c-0.736 0-1.333 0.597-1.333 1.333s0.597 1.333 1.333 1.333h1.562c0.549 1.554 2.030 2.667 3.772 2.667s3.223-1.113 3.771-2.667h4.457c0.549 1.554 2.030 2.667 3.771 2.667s3.223-1.113 3.771-2.667h0.228c2.578 0 4.667-2.089 4.667-4.667 0-2.026-1.291-3.749-3.095-4.395l2.25-11.251 1.075-0.358c0.471 0.418 1.090 0.672 1.769 0.672 1.473 0 2.667-1.193 2.667-2.667s-1.193-2.667-2.667-2.667zM6.667 27.333c-0.737 0-1.333-0.596-1.333-1.333s0.596-1.333 1.333-1.333c0.706 0 1.281 0.547 1.329 1.241-0.002 0.031-0.005 0.061-0.005 0.093s0.003 0.062 0.005 0.093c-0.048 0.693-0.623 1.241-1.329 1.241zM18.667 27.333c-0.737 0-1.333-0.596-1.333-1.333s0.596-1.333 1.333-1.333 1.333 0.596 1.333 1.333-0.596 1.333-1.333 1.333zM5.288 17.482l-2.599-9.311c-0.113-0.421 0.209-0.837 0.669-0.837h20.349l-2.133 10.666-15.619-0.008c-0.312 0-0.586-0.21-0.666-0.51z"></path>
</symbol>
<symbol id="icon-cart-full" viewBox="0 0 32 32">
<path d="M29.333 3.954c-1.29 0-2.366 0.915-2.613 2.132l-1.603 0.534h-1.117v-2.161c0-1.015-0.824-1.839-1.839-1.839h-7.708l-0.374-1.26c-0.287-0.973-1.315-1.53-2.289-1.237l-7.817 2.386c-0.964 0.288-1.517 1.308-1.231 2.28l0.584 1.832c-2.191 0.020-3.781 2.085-3.209 4.208l2.599 9.31c0.391 1.453 1.72 2.472 3.237 2.472l16.712 0.008c0 0 0 0 0 0s0 0 0 0c1.105 0 2 0.895 2 2s-0.895 2-2 2h-0.228c-0.549-1.554-2.030-2.667-3.771-2.667s-3.223 1.113-3.771 2.667h-4.457c-0.549-1.554-2.030-2.667-3.771-2.667s-3.222 1.113-3.771 2.667h-1.562c-0.736 0-1.333 0.597-1.333 1.333s0.597 1.333 1.333 1.333h1.562c0.549 1.554 2.030 2.667 3.772 2.667s3.223-1.113 3.771-2.667h4.457c0.549 1.554 2.030 2.667 3.771 2.667s3.223-1.113 3.771-2.667h0.228c2.578 0 4.667-2.089 4.667-4.667 0-2.026-1.291-3.749-3.095-4.395l2.25-11.251 1.075-0.358c0.471 0.418 1.090 0.672 1.769 0.672 1.473 0 2.667-1.193 2.667-2.667s-1.193-2.667-2.667-2.667zM6.667 29.287c-0.737 0-1.333-0.596-1.333-1.333s0.596-1.333 1.333-1.333c0.706 0 1.281 0.547 1.329 1.241-0.002 0.031-0.005 0.061-0.005 0.093s0.003 0.062 0.005 0.093c-0.048 0.693-0.623 1.241-1.329 1.241zM18.667 29.287c-0.737 0-1.333-0.596-1.333-1.333s0.596-1.333 1.333-1.333 1.333 0.596 1.333 1.333-0.596 1.333-1.333 1.333zM21.333 5.288v1.333h-5.692l-0.396-1.333h6.088zM12.86 6.621h-6.735l-0.576-1.804 6.211-1.896 1.099 3.7zM5.288 19.436l-2.599-9.311c-0.113-0.421 0.209-0.837 0.669-0.837h11.279c0.003 0 0.007 0 0.010 0h8.020c0.003 0 0.005-0 0.008-0h1.033l-2.133 10.666-15.619-0.008c-0.312 0-0.586-0.21-0.666-0.51z"></path>
</symbol>
</defs>
</svg>
