<svg aria-hidden="true" style="position: absolute; width: 0; height: 0; overflow: hidden;" version="1.1" xmlns="http://www.w3.org/2000/svg" xmlns:xlink="http://www.w3.org/1999/xlink">
<defs>
<symbol id="icon-cart-bw-check" viewBox="0 0 32 32">
<path d="M9 24.006c-1.645 0-3 1.355-3 3s1.355 3 3 3c1.645 0 3-1.355 3-3s-1.355-3-3-3zM9 26.006c0.564 0 1 0.436 1 1s-0.436 1-1 1c-0.564 0-1-0.436-1-1s0.436-1 1-1z"></path>
<path d="M23 24.006c-1.645 0-3 1.355-3 3s1.355 3 3 3c1.645 0 3-1.355 3-3s-1.355-3-3-3zM23 26.006c0.564 0 1 0.436 1 1s-0.436 1-1 1c-0.564 0-1-0.436-1-1s0.436-1 1-1z"></path>
<path d="M24 2.006c-3.302 0-6 2.698-6 6s2.698 6 6 6c3.302 0 6-2.698 6-6s-2.698-6-6-6zM24 4.006c2.221 0 4 1.779 4 4s-1.779 4-4 4c-2.221 0-4-1.779-4-4s1.779-4 4-4z"></path>
<path d="M26.102 6.012c-0.031-0.003-0.067-0.005-0.104-0.005-0.24 0-0.46 0.085-0.633 0.226l0.002-0.001-2.029 1.656-0.656-0.611c-0.178-0.166-0.418-0.268-0.682-0.268-0.288 0-0.548 0.122-0.73 0.317l-0 0.001c-0.166 0.178-0.268 0.418-0.268 0.682 0 0.288 0.122 0.548 0.317 0.73l0.001 0.001 1.293 1.209c0.178 0.166 0.418 0.268 0.681 0.268 0.24 0 0.461-0.085 0.633-0.226l-0.002 0.001 2.709-2.207c0.225-0.185 0.367-0.463 0.367-0.774 0-0.24-0.085-0.461-0.226-0.634l0.001 0.002c-0.164-0.2-0.401-0.335-0.669-0.363l-0.004-0z"></path>
<path d="M3.049 2c-0.552 0-1 0.448-1 1v0c0 0.552 0.448 1 1 1v0h1.18l2.65 13.242c-1.071 0.46-1.83 1.527-1.83 2.758 0 1.645 1.355 3 3 3h17c0.552 0 1-0.448 1-1v0c0-0.552-0.448-1-1-1v0h-17c-0.571 0-1-0.429-1-1s0.429-1 1-1h15c0.016-0.003 0.026-0.005 0.036-0.007l-0.007 0.001h2.971c0 0 0 0 0 0 0.497 0 0.91-0.363 0.987-0.838l0.001-0.006 0.939-5.969c0.008-0.047 0.012-0.101 0.012-0.157 0-0.497-0.363-0.91-0.839-0.987l-0.006-0.001c-0.047-0.008-0.101-0.012-0.156-0.012-0.498 0-0.911 0.364-0.987 0.841l-0.001 0.006-0.807 5.123h-16.324l-1.801-8.994h12.084c0.552 0 1-0.448 1-1v0c0-0.552-0.448-1-1-1v0h-12.484l-0.639-3.195c-0.094-0.462-0.497-0.804-0.98-0.805h-0z"></path>
</symbol>
<symbol id="icon-cart-bw-cross" viewBox="0 0 32 32">
<path d="M9 24.006c-1.645 0-3 1.355-3 3s1.355 3 3 3c1.645 0 3-1.355 3-3s-1.355-3-3-3zM9 26.006c0.564 0 1 0.436 1 1s-0.436 1-1 1c-0.564 0-1-0.436-1-1s0.436-1 1-1z"></path>
<path d="M23 24.006c-1.645 0-3 1.355-3 3s1.355 3 3 3c1.645 0 3-1.355 3-3s-1.355-3-3-3zM23 26.006c0.564 0 1 0.436 1 1s-0.436 1-1 1c-0.564 0-1-0.436-1-1s0.436-1 1-1z"></path>
<path d="M24 2.006c-3.302 0-6 2.698-6 6s2.698 6 6 6c3.302 0 6-2.698 6-6s-2.698-6-6-6zM24 4.006c2.221 0 4 1.779 4 4s-1.779 4-4 4c-2.221 0-4-1.779-4-4s1.779-4 4-4z"></path>
<path d="M22.586 5.592c-0.276 0-0.526 0.112-0.707 0.293v0c-0.181 0.181-0.293 0.431-0.293 0.707s0.112 0.526 0.293 0.707l0.707 0.707-0.707 0.707c-0.181 0.181-0.293 0.431-0.293 0.707s0.112 0.526 0.293 0.707v0c0.181 0.181 0.431 0.293 0.707 0.293s0.526-0.112 0.707-0.293l0.707-0.707 0.707 0.707c0.181 0.181 0.431 0.293 0.707 0.293s0.526-0.112 0.707-0.293v0c0.181-0.181 0.293-0.431 0.293-0.707s-0.112-0.526-0.293-0.707l-0.707-0.707 0.707-0.707c0.181-0.181 0.293-0.431 0.293-0.707s-0.112-0.526-0.293-0.707v0c-0.181-0.181-0.431-0.293-0.707-0.293v0c-0.276 0-0.526 0.112-0.707 0.293l-0.707 0.707-0.707-0.707c-0.181-0.181-0.431-0.293-0.707-0.293v0z"></path>
<path d="M3.018 2.006c-0.552 0-1 0.448-1 1v0c0 0.552 0.448 1 1 1v0h1.18l2.65 13.242c-1.071 0.46-1.83 1.527-1.83 2.758 0 1.645 1.355 3 3 3h17c0.552 0 1-0.448 1-1v0c0-0.552-0.448-1-1-1v0h-17c-0.571 0-1-0.429-1-1s0.429-1 1-1h15c0.016-0.003 0.026-0.005 0.036-0.007l-0.007 0.001h2.971c0 0 0 0 0 0 0.497 0 0.91-0.363 0.987-0.838l0.001-0.006 0.939-5.969c0.008-0.047 0.012-0.101 0.012-0.157 0-0.497-0.363-0.91-0.839-0.987l-0.006-0.001c-0.047-0.008-0.101-0.012-0.156-0.012-0.498 0-0.911 0.364-0.987 0.841l-0.001 0.006-0.807 5.123h-16.324l-1.801-8.994h12.084c0.552 0 1-0.448 1-1v0c0-0.552-0.448-1-1-1v0h-12.484l-0.639-3.195c-0.094-0.462-0.497-0.804-0.98-0.805h-0z"></path>
</symbol>
<symbol id="icon-cart-bw-minus" viewBox="0 0 32 32">
<path d="M9 24.006c-1.645 0-3 1.355-3 3s1.355 3 3 3c1.645 0 3-1.355 3-3s-1.355-3-3-3zM9 26.006c0.564 0 1 0.436 1 1s-0.436 1-1 1c-0.564 0-1-0.436-1-1s0.436-1 1-1z"></path>
<path d="M23 24.006c-1.645 0-3 1.355-3 3s1.355 3 3 3c1.645 0 3-1.355 3-3s-1.355-3-3-3zM23 26.006c0.564 0 1 0.436 1 1s-0.436 1-1 1c-0.564 0-1-0.436-1-1s0.436-1 1-1z"></path>
<path d="M24 2.006c-3.302 0-6 2.698-6 6s2.698 6 6 6c3.302 0 6-2.698 6-6s-2.698-6-6-6zM24 4.006c2.221 0 4 1.779 4 4s-1.779 4-4 4c-2.221 0-4-1.779-4-4s1.779-4 4-4z"></path>
<path d="M22 7.006c-0.552 0-1 0.448-1 1v0c0 0.552 0.448 1 1 1v0h4c0.552 0 1-0.448 1-1v0c0-0.552-0.448-1-1-1v0z"></path>
<path d="M3 2.006c-0.552 0-1 0.448-1 1v0c0 0.552 0.448 1 1 1v0h1.18l2.65 13.242c-1.071 0.46-1.83 1.527-1.83 2.758 0 1.645 1.355 3 3 3h17c0.552 0 1-0.448 1-1v0c0-0.552-0.448-1-1-1v0h-17c-0.571 0-1-0.429-1-1s0.429-1 1-1h15c0.016-0.003 0.026-0.005 0.036-0.007l-0.007 0.001h2.971c0 0 0 0 0 0 0.497 0 0.91-0.363 0.987-0.838l0.001-0.006 0.939-5.969c0.008-0.047 0.012-0.101 0.012-0.157 0-0.497-0.363-0.91-0.839-0.987l-0.006-0.001c-0.047-0.008-0.101-0.012-0.156-0.012-0.498 0-0.911 0.364-0.987 0.841l-0.001 0.006-0.807 5.123h-16.324l-1.801-8.994h12.084c0.552 0 1-0.448 1-1v0c0-0.552-0.448-1-1-1v0h-12.484l-0.639-3.195c-0.094-0.462-0.497-0.804-0.98-0.805h-0z"></path>
</symbol>
<symbol id="icon-cart-bw-plus" viewBox="0 0 32 32">
<path d="M9 24.006c-1.645 0-3 1.355-3 3s1.355 3 3 3c1.645 0 3-1.355 3-3s-1.355-3-3-3zM9 26.006c0.564 0 1 0.436 1 1s-0.436 1-1 1c-0.564 0-1-0.436-1-1s0.436-1 1-1z"></path>
<path d="M23 24.006c-1.645 0-3 1.355-3 3s1.355 3 3 3c1.645 0 3-1.355 3-3s-1.355-3-3-3zM23 26.006c0.564 0 1 0.436 1 1s-0.436 1-1 1c-0.564 0-1-0.436-1-1s0.436-1 1-1z"></path>
<path d="M3 2.006c-0.552 0-1 0.448-1 1v0c0 0.552 0.448 1 1 1v0h1.18l2.65 13.242c-1.071 0.46-1.83 1.527-1.83 2.758 0 1.645 1.355 3 3 3h17c0.552 0 1-0.448 1-1v0c0-0.552-0.448-1-1-1v0h-17c-0.571 0-1-0.429-1-1s0.429-1 1-1h15c0.016-0.003 0.026-0.005 0.036-0.007l-0.007 0.001h2.971c0 0 0 0 0 0 0.497 0 0.91-0.363 0.987-0.838l0.001-0.006 0.939-5.969c0.008-0.047 0.012-0.101 0.012-0.157 0-0.497-0.363-0.91-0.839-0.987l-0.006-0.001c-0.047-0.008-0.101-0.012-0.156-0.012-0.498 0-0.911 0.364-0.987 0.841l-0.001 0.006-0.807 5.123h-16.324l-1.801-8.994h12.084c0.552 0 1-0.448 1-1v0c0-0.552-0.448-1-1-1v0h-12.484l-0.639-3.195c-0.094-0.462-0.497-0.804-0.98-0.805h-0z"></path>
<path d="M24 2.006c-3.302 0-6 2.698-6 6s2.698 6 6 6c3.302 0 6-2.698 6-6s-2.698-6-6-6zM24 4.006c2.221 0 4 1.779 4 4s-1.779 4-4 4c-2.221 0-4-1.779-4-4s1.779-4 4-4z"></path>
<path d="M24 5.006c-0.552 0-1 0.448-1 1v0 1h-1c-0.552 0-1 0.448-1 1v0c0 0.552 0.448 1 1 1v0h1v1c0 0.552 0.448 1 1 1v0c0.552 0 1-0.448 1-1v0-1h1c0.552 0 1-0.448 1-1v0c0-0.552-0.448-1-1-1v0h-1v-1c0-0.552-0.448-1-1-1v0z"></path>
</symbol>
<symbol id="icon-cart-bw-wait" viewBox="0 0 32 32">
<path d="M9 24.006c-1.645 0-3 1.355-3 3s1.355 3 3 3c1.645 0 3-1.355 3-3s-1.355-3-3-3zM9 26.006c0.564 0 1 0.436 1 1s-0.436 1-1 1c-0.564 0-1-0.436-1-1s0.436-1 1-1z"></path>
<path d="M23 24.006c-1.645 0-3 1.355-3 3s1.355 3 3 3c1.645 0 3-1.355 3-3s-1.355-3-3-3zM23 26.006c0.564 0 1 0.436 1 1s-0.436 1-1 1c-0.564 0-1-0.436-1-1s0.436-1 1-1z"></path>
<path d="M24 2.006c-3.302 0-6 2.698-6 6s2.698 6 6 6c3.302 0 6-2.698 6-6s-2.698-6-6-6zM24 4.006c2.221 0 4 1.779 4 4s-1.779 4-4 4c-2.221 0-4-1.779-4-4s1.779-4 4-4z"></path>
<path d="M24 5.006c-0.552 0-1 0.448-1 1v0 2c0 0.552 0.448 1 1 1h2c0.552 0 1-0.448 1-1v0c0-0.552-0.448-1-1-1v0h-1v-1c0-0.552-0.448-1-1-1v0z"></path>
<path d="M3 2.006c-0.552 0-1 0.448-1 1v0c0 0.552 0.448 1 1 1v0h1.18l2.65 13.242c-1.071 0.46-1.83 1.527-1.83 2.758 0 1.645 1.355 3 3 3h17c0.552 0 1-0.448 1-1v0c0-0.552-0.448-1-1-1v0h-17c-0.571 0-1-0.429-1-1s0.429-1 1-1h15c0.016-0.003 0.026-0.005 0.036-0.007l-0.007 0.001h2.971c0 0 0 0 0 0 0.497 0 0.91-0.363 0.987-0.838l0.001-0.006 0.939-5.969c0.008-0.047 0.012-0.101 0.012-0.157 0-0.497-0.363-0.91-0.839-0.987l-0.006-0.001c-0.047-0.008-0.101-0.012-0.156-0.012-0.498 0-0.911 0.364-0.987 0.841l-0.001 0.006-0.807 5.123h-16.324l-1.801-8.994h12.084c0.552 0 1-0.448 1-1v0c0-0.552-0.448-1-1-1v0h-12.484l-0.639-3.195c-0.094-0.462-0.497-0.804-0.98-0.805h-0z"></path>
</symbol>
</defs>
</svg>
